<svg width="275" height="65" viewBox="0 0 275 65" fill="none" xmlns="http://www.w3.org/2000/svg">
<path d="M117 32.7968C117.01 35.1068 119.035 37 121.523 37C124.017 37 126.046 35.1145 126.046 32.7968V32.2034C126.046 31.249 126.882 30.4725 127.909 30.4725C128.491 30.4725 129.011 30.7219 129.353 31.1116L132.277 31.1116C131.759 29.3215 129.997 28 127.909 28C125.415 28 123.386 29.8857 123.386 32.2034V32.7968C123.386 33.7513 122.55 34.5275 121.523 34.5275C120.496 34.5275 119.661 33.7513 119.661 32.7968C119.661 32.5237 119.422 32.3022 119.129 32.3022H117.532C117.238 32.3024 117 32.5237 117 32.7968Z" fill="black"/>
<path d="M134.307 37C132.225 37 130.467 35.6745 129.943 33.8884L132.863 33.8884C133.204 34.2782 133.725 34.5275 134.307 34.5275C135.334 34.5275 136.169 33.7513 136.169 32.7968V32.2034C136.169 29.8857 138.198 28 140.692 28H140.693H140.693C143.155 28 145.164 29.8371 145.215 32.1135L145.229 32.7968C145.229 33.7513 146.064 34.5275 147.091 34.5275C147.673 34.5275 148.194 34.2782 148.536 33.8884L151.46 33.8884C150.941 35.6786 149.179 37 147.091 37C144.603 37 142.578 35.1068 142.568 32.7968L142.555 32.18C142.555 32.1718 142.554 32.1635 142.554 32.1552C142.527 31.223 141.702 30.4725 140.692 30.4725C139.665 30.4725 138.83 31.249 138.83 32.2034V32.7968C138.83 35.1145 136.801 37 134.307 37Z" fill="black"/>
<path d="M152.032 31.1116C152.374 30.7219 152.895 30.4725 153.477 30.4725C154.504 30.4725 155.339 31.249 155.339 32.2034C155.339 32.4765 155.578 32.6979 155.871 32.6979H157.468C157.762 32.6979 158 32.4765 158 32.2034C158 29.8857 155.971 28 153.477 28C151.389 28 149.627 29.3215 149.108 31.1116L152.032 31.1116Z" fill="black"/>
</svg>
