<svg version="1.1" xmlns="http://www.w3.org/2000/svg" viewBox="0 0 1230.9077358360364 438.33413843075004" width="2461.815471672073" height="876.6682768615001">
  <!-- svg-source:excalidraw -->
  
  <defs>
    <style>
      @font-face {
        font-family: "Virgil";
        src: url("https://excalidraw.com/Virgil.woff2");
      }
      @font-face {
        font-family: "Cascadia";
        src: url("https://excalidraw.com/Cascadia.woff2");
      }
    </style>
  </defs>
  <rect x="0" y="0" width="1230.9077358360364" height="438.33413843075004" fill="#ffffff"></rect><g stroke-linecap="round" transform="translate(91.00399474699293 272.0262677771275) rotate(0 86.5 37)"><path d="M-0.72 -1.82 C34.79 2.48, 71.27 0.1, 174.78 -1.22 M-0.66 -0.04 C57.06 0.09, 113.14 0.22, 173.63 -0.86 M173.54 1.43 C173.15 17.71, 174.79 34.12, 172.44 72.85 M173.57 -0.16 C172.91 19.36, 173.88 38.09, 173.71 73.85 M171.74 72.69 C135.48 72.61, 99.65 71.82, -0.61 75.91 M173.01 73.04 C106.14 72.33, 40.22 72.17, -0.72 74.65 M1.62 75.88 C1.51 54.08, -2.38 33.61, -1.38 0.93 M0.37 73.56 C-0.2 57.81, 0.36 40.51, -0.78 1" stroke="#000000" stroke-width="1" fill="none"></path></g><g transform="translate(131.00399474699293 294.5262677771275) rotate(0 39 13)"><text x="0" y="18" font-family="Virgil, Segoe UI Emoji" font-size="20px" fill="#000000" text-anchor="start" style="white-space: pre;" direction="ltr">fallback</text></g><g stroke-linecap="round" transform="translate(89.50399474699293 190.0262677771275) rotate(0 86.5 28)"><path d="M0 0 C0 0, 0 0, 0 0 M0 0 C0 0, 0 0, 0 0 M0.5 6.21 C0.57 3.83, 2.49 2.87, 4.36 0.14 M-0.43 6.48 C1.77 3.85, 3.38 2.24, 5.03 0.29 M-0.39 13.28 C1.93 9.22, 3.76 7.02, 12.01 -1.51 M0 12.65 C2.69 9, 4.41 5.98, 10.7 -0.77 M0.14 16.64 C7.17 10.57, 9.77 5.65, 17.5 -1.5 M-0.82 17.77 C5.86 10.92, 12.22 4.61, 15.98 0.37 M-0.79 25.15 C5.86 17.93, 13.33 8.3, 19.53 -1.83 M1.26 23.18 C4.81 19.43, 9.52 13.4, 20.39 -0.82 M-1.82 28.68 C9.9 20.48, 17.63 7.44, 26.4 1.52 M-0.48 30.29 C6.5 23.24, 13.04 16.5, 25.33 0.75 M-2.11 35.22 C9.98 25.82, 22.08 12.37, 33.34 0.32 M-0.04 37.08 C9.87 25.88, 19.34 15.24, 31.41 0.02 M-0.67 43.59 C13.99 25.53, 27.72 10.26, 38.46 -0.14 M-0.57 41.95 C13.29 27.62, 26.44 12.17, 36.25 0 M-1.46 49.93 C12.87 31.15, 28.06 14.6, 42.78 -0.81 M0.74 48.36 C14.39 34.17, 26.66 19.13, 41.9 -0.89 M1.95 52.59 C13.56 41.66, 25.91 23.93, 45.82 1.25 M-0.66 54.95 C14.93 36.94, 29.88 19.27, 46.65 -0.31 M4.63 59.35 C14.6 45.99, 25.17 31.13, 53.63 1.11 M1.82 57.01 C16.89 41.4, 31.1 25.01, 52.36 -0.68 M8.41 58.35 C27.26 38.43, 44.79 14.87, 58.38 0.13 M7.28 58.58 C22.84 40.9, 37.87 23.46, 58.33 -0.71 M12.71 56.53 C26.78 39.95, 42.27 25.11, 62.42 -1.85 M12.55 57.16 C25.8 42.18, 40 27.8, 64.63 -0.04 M16.68 58.07 C32.23 44.28, 44 29.01, 69.83 -0.33 M17.47 57.34 C30.14 44.79, 42.02 31.48, 67.94 -0.82 M21.96 58.29 C38.36 38.9, 57.97 18.38, 74.49 -1.94 M24.02 56.92 C43.1 35.5, 62.65 13.73, 74.91 -0.3 M30.21 59.91 C42.97 45.4, 54.61 29.42, 79.64 1.73 M29.14 58.38 C44.8 41.9, 58.57 24.48, 79.99 -0.41 M33.22 59.16 C44.74 44.1, 55.42 30.23, 85.95 -1.67 M35.07 57.22 C44.41 46.99, 56.19 33.77, 84.77 -0.38 M38.47 58 C50 45.37, 62.89 34.26, 91.07 0.93 M40.18 57.45 C59.53 35.63, 78.79 13.63, 89.85 -0.32 M47.13 58.34 C64.63 35.43, 83.11 12.4, 93.7 0.19 M45.36 57.9 C58.79 39.49, 73.69 24.09, 96.14 0.17 M51.72 58.17 C61.58 46.25, 74.24 32.54, 101.15 -1.42 M50.82 57.7 C62.7 44.64, 73.98 30.22, 100.75 0.46 M54.1 57.79 C70.33 42.07, 81.44 27.01, 105.41 -1.46 M56.44 58.66 C71.18 40.01, 86.56 21.44, 106.3 0.22 M59.03 59.97 C76.24 38.43, 94.65 19.43, 110.7 0.71 M60.65 58.68 C79.37 36.11, 97.96 16.59, 110.78 -0.13 M67.65 56.92 C76.49 47.41, 87.45 32.96, 116.88 0.8 M66.06 58.89 C79.17 42.38, 95.02 26.34, 116.24 0.75 M70.22 58.67 C87.93 38.58, 100.64 23.61, 122.3 0.09 M71.63 57.32 C85.01 41.98, 98.9 25.19, 121.89 -0.27 M77.07 59.6 C92.12 41.96, 105.13 26.43, 128.65 1.82 M75.79 57.56 C95.06 37.16, 112.99 16.33, 126.26 0.9 M81.91 59.26 C95.92 41.5, 108.56 26.48, 134.34 -1.82 M81.09 58.92 C94.09 42.71, 107.82 27.55, 132.88 0.72 M85.46 56.68 C103.63 37.03, 123.64 17.14, 136.09 -1.56 M86.09 58.83 C100.06 42.78, 113.06 28.21, 137.09 -0.56 M91.48 58.45 C109 40.66, 121.53 23.74, 142.98 -0.83 M92.68 58.22 C112.74 35.06, 131.78 14.34, 142.42 -0.54 M98.34 56.99 C112.04 42.01, 125.47 27.41, 150 0.45 M97.94 57.98 C117.91 36.07, 137.66 14.63, 147.43 0.79 M103.11 58.67 C122.24 36.87, 139.22 16.23, 152.15 -0.01 M103.45 58.31 C118.84 40, 134.79 20.74, 154.04 -0.58 M109.05 58.06 C125.2 39.93, 142 23.05, 157.97 1.39 M109.18 59.18 C126.55 38.67, 144.92 17.66, 158.37 0.75 M113.75 58.06 C131.07 38.63, 150.89 16.12, 163.59 0.26 M114.79 57.68 C131.31 38.34, 148.69 20.12, 165.12 -0.02 M120.67 60.14 C130.93 44.86, 147.11 26.71, 170.34 0.49 M119.51 58.5 C131.01 44.97, 141.3 31.25, 170.35 -0.48 M123.15 56.48 C142.8 33.72, 161.59 13.65, 173.47 1.84 M125.45 57.23 C136.98 44.48, 150.1 30.1, 174.59 0.91 M128.07 60.21 C146.16 37.29, 163.48 16, 172.36 7.49 M129.48 58.88 C143.54 42.24, 156.69 26.81, 174.27 7.48 M135.82 57.53 C143.52 48.85, 153.69 37.89, 173.2 12.85 M134.55 57.21 C147.76 43.35, 162.7 27.98, 174.69 13.44 M139.93 57.97 C147.08 49.92, 154.86 39.96, 175.27 17.58 M139.52 59.18 C152.49 44.87, 165.18 30.43, 173.59 19.1 M147.07 58.5 C153.59 51.66, 159.03 42.82, 175.05 26.52 M146.55 58.31 C156.84 45.12, 168.02 32.38, 173.57 26.04 M152.67 57.81 C156.46 52.69, 164.43 45.71, 173.7 30.61 M150.9 59.13 C157.71 49.35, 165.9 40.83, 172.78 31.22 M156.96 56.41 C162.04 54.26, 165.77 47.34, 175.85 37.35 M156.29 58.57 C160 51.77, 164.72 48.28, 174.04 37.65 M160.56 58.85 C165.64 53.95, 171.29 47.58, 174.44 43.23 M160.78 58.35 C165.45 53.5, 167.58 50.47, 173.05 44.07 M167.78 57.91 C167.97 55.69, 170.45 53.39, 175.36 48.97 M167.56 58.14 C169.63 55.08, 171.49 53.2, 174.02 49.83" stroke="#fab005" stroke-width="0.5" fill="none"></path><path d="M-1.03 0.85 C35.21 0.05, 72.95 0.35, 173.55 0.45 M173.76 -1.44 C172.21 13.02, 173.89 26.66, 171.68 55.71 M173.26 56.39 C131.31 56.73, 85.26 56.08, -0.76 56.74 M-0.73 55.98 C0.9 39.29, 1.1 24.91, -1.73 1.93" stroke="#c92a2a" stroke-width="1.5" fill="none" stroke-dasharray="1.5 7"></path></g><g transform="translate(94.50399474699293 206.0262677771275) rotate(0 81.5 12)"><text x="81.5" y="17" font-family="Virgil, Segoe UI Emoji" font-size="20px" fill="#c92a2a" text-anchor="middle" style="white-space: pre;" direction="ltr">isValidating</text></g><g stroke-linecap="round" transform="translate(89.50399474699293 118.02626777712749) rotate(0 86.5 21)"><path d="M0 0 C0 0, 0 0, 0 0 M0 0 C0 0, 0 0, 0 0 M-1.06 5.8 C1.2 4.41, 3.19 1.43, 5.62 0.66 M-0.2 6.11 C0.79 5.24, 2.49 3.23, 4.62 0.47 M-0.23 11.66 C1.69 9.31, 6.06 5.31, 9.43 -0.91 M0.26 11.68 C2.33 8.19, 5.62 5.02, 11.1 -0.26 M1.47 16.97 C2.14 14.38, 9.22 8.14, 17.06 -1.23 M-0.14 17.63 C4.89 13.1, 9.17 8.45, 15.92 1.05 M-0.9 25.89 C5.91 17.05, 10.94 8.08, 19.38 -0.21 M0.47 24.6 C8.87 14.24, 15.67 4.52, 21.8 0.87 M0.9 31.16 C7.58 19.9, 16.31 13.68, 24.81 -1.35 M0.26 30.14 C8.9 21.2, 15.12 12.72, 26.61 -0.24 M-1.03 38.56 C13.4 23.1, 27.11 8.15, 31.8 0 M0.38 36.79 C9.6 26.27, 17.86 15.45, 32.61 -0.81 M0.03 41.33 C12.13 27.94, 25.58 14.68, 38.1 0.58 M0.08 42.74 C9.75 31.86, 18.77 20.66, 37.38 0.92 M4.16 41.74 C17.37 27.61, 31.69 12.09, 42.81 -0.56 M6.78 42.67 C14.99 32.07, 24.26 19.19, 42.2 -0.63 M11.15 43.97 C20.36 29.8, 28.42 21.22, 47.97 2.11 M10.67 42.76 C24.33 26.87, 37.49 10.53, 46.84 1.07 M17.11 43.86 C27.83 28.07, 41.15 14.72, 52.6 -1.23 M16.6 41.74 C31.08 25.78, 43.31 10.47, 53.96 -0.98 M21.33 44.44 C28.49 32.6, 39.55 21.6, 58.26 0.5 M21.26 42.58 C30.2 32.21, 40.17 20.24, 57.93 0.14 M26.43 40.1 C37.39 30.87, 44.68 18.94, 63.13 1.38 M26.54 41.9 C38.82 30.34, 50.75 16.55, 63.16 -0.37 M33.9 42.76 C48.62 24.49, 62.72 8.27, 67.56 -1.24 M31.4 42.38 C38.94 34.77, 46.42 24.65, 68.97 0.45 M36.13 42.07 C53.98 23.98, 66.17 8.02, 76.15 -0.63 M37.21 42.16 C48.28 30.44, 60.38 16.7, 73.92 -0.39 M44 43.63 C50.22 33.27, 57.65 26.4, 79.29 -0.42 M43.54 43.25 C53.93 29.53, 66.35 15.1, 78.64 -0.29 M46.96 41.12 C56.41 28.72, 69.15 17.74, 83.21 -0.45 M47.6 42.92 C57.17 32.2, 64.93 22.41, 84.21 -0.76 M52.54 42.52 C68.57 28.09, 82.32 11.3, 91.6 -0.6 M53.97 42.15 C67.42 26.79, 80.05 10.91, 90.97 0.04 M58.47 42.29 C66.19 31.05, 75.7 20.32, 95.62 1.45 M58.05 40.97 C69.19 29.76, 82.02 16.29, 94.88 -0.32 M64.2 43.57 C78.94 27.1, 91.18 9.66, 99.47 -1.64 M63.84 42.94 C75 28.51, 88.35 14.57, 100.35 0.91 M70.99 42.35 C83.23 26.4, 97.79 7.71, 106.47 -0.66 M69.28 42.5 C82.83 25.39, 97.32 9.9, 106.62 0 M73.46 41.67 C85.18 30.46, 93.71 20.33, 112.62 -1.67 M74.15 41.39 C84.12 31.63, 93.78 19.29, 110.54 0.22 M78.99 44.55 C88.32 31.8, 100.06 19.98, 115.98 0.94 M78.7 42.82 C88.85 33.04, 97.07 22.51, 116.33 0.91 M86.57 40.42 C94.56 31.07, 106.75 18.16, 121.57 0.89 M84.78 42.11 C92.23 32.91, 100.9 24.04, 121.65 -0.77 M91.66 41.58 C98.75 32.49, 107.82 25.41, 128.13 -1.56 M90.03 42.39 C101.57 29.53, 113 16.78, 126.75 0.75 M95.57 42.13 C104.53 31.16, 118.95 15.69, 131.62 1.33 M95.46 41.66 C108.35 27.62, 119.67 16.06, 133.15 -0.38 M99.03 42.14 C112.42 30.56, 122.16 15.17, 136.7 -1 M100.41 42.32 C114.53 26.75, 128.29 9.86, 137.49 1.01 M108.26 41.84 C116.17 30.44, 126.6 18.23, 144.85 -1.31 M106.78 41.45 C117.09 30.7, 126.99 17.13, 142.87 0.44 M112.54 41.86 C123.74 29.9, 136.13 16.5, 149.91 -0.25 M111.98 42.35 C120.3 34.04, 127.09 24.19, 148.69 0.3 M118.25 41.32 C127.21 29.8, 134.94 19.72, 154.13 1.71 M117.18 42.8 C130.17 26.75, 143.38 11.48, 154 -0.86 M122.44 42.11 C130.35 35.32, 135.82 26.73, 159.76 -1.46 M122.24 42.61 C130.42 32.58, 136.83 24.78, 159.34 0.16 M126.91 43.02 C137.34 31.32, 143.84 23, 165.1 -1.17 M127.97 41.91 C139.76 29.8, 151.18 15.68, 164.09 0.55 M131.74 43.97 C142.08 31.78, 149.04 24.22, 168.04 -0.05 M133.06 42.64 C143.26 28.66, 157 14.53, 170.3 -0.02 M137.4 40.15 C150.61 27.06, 164.71 12.5, 172.86 1.75 M138.33 42.88 C147.77 32.56, 157.28 20.65, 174.73 1.41 M142.25 42.24 C154.07 27.29, 165.75 15.1, 174.4 8.04 M143.65 42.34 C151.44 32.91, 160.61 23.04, 173.37 6.86 M148.66 42.61 C155.81 35.06, 159.53 28.53, 174.76 13.42 M148.26 42.68 C156.92 34.92, 163.6 26.58, 173.33 13.4 M152.54 43.46 C156.87 37.52, 164.69 29.81, 175.51 17.32 M153.6 43.02 C159.09 36.85, 163.36 30.85, 173.45 19.47 M161.41 43.04 C165.98 35.03, 171.2 30.79, 175.96 26.89 M159.67 42.21 C164.22 36.89, 168.38 31.8, 173.7 24.96 M164.15 43.4 C167.82 40.62, 169.42 35.82, 174.23 31.92 M164.07 42.37 C167.41 39.06, 169.83 35.02, 173.16 32.2 M170.8 42.21 C171.99 40.07, 173.15 39.17, 173.88 37.46 M169.94 41.74 C171.48 40.53, 173.13 38.63, 174.35 37.15" stroke="#15aabf" stroke-width="0.5" fill="none"></path><path d="M-0.38 -1.53 C37.91 -1.96, 72.82 -0.28, 172.07 -1.31 M172.58 -1.17 C174.42 10.7, 171.84 24.54, 172.04 42.54 M174.9 41.49 C108.17 41.19, 43.7 43.08, -0.5 43.14 M1.22 40.68 C1.57 29.75, -1.58 20.04, -0.3 -1.26" stroke="#1864ab" stroke-width="1.5" fill="none" stroke-dasharray="1.5 7"></path></g><g transform="translate(94.50399474699293 127.02626777712749) rotate(0 81.5 12)"><text x="81.5" y="17" font-family="Virgil, Segoe UI Emoji" font-size="20px" fill="#1864ab" text-anchor="middle" style="white-space: pre;" direction="ltr">isLoading</text></g><g stroke-linecap="round"><g transform="translate(95.00399474699293 381.0262677771275) rotate(0 81.17482339330013 1.700017992779749)"><path d="M-0.92 1.07 C26.21 1.49, 135.74 2.27, 163.27 2.33" stroke="#862e9c" stroke-width="1.5" fill="none" stroke-dasharray="1.5 7"></path></g><g transform="translate(95.00399474699293 381.0262677771275) rotate(0 81.17482339330013 1.700017992779749)"><path d="M136.8 11.22 C145.27 9.65, 153.45 4.42, 163.18 3.09" stroke="#862e9c" stroke-width="1.5" fill="none" stroke-dasharray="1.5 5"></path></g><g transform="translate(95.00399474699293 381.0262677771275) rotate(0 81.17482339330013 1.700017992779749)"><path d="M136.91 -9.3 C145.3 -3.85, 153.45 -2.05, 163.18 3.09" stroke="#862e9c" stroke-width="1.5" fill="none" stroke-dasharray="1.5 5"></path></g></g><g transform="translate(132.00399474699293 389.0262677771275) rotate(0 38.5 13)"><text x="0" y="18" font-family="Virgil, Segoe UI Emoji" font-size="20px" fill="#862e9c" text-anchor="start" style="white-space: pre;" direction="ltr">fetching</text></g><g stroke-linecap="round" transform="translate(317.50399474699293 273.0262677771275) rotate(0 119.5 36.5)"><path d="M0.46 0.38 C52.66 0.12, 106.8 1.85, 237.8 -0.35 M-0.55 -0.12 C57.3 1.93, 116 1.82, 239.16 0.79 M238.24 0.74 C238.29 21.17, 238.48 39.35, 238.98 74.22 M238.13 0.96 C239.36 16.46, 238.86 33.89, 238.44 73.25 M240.36 72.4 C188.93 74.92, 139.87 73.53, -0.53 71.82 M238.69 73.44 C178.79 74.96, 119.04 75.08, -0.2 72.17 M-1.57 72.44 C2.08 57.28, -0.38 39.27, 0.4 0.31 M0.11 72.82 C-0.34 56.56, -0.29 39.23, 0.77 -0.23" stroke="#000000" stroke-width="1" fill="none"></path></g><g transform="translate(412.00399474699293 293.5262677771275) rotate(0 26 13)"><text x="0" y="18" font-family="Virgil, Segoe UI Emoji" font-size="20px" fill="#000000" text-anchor="start" style="white-space: pre;" direction="ltr">value</text></g><g stroke-linecap="round"><g transform="translate(397.00399474699293 381.0262677771275) rotate(0 74.24120472855861 0.6934522550552629)"><path d="M0.27 -0.56 C25.09 -0.29, 123.35 1.66, 148.21 1.95" stroke="#862e9c" stroke-width="1.5" fill="none" stroke-dasharray="1.5 7"></path></g><g transform="translate(397.00399474699293 381.0262677771275) rotate(0 74.24120472855861 0.6934522550552629)"><path d="M118.93 10.44 C126.52 10.11, 131.94 6.58, 147.04 3.21" stroke="#862e9c" stroke-width="1.5" fill="none" stroke-dasharray="1.5 5"></path></g><g transform="translate(397.00399474699293 381.0262677771275) rotate(0 74.24120472855861 0.6934522550552629)"><path d="M119.26 -10.08 C126.82 -5.51, 132.17 -4.13, 147.04 3.21" stroke="#862e9c" stroke-width="1.5" fill="none" stroke-dasharray="1.5 5"></path></g></g><g transform="translate(430.50399474699293 389.0262677771275) rotate(0 38.5 13)"><text x="0" y="18" font-family="Virgil, Segoe UI Emoji" font-size="20px" fill="#862e9c" text-anchor="start" style="white-space: pre;" direction="ltr">fetching</text></g><g stroke-linecap="round" transform="translate(384.50399474699293 191.0262677771275) rotate(0 86.5 27.5)"><path d="M0 0 C0 0, 0 0, 0 0 M0 0 C0 0, 0 0, 0 0 M-0.62 6.07 C1.28 4.86, 1.98 2.47, 5.79 0.45 M-0.6 6.27 C1.58 4.59, 2.65 2.8, 4.97 0.71 M-0.56 11.77 C3.62 9.84, 3.86 6.04, 9.29 0.11 M-0.36 12.15 C1.53 10.19, 3.85 6.45, 10.67 0.72 M-0.53 17.06 C1.7 14.76, 4.69 11.97, 14.86 1.04 M-0.2 17.91 C5.15 12.22, 10.32 6.97, 15.69 -0.54 M2.13 26.08 C3.14 19.39, 10.43 15.04, 20.19 -1.81 M0.29 23.17 C3.95 18.91, 9.9 12.72, 20.42 0.01 M0.06 29.51 C9.33 20.3, 18.51 10.48, 25.86 -1.53 M0.98 29.55 C8.15 19.79, 18.9 9.99, 26.58 1.02 M-0.45 37.3 C10.49 26.26, 20.22 14.32, 32.3 -1.07 M-0.03 36.47 C10.07 25.49, 18.99 13.96, 31.51 0.69 M-0.7 41.1 C9.04 30.5, 20.91 18.42, 36.95 -1 M0.59 41.85 C10.49 29.89, 19.86 18.44, 37.01 0.39 M-0.83 50.64 C10.04 37.94, 23.6 22.57, 44.38 -1.38 M-0.44 49.76 C8.62 38.31, 19.92 27.16, 41.66 -0.98 M1.67 52.7 C17.53 34.82, 33.91 15.07, 47.84 -1.49 M0.63 55.56 C12.98 41.12, 24.8 27.13, 47.73 0.46 M4.08 56.31 C19.34 37.42, 38.89 17.16, 51.31 -1.75 M2.09 58.33 C14.78 43.83, 28.35 28.48, 53.43 -0.05 M7.3 56.87 C23.63 40.13, 38.15 22.23, 59.07 0.57 M7.85 57.27 C18.21 45.19, 28.42 33.8, 57.85 -0.49 M13.4 56.48 C22.97 43.85, 35.13 32.6, 65.76 1.49 M14.25 57.12 C29.52 40.53, 45.78 22, 63.23 0.32 M16.96 55.95 C31.16 40.79, 46.68 24.51, 69.94 -1.5 M19.72 56.54 C29.1 44.97, 39.02 35.07, 67.84 0.19 M23.95 58.13 C32.35 44.55, 45.37 32.05, 76.15 0.76 M22.94 58.53 C39.88 41.52, 54.53 23.92, 74.33 -0.12 M29.85 58 C48.85 37.54, 69.27 13.49, 80.51 1.3 M29.21 56.83 C42.96 42.82, 54.2 28.31, 78.54 0.58 M33.18 58.92 C45.47 43.08, 60.21 32.18, 84.72 -0.81 M35.3 57.31 C49.53 40.89, 64.32 25.05, 85.88 0.25 M41.58 58.78 C55.29 39.34, 73.46 19.96, 89.66 -0.27 M39.77 58.43 C52.82 42.37, 65.64 26.79, 90.14 -0.9 M45.33 58.21 C61.77 36.72, 76.03 17.6, 97.46 0.64 M45.84 58.59 C63.21 37.71, 81.43 18.23, 95.86 -0.06 M51.5 58.76 C61.51 44.68, 74.98 29.96, 101.03 0.24 M51.71 56.56 C68 38.12, 85.22 17.3, 101.17 -0.4 M57.42 59.08 C69.88 43.09, 81.58 28.49, 106.16 -0.34 M55.42 56.9 C74.52 36.35, 91.29 16.47, 106.14 -0.64 M60.78 57.13 C78.85 37.8, 92.64 18.75, 113.05 -0.99 M61.19 58.32 C75.33 40.6, 91.32 23.99, 111.57 0.32 M65.23 58.34 C83.32 37.48, 98.9 21.91, 117.73 0.3 M66.26 57.14 C83.51 38.79, 99.14 18.06, 116.76 0.57 M70.37 57.8 C85.82 38.82, 102.34 20.55, 120.91 -0.08 M71.24 57.68 C86.47 42.71, 99.08 26.57, 121.58 0.85 M77.36 56.5 C93.56 36.44, 113.56 14.35, 126.82 -0.94 M76.95 57.64 C95.48 36.96, 112.58 15.69, 127.62 1.24 M82.98 55.42 C95.23 44.14, 102.95 33.86, 130.6 0.61 M82.75 56.52 C100.3 34.92, 119.78 14.18, 132.85 -0.77 M89.17 55.8 C99.04 45.36, 108.01 33.43, 137.9 -0.59 M87.41 57.07 C98.55 45.99, 108.8 32.57, 137.49 0.21 M93.12 57.31 C106.35 43.16, 117.64 27.39, 144.9 -1.6 M93.45 57.62 C105.49 42.97, 118.53 28.29, 143.35 0.83 M96.8 58.21 C112.41 41.13, 128.25 23.78, 149.89 -1.2 M97.96 57.54 C115.87 38.04, 132.64 17.48, 147.66 -0.56 M105.07 57.56 C119.75 39.46, 135.68 21.89, 153.35 0.34 M102.96 57.62 C116.35 43.23, 128.95 29.03, 154.44 -0.54 M107.18 59.4 C128.15 37.87, 144.54 18.91, 157.48 -0.61 M108.24 57.51 C126.18 37.1, 144.09 17.93, 158.29 -0.19 M114.89 58.94 C129.85 39.59, 146.01 22.31, 166.29 1.2 M113.73 58.08 C131.31 38.41, 146.77 21.84, 163.81 0.3 M120 58.76 C135.99 40.34, 151.63 19.61, 169.13 2.06 M120.29 56.86 C129.9 43.92, 141.21 30.5, 169.38 0.06 M123.77 59.72 C139.47 39.34, 158.52 22.02, 175.5 2.99 M125.44 57.19 C137.73 42.65, 149.44 27.76, 173.23 0.42 M129.76 57.42 C145.69 41.44, 158.66 23.32, 175.2 7.2 M129.47 57.85 C145.89 39.62, 161.82 22.6, 173.9 6.62 M134.66 56.62 C144.28 44.24, 157.56 35.32, 175.02 14.97 M134.57 57.76 C147.22 43.44, 159.81 29.45, 174.24 13.85 M139.72 56.2 C150.12 48.27, 157.15 40.17, 175.03 17.62 M141.53 58.12 C151.84 46.31, 162.41 34.05, 173.89 19.52 M146.3 59.33 C156.45 46.24, 166 34.67, 174.7 24.49 M145.53 58.79 C155.99 45.86, 167.2 34.95, 174.81 25.37 M151.94 57.65 C158.58 49.81, 162.14 44.69, 174.36 29.83 M151.55 57.71 C156.38 52.08, 162.89 45.84, 172.88 32.65 M157.9 57.51 C163.26 49.93, 165.5 44.39, 176 37.22 M156.19 57.36 C162.35 51.18, 168.21 45.21, 174.09 37.73 M161.33 56.2 C165.61 54.78, 166.95 48.68, 174.1 42.24 M162.91 58 C166.1 52.36, 169.82 48.54, 173.65 44.72 M166.7 58.75 C169.63 56.61, 170.12 54.02, 174.77 48.94 M166.67 58.17 C169.32 54.77, 172.63 51.43, 174.45 49.79" stroke="#fab005" stroke-width="0.5" fill="none"></path><path d="M-0.09 0.76 C54.36 0.72, 110.42 2.4, 171.29 -1.32 M174.43 0.26 C173.13 17.62, 172.23 30.87, 171.85 54.24 M172.69 54.27 C114.69 57.2, 55.11 57.4, -0.31 53.27 M-1.31 54.41 C-1.05 33.71, -1.84 10.8, 1.91 1.63" stroke="#c92a2a" stroke-width="1.5" fill="none" stroke-dasharray="1.5 7"></path></g><g transform="translate(389.50399474699293 206.5262677771275) rotate(0 81.5 12)"><text x="81.5" y="17" font-family="Virgil, Segoe UI Emoji" font-size="20px" fill="#c92a2a" text-anchor="middle" style="white-space: pre;" direction="ltr">isValidating</text></g><g stroke-linecap="round" transform="translate(598.5039947469929 274.0262677771275) rotate(0 86.5 35.5)"><path d="M-1.44 -0.42 C39.37 0.6, 79.37 -1.98, 172.71 -0.96 M0.2 0.95 C56.3 -0.51, 112.53 -0.61, 173.37 -0.25 M172.98 1.22 C171.57 26.75, 172.58 48.93, 174.93 70.7 M172.44 0.25 C171.57 16.54, 173.49 34.5, 172.64 70.22 M172.36 69.59 C120.03 68.13, 70.25 68.83, 1.07 71.38 M172.76 70.01 C106.37 71.95, 41.7 71.86, -0.28 71.79 M0.4 71.31 C-1.1 45.52, 2.31 23.37, -0.37 -1.82 M0.77 70.77 C0.37 47.28, 0.57 25.34, -0.92 -0.75" stroke="#000000" stroke-width="1" fill="none"></path></g><g transform="translate(641.0039947469929 293.5262677771275) rotate(0 47.5 13)"><text x="0" y="18" font-family="Virgil, Segoe UI Emoji" font-size="20px" fill="#000000" text-anchor="start" style="white-space: pre;" direction="ltr">new value</text></g><g transform="translate(30.380494042355963 37.9287313238101) rotate(0 40 13)"><text x="0" y="18" font-family="Virgil, Segoe UI Emoji" font-size="20px" fill="#000000" text-anchor="start" style="white-space: pre;" direction="ltr">Fallback</text></g><g stroke-linecap="round"><g transform="translate(373.50399474699293 103.52626777712749) rotate(0 1.1343370240181798 78.98248638100927)"><path d="M-0.7 0.76 C-0.06 27, 2.22 131.1, 2.97 157.21" stroke="#d9480f" stroke-width="1.5" fill="none" stroke-dasharray="1.5 7"></path></g></g><g transform="translate(326.00399474699293 77.02626777712749) rotate(0 53 13)"><text x="0" y="18" font-family="Virgil, Segoe UI Emoji" font-size="20px" fill="#d9480f" text-anchor="start" style="white-space: pre;" direction="ltr">Revalidate</text></g><g transform="translate(26.042276731725337 298.83984962093245) rotate(0 27.5 13)"><text x="0" y="18" font-family="Virgil, Segoe UI Emoji" font-size="20px" fill="#000000" text-anchor="start" style="white-space: pre;" direction="ltr">data:</text></g><g stroke-linecap="round" transform="translate(10 10) rotate(0 605.4538679180182 209.16706921537502)"><path d="M-0.18 0.55 C345.08 -1.35, 690.18 -1.58, 1210.49 -0.48 M1210.25 0.71 C1211.73 100.49, 1211.43 203.12, 1210.32 418.42 M1211.57 418 C965.23 415.91, 718.19 415.34, -0.38 417.93 M0.63 418.78 C-0.09 330.89, 0.34 242.45, 0.61 0.63" stroke="#d9480f" stroke-width="1.5" fill="none" stroke-dasharray="1.5 7"></path></g></svg>