<svg version="1.1" xmlns="http://www.w3.org/2000/svg" viewBox="0 0 1230.9077358360364 438.33413843075004" width="2461.815471672073" height="876.6682768615001">
  <!-- svg-source:excalidraw -->
  
  <defs>
    <style>
      @font-face {
        font-family: "Virgil";
        src: url("https://excalidraw.com/Virgil.woff2");
      }
      @font-face {
        font-family: "Cascadia";
        src: url("https://excalidraw.com/Cascadia.woff2");
      }
    </style>
  </defs>
  <rect x="0" y="0" width="1230.9077358360364" height="438.33413843075004" fill="#ffffff"></rect><g stroke-linecap="round" transform="translate(10 10) rotate(0 605.4538679180182 209.16706921537502)"><path d="M-0.08 -0.38 C415.89 -0.59, 832.42 0.33, 1211.54 -0.75 M1211.28 -0.73 C1212.04 154.86, 1211.29 309.4, 1210.05 418.09 M1211.15 417.78 C814.35 419.59, 418.38 420.38, -0.72 418.84 M-0.76 417.63 C1.02 255.89, 1.64 93.1, 0.98 0.02" stroke="#d9480f" stroke-width="1.5" fill="none" stroke-dasharray="1.5 7"></path></g><g stroke-linecap="round" transform="translate(107.97850959931088 261.52761001917656) rotate(0 86.5 37)"><path d="M1.04 1.86 C55.45 -3.7, 113.44 -0.06, 171.03 -0.99 M-0.81 0.07 C47.27 -0.52, 92.4 -0.32, 172.12 -0.99 M172.09 1.65 C174.82 17.93, 173.06 33.87, 171.71 73.1 M173.57 -0.83 C172.67 16.49, 172.26 32.62, 173.8 73.88 M173.21 74.19 C117.21 74.15, 62.49 74.56, 1.87 75.29 M172.07 73.88 C104.47 73.44, 34.17 73.76, 0.77 74.56 M-1.19 75.62 C0.04 43.21, 0.01 13.55, -1.43 1.41 M-0.28 74.95 C-1.59 51.74, -0.75 27.83, -0.49 0.91" stroke="#000000" stroke-width="1" fill="none"></path></g><g transform="translate(147.97850959931088 284.02761001917656) rotate(0 45 13)"><text x="0" y="18" font-family="Virgil, Segoe UI Emoji" font-size="20px" fill="#000000" text-anchor="start" style="white-space: pre;" direction="ltr">undefined</text></g><g stroke-linecap="round" transform="translate(106.47850959931088 179.52761001917656) rotate(0 86.5 28)"><path d="M0 0 C0 0, 0 0, 0 0 M0 0 C0 0, 0 0, 0 0 M-0.06 5.95 C1.94 4.05, 3.97 2.22, 4.54 0.36 M-0.4 6.64 C1.67 4.32, 3.01 2.25, 4.74 0.51 M-0.82 11.09 C3.32 8.15, 7.05 4.9, 11.56 -1.2 M-0.38 11.46 C2.72 7.89, 6.27 4.18, 11.11 0.36 M0.8 19.98 C5.86 11.45, 12.05 5.53, 16.23 -0.27 M-0.42 17.58 C4.91 14.08, 7.75 8.93, 16.11 1.06 M1.47 23 C8.2 16.7, 12.53 10.79, 20.67 1.76 M0.31 23.9 C8.64 13.83, 16.59 4.01, 21.19 0.73 M-0.35 30.08 C7.58 24.87, 12.66 14.35, 25.34 -0.55 M0.23 30.92 C8.37 22.25, 15.34 11.59, 26.21 1.07 M-0.15 38.77 C10.64 22.82, 22.43 11.14, 32.64 1.58 M-0.25 37.62 C11.79 22.6, 23.39 9.43, 32.09 -0.9 M-1.35 42.98 C9.77 28.55, 22.46 17.79, 36.07 1.67 M-0.4 41.69 C9.77 29.28, 20.31 17.72, 37.07 0.43 M0.87 48.19 C12.11 31.66, 27.36 17.69, 41.68 -1.22 M0.22 48.92 C16.17 28.98, 32.32 11.55, 42.4 -0.72 M0.4 52.85 C13.79 38.16, 27.74 22.77, 49 0.33 M0.82 53.94 C9.57 42.36, 20 32.57, 48.46 -0.34 M3.72 56.31 C19.57 37.47, 39.03 19.07, 52.49 -1.07 M2.14 58.4 C14.41 44.9, 25.31 30.98, 52.46 -0.64 M9.45 58.34 C21.33 40.53, 38.72 22.86, 58.44 -0.84 M8.16 57.76 C23.14 39.68, 38.95 21.74, 58.55 1.15 M12.57 58.2 C23.64 45.89, 34.96 34.75, 62.46 -1.6 M13.6 58.7 C31.15 35.61, 49.45 15.74, 63.51 0.78 M19.89 57.71 C29.48 43.3, 42.99 30.84, 70.39 1.65 M17.59 57.42 C35.88 38.06, 53.55 17.31, 68.88 0.14 M22.2 59.78 C36.24 43.65, 52.04 26.85, 75.73 -1.67 M22.99 58.45 C35.42 45.14, 45.86 31.88, 74.66 -0.67 M29.2 57.26 C46.13 37.4, 60.84 18.39, 80.6 1.1 M29.64 58.81 C45.94 38.45, 64.01 18.05, 79.42 -0.25 M32.96 59.71 C46.86 44.02, 56.24 33.6, 85.16 -1.35 M34.94 57.05 C51.97 36.53, 70.74 15.32, 85.95 0.18 M38.85 58.28 C57.32 40.5, 74.35 20.68, 88.54 -1.45 M39.03 57.4 C51.12 45.75, 62.75 31.43, 89.48 -0.08 M44.95 56.44 C58.15 42.47, 72.38 25.98, 94.31 0.05 M45.46 58.79 C60.95 40.96, 73.94 23.57, 95.28 -1.16 M49.03 58.87 C63.09 42.93, 73.75 28.82, 99.37 0.87 M50.34 59.02 C69.18 35.67, 88.71 15.13, 100.81 0.49 M55.96 58.19 C67.16 42.41, 79.92 29.8, 107.46 -1.97 M54.98 57.8 C65.38 46.41, 76.32 33.54, 105.44 0.19 M60.65 59.87 C78.53 38.93, 97.4 14.94, 110 -1.32 M61.06 58.87 C73.87 43.35, 89.66 26.77, 110.52 0.14 M66.86 57.71 C83.44 37.21, 100.53 19.41, 114.96 1.62 M66.64 57.83 C82.5 40.61, 97.77 21.27, 116.46 0.23 M73.36 58.93 C87.4 41.55, 99.94 27.39, 123.04 0.38 M70.58 58.49 C87.76 38.48, 104.91 20.61, 122.12 -0.59 M78.2 59.27 C93.63 37.5, 111.1 20.94, 125.86 0.34 M75.96 58.23 C91.45 42.58, 105.6 24.42, 127.25 0.03 M83.48 56.48 C92.7 43.47, 108.54 27.99, 132.81 -1.82 M81.14 58.8 C100.14 36.98, 117.57 16.43, 132.51 -0.31 M88.28 57.2 C101.87 39.41, 119.76 20.55, 137.94 -1.21 M87.86 57.46 C107.11 34.75, 125.97 12.51, 136.61 -0.68 M94.1 57.73 C105.81 40.92, 122.52 24.32, 143.38 -1.97 M92.92 57.05 C109.86 37.75, 126.59 19.62, 142.97 0.26 M97.79 58.85 C109.99 43.6, 126.63 24.24, 146.35 -0.43 M98.33 59.1 C116.42 38.33, 134.63 16.22, 148.9 0.4 M105 58.65 C116.26 45.28, 124.31 31.41, 154.52 1.69 M102.96 57.88 C117.64 43.1, 130.19 27.34, 154.2 -0.77 M107.11 59.33 C120.23 46.17, 133.76 31.26, 156.99 2.08 M108.73 57.57 C125.1 37.28, 143.1 17.06, 158.38 -0.05 M114.68 56.02 C125.45 46.57, 138.25 30.28, 163.71 0.69 M114.2 58.28 C128.91 40.3, 143.61 24.35, 165.26 0.57 M118.37 59.57 C129.96 43.94, 142.78 33.2, 168.44 0.5 M118.81 59.18 C138.15 36.88, 157.92 14.99, 170.18 0.01 M126.37 57.38 C136.56 40.47, 151.01 24.35, 174.85 -0.14 M124.47 58.59 C143.56 37.22, 161.27 14.6, 173.3 0.65 M129.39 60.24 C146.8 39.61, 160.95 19.79, 176.13 8.57 M129.74 59.07 C140.4 45.74, 150.7 31.88, 173.44 7.75 M134.02 59.07 C150.6 40.82, 166.06 25.13, 175 13.36 M135.49 57.51 C145.55 45.28, 156.73 34.74, 173.3 13.2 M139.73 59.82 C151.06 42.6, 163.22 31.19, 175.4 18.52 M141.05 58.25 C148.36 49.54, 156.54 38.92, 173.38 19.43 M144.27 56.2 C152.18 49.12, 160.79 41.26, 175.98 23.49 M145.87 57.12 C154.68 48.23, 162.33 39.44, 174.7 25.24 M152.65 56.56 C160.6 47.01, 167.31 39.42, 174.94 32.34 M151.67 58.59 C157.14 50.84, 161.99 44.45, 173.77 32.62 M154.52 56.66 C163.26 51.52, 167.31 46.23, 174.17 36.91 M156.1 57.83 C161.6 51.18, 167.2 44.62, 174.11 38.16 M161.17 58.49 C162.94 54.97, 167.68 51.35, 173.56 45.72 M160.94 57.84 C165.09 54.71, 167.37 50.11, 174.58 43.33 M166.96 58.52 C169.77 55.01, 170.05 53.48, 173.93 48.7 M167.36 57.59 C169.17 55.51, 171.23 53.17, 173.9 49.9" stroke="#fab005" stroke-width="0.5" fill="none"></path><path d="M0.16 0.01 C51.15 -1.93, 100.44 -0.82, 172.63 -1.58 M174.09 -0.67 C174.36 10.52, 174.69 22.98, 173.9 54.14 M172.18 56.99 C126.4 55.09, 80.81 54.58, -1.26 56.56 M-0.6 57.05 C-1.23 42.35, 2.12 24.51, 1.31 -0.25" stroke="#c92a2a" stroke-width="1.5" fill="none" stroke-dasharray="1.5 7"></path></g><g transform="translate(111.47850959931088 195.52761001917656) rotate(0 81.5 12)"><text x="81.5" y="17" font-family="Virgil, Segoe UI Emoji" font-size="20px" fill="#c92a2a" text-anchor="middle" style="white-space: pre;" direction="ltr">isValidating</text></g><g stroke-linecap="round" transform="translate(106.47850959931088 107.52761001917656) rotate(0 86.5 21)"><path d="M0 0 C0 0, 0 0, 0 0 M0 0 C0 0, 0 0, 0 0 M0.04 6.39 C0.12 5.11, 2.73 3.81, 4.23 0.76 M0.01 6.12 C0.71 4.87, 2.59 3.38, 4.61 0.27 M0.17 10.87 C3.88 7.94, 5.68 4.72, 9.9 -0.21 M0.05 12.65 C3.87 7.25, 6.97 2.82, 9.83 -0.7 M0.56 19.69 C4.49 14.5, 7.65 6.87, 14.85 -0.4 M0.72 18.31 C6.37 11.93, 12.02 4.46, 14.74 -0.13 M0.19 25.4 C8.65 15.7, 13.61 6.82, 21.14 -0.2 M-0.73 23.3 C7.96 16.69, 13.27 7.6, 20.42 0.28 M0.99 32.43 C7.55 21.85, 15.24 10.76, 25.88 1.97 M-0.71 31.19 C9.81 18.73, 20.32 8.5, 26.41 0.28 M-0.33 35.48 C7.39 29.49, 16.31 16.65, 31.14 0.67 M-0.12 37.84 C7.24 28.73, 14.54 19.59, 31.4 0.14 M-1.47 41.68 C8.61 29.78, 20.59 17.83, 37.23 -0.45 M0.74 42.24 C15.9 26.3, 30.45 8.67, 35.94 -0.1 M4.23 40.23 C18.82 30.25, 28.22 14.87, 40.87 1.55 M6.24 41.35 C14.97 30.98, 22.33 21.17, 42.73 -0.2 M10.2 43.19 C18.55 30.04, 31.31 19.82, 48.69 1.13 M10.04 43.16 C20.97 28.81, 33.72 17.13, 47.54 -0.34 M17.1 43.33 C25.34 30.06, 37.07 17.96, 51.29 -1.63 M16.92 41.69 C23.89 33.05, 33.45 21.77, 53.45 -0.74 M19.83 41.57 C31.97 27.15, 47.4 15.7, 56.83 -0.75 M22.03 42.71 C34.2 27.93, 46.89 11.62, 57.79 -0.16 M27.62 43.21 C35.72 30.4, 45.56 21.78, 65.1 1.75 M26.23 41.13 C40.25 27.9, 50.81 14.46, 64.43 0.4 M31.52 44.08 C38.35 33.65, 45.89 24.85, 69.03 0.13 M31.92 41.44 C42.64 30.57, 54.32 18.8, 68.64 -0.84 M36.53 42.73 C44.31 31.6, 55.26 23.98, 72.81 -0.96 M38.41 41.07 C45.57 32.76, 54.99 22.83, 73.42 -0.03 M41.13 42.68 C55.94 28.78, 66.68 15.17, 77.42 1.74 M41.76 42.81 C50.81 32.55, 58.65 23.28, 80.38 -0.3 M49.35 40.49 C62.33 27.66, 74.78 13.27, 86.71 0.3 M48.09 42.26 C55.41 33.72, 64.62 23.82, 86.03 0.63 M54.33 44.07 C65.67 28.22, 79.23 12.33, 88.93 -0.24 M53.46 42.17 C67.66 26.98, 80.76 10.69, 90.68 -0.07 M58.39 40.78 C68.46 32.32, 79.94 20.59, 94.85 0.33 M59.22 41.88 C70.43 26.53, 84.34 12.55, 94.72 -0.06 M64.57 43.67 C76.89 30.45, 88.79 15.61, 99.27 1.58 M63.81 41.75 C77.56 26.34, 90.94 11.35, 101.54 -0.28 M68.71 43.62 C80.32 32.81, 86.4 18.84, 107.1 0.62 M70.14 42.49 C80.62 28.07, 93.34 16.02, 105.81 -0.67 M75.05 43.6 C83.84 31.87, 93.81 17.66, 110.92 0.32 M75.44 41.67 C85.13 31.47, 94.25 18.79, 110.36 -0.66 M79.54 43.51 C87.99 34.22, 97.4 20.79, 116.4 0.17 M79.89 41.79 C92.92 28.53, 104.11 13.28, 115.83 -0.11 M84.78 42.71 C98.69 25.62, 114.66 7.17, 123.15 0.8 M85.84 42.96 C92.66 34.3, 101.49 25.58, 122.86 0.43 M88.81 44.4 C100.41 31.22, 113.19 18.22, 127.5 -1.61 M89.83 42.6 C100.76 28.76, 112.83 16.8, 127.14 0.33 M94.55 42.57 C105.91 28.82, 118.29 17.6, 134 1.59 M96.36 42.52 C107.8 28.98, 118.6 14.24, 132.14 -0.97 M99.31 42.21 C110.72 30.6, 121.35 17.01, 138.92 1.72 M100.7 42.4 C109.05 33.79, 116.75 24.8, 136.97 0.5 M104.92 41.47 C120.48 27.06, 132.22 12.82, 142.32 0.95 M107.23 42.15 C120.01 26.37, 134.73 10.87, 143.66 0.58 M111.23 43.85 C126.41 29.03, 137.34 9.9, 147.63 -1.48 M112.29 43.32 C121.34 30.5, 133.12 18.8, 149.09 -0.58 M118.24 40.41 C129.7 28.83, 142.52 16.41, 153.7 -1.13 M116.52 41.53 C125.79 32.6, 133.85 22.6, 154.24 -1.11 M123.57 41.93 C129.8 32.03, 139.22 24.93, 158.38 1.89 M121.71 41.87 C134.32 28.8, 145.8 14.31, 158.12 0.98 M128.63 41.12 C142.12 26.55, 155.9 10.69, 162.56 -0.94 M127.15 41.26 C138.19 29.75, 150.63 15.06, 165.04 -0.82 M132.09 40.79 C144.46 29.8, 150.48 18.85, 169.72 -0.33 M132.45 41.93 C144.65 27.65, 157.99 13.29, 168.53 0.95 M140 44.04 C146.52 34.67, 152.6 24.75, 172.73 0.47 M137.91 41.79 C151.76 27.53, 165.09 11.68, 173.3 0.56 M143.34 42.47 C153.13 29.7, 160.51 22.54, 174.04 7.16 M143.36 41.82 C153.97 30.23, 164.1 18.26, 173.77 6.81 M148.05 42.32 C154.17 35.11, 160.56 27.18, 174.32 13.28 M148.47 42.49 C156.97 32, 164.79 23.85, 174.02 13.08 M152.65 40.74 C157.71 37.42, 163.61 34.44, 172.76 18.13 M153.65 43.19 C160.18 36.92, 164.36 30.65, 174.34 19.6 M158.24 43.86 C163.82 39.01, 167.31 33.34, 173.24 25.8 M160.33 42.6 C164.23 35.22, 170.52 29.49, 174.65 25.56 M165.66 42.88 C167.37 39.9, 170.27 36.01, 173.72 31.95 M164.08 42.2 C166.86 39.39, 169.81 37.15, 174.09 32.12 M170.7 41.75 C171.9 40.3, 172.78 39.13, 174.41 37.19 M170.11 42.06 C171.36 40.53, 172.3 38.97, 174.05 37.24" stroke="#15aabf" stroke-width="0.5" fill="none"></path><path d="M1.04 -1.78 C36.31 0.08, 71.28 -0.57, 172.51 0.92 M172.72 1.69 C173.95 11.93, 171.41 26.42, 174.76 40.06 M173.19 43.73 C105.09 44.47, 36.69 44.91, 0.06 41.47 M1.98 42 C1.22 26.06, -0.23 9.96, -1.01 -0.84" stroke="#1864ab" stroke-width="1.5" fill="none" stroke-dasharray="1.5 7"></path></g><g transform="translate(111.47850959931088 116.52761001917656) rotate(0 81.5 12)"><text x="81.5" y="17" font-family="Virgil, Segoe UI Emoji" font-size="20px" fill="#1864ab" text-anchor="middle" style="white-space: pre;" direction="ltr">isLoading</text></g><g stroke-linecap="round"><g transform="translate(111.97850959931088 370.52761001917656) rotate(0 81.4101866643876 1.3204766530543566)"><path d="M-0.45 0.46 C26.76 0.99, 135.97 1.9, 163.27 2.18" stroke="#862e9c" stroke-width="1.5" fill="none" stroke-dasharray="1.5 7"></path></g><g transform="translate(111.97850959931088 370.52761001917656) rotate(0 81.4101866643876 1.3204766530543566)"><path d="M135.76 10.96 C143.91 8.24, 152.41 8.18, 162.98 3.25" stroke="#862e9c" stroke-width="1.5" fill="none" stroke-dasharray="1.5 5"></path></g><g transform="translate(111.97850959931088 370.52761001917656) rotate(0 81.4101866643876 1.3204766530543566)"><path d="M135.95 -9.56 C143.87 -6.09, 152.32 0.05, 162.98 3.25" stroke="#862e9c" stroke-width="1.5" fill="none" stroke-dasharray="1.5 5"></path></g></g><g transform="translate(148.97850959931088 378.52761001917656) rotate(0 38.5 13)"><text x="0" y="18" font-family="Virgil, Segoe UI Emoji" font-size="20px" fill="#862e9c" text-anchor="start" style="white-space: pre;" direction="ltr">fetching</text></g><g stroke-linecap="round" transform="translate(334.4785095993109 262.52761001917656) rotate(0 119.5 36.5)"><path d="M0.6 -1.56 C48.53 -0.24, 100.49 1.79, 239.85 -0.67 M-0.75 0.25 C56.19 -0.91, 113.33 -1.46, 238.35 -0.37 M239.88 -1.3 C237.49 17.64, 238.55 31.89, 240.27 73.52 M238.24 -0.35 C238.96 19.1, 240.21 39.54, 239.29 73.58 M240.28 74.1 C173.12 73.59, 102.72 71.81, -1.36 71.46 M239.02 73.54 C149.38 70.61, 58.3 71.27, -0.21 73.69 M-0.39 73.26 C0.05 55.96, -1.29 39.83, -0.22 -1.95 M0.63 72.87 C-1.22 51.71, -0.62 31.02, -0.57 0.36" stroke="#000000" stroke-width="1" fill="none"></path></g><g transform="translate(428.9785095993109 283.02761001917656) rotate(0 26 13)"><text x="0" y="18" font-family="Virgil, Segoe UI Emoji" font-size="20px" fill="#000000" text-anchor="start" style="white-space: pre;" direction="ltr">value</text></g><g stroke-linecap="round"><g transform="translate(413.9785095993109 370.52761001917656) rotate(0 74.42643225602808 0.6114307302981956)"><path d="M-0.7 -0.18 C24.07 -0.07, 124.51 1.09, 149.56 1.41" stroke="#862e9c" stroke-width="1.5" fill="none" stroke-dasharray="1.5 7"></path></g><g transform="translate(413.9785095993109 370.52761001917656) rotate(0 74.42643225602808 0.6114307302981956)"><path d="M120.94 12.26 C130.79 8.77, 141.92 5.65, 148.43 -0.47" stroke="#862e9c" stroke-width="1.5" fill="none" stroke-dasharray="1.5 5"></path></g><g transform="translate(413.9785095993109 370.52761001917656) rotate(0 74.42643225602808 0.6114307302981956)"><path d="M121.18 -8.26 C131.06 -4.08, 142.1 0.47, 148.43 -0.47" stroke="#862e9c" stroke-width="1.5" fill="none" stroke-dasharray="1.5 5"></path></g></g><g transform="translate(447.4785095993109 378.52761001917656) rotate(0 38.5 13)"><text x="0" y="18" font-family="Virgil, Segoe UI Emoji" font-size="20px" fill="#862e9c" text-anchor="start" style="white-space: pre;" direction="ltr">fetching</text></g><g stroke-linecap="round" transform="translate(401.4785095993109 180.52761001917656) rotate(0 86.5 27.5)"><path d="M0 0 C0 0, 0 0, 0 0 M0 0 C0 0, 0 0, 0 0 M0.53 5.64 C0.39 5.17, 3.03 2.52, 5.68 -0.39 M-0.39 6.52 C1.81 4.58, 2.82 2.53, 5.27 0.11 M-1.24 10.64 C3.61 7.17, 7.14 2.6, 11.52 1.27 M-0.19 11.41 C2.57 8.88, 6.78 5.31, 10.31 0.14 M-1.53 17.21 C2.52 13.78, 5.44 11.17, 14.29 0.31 M-1.01 19.1 C3.57 14.39, 7.53 9.96, 16.36 1.09 M1.01 24.63 C6.11 16.93, 12.7 11.83, 21.69 -1.96 M-0.73 23.4 C7.86 15.35, 16.5 6.91, 21.04 -0.12 M0.09 28.92 C10.3 21.37, 19 9.39, 27.82 -1.44 M0.12 29.79 C9.65 19.18, 18.78 8.29, 25.35 0.26 M1.35 36.99 C9.11 22.44, 20.6 13, 32.52 0.7 M-0.45 37.13 C11.31 24.43, 21.45 11.69, 31.15 -0.69 M-1.67 41.37 C13.31 25.61, 28.77 11.53, 36.57 -0.74 M-0.53 42.92 C11.64 28.95, 24.4 15.36, 36.22 -0.43 M-1.37 49.27 C13.12 33.46, 26.16 21.32, 41.09 -0.26 M0.14 49.61 C11.3 34.4, 23.1 21.44, 42.95 0.14 M-1.31 54.11 C11.22 41.37, 24.31 26.59, 46.51 -0.79 M0.13 54.46 C16.31 36.03, 34.36 15.97, 47.44 0.77 M1.41 57.38 C16.17 43.37, 29.89 26.47, 51.98 1.1 M2.15 58.6 C20.4 38.38, 36.76 18, 52.22 -1.08 M10.26 57.39 C21.54 43.29, 34.99 27.39, 58.34 0 M8.42 58.19 C27.2 34.7, 47.39 11.99, 57.35 -0.08 M12.26 58.22 C31.18 37.33, 48.35 16.7, 63.5 0.49 M13.86 58.47 C24.26 45.24, 35.32 31.79, 63.12 0.02 M18.69 58.35 C38.78 33.07, 56.93 12.53, 69.46 1.97 M17.96 56.85 C36.02 37.58, 53.3 17.12, 69.18 0.48 M25.35 58.6 C35.17 42.93, 48.11 31.11, 73.67 1.43 M23.32 58.01 C35.19 45.2, 46.5 31.28, 75.2 0.68 M28.03 56.87 C41.57 46.76, 51.69 33.84, 80.01 -1.72 M30.35 57.01 C41.54 44.28, 53.11 30.59, 80.06 0.23 M33.44 57.03 C43.56 46.42, 55.94 29.84, 86.22 1.19 M34.35 57.35 C44.47 46.84, 54.89 35.23, 84.43 0.02 M38.63 55.63 C52.03 44.55, 61.92 30.37, 90.84 0.86 M40.23 58.1 C50.74 45.19, 60.96 35.04, 90 0.34 M45.98 58.81 C65.41 38.26, 81.2 13.59, 96.62 0.84 M45.64 57.96 C56.53 43.43, 69.63 27.89, 96.12 -0.01 M50.58 57.05 C61.9 44, 73.47 30.27, 101.51 -1.61 M51.63 58.38 C69.17 36.71, 86.3 14.39, 100.92 0.33 M55.19 58.02 C71.4 38.99, 88.55 18.92, 106.04 -0.77 M55.8 57.66 C76.38 34.92, 96.73 12.42, 106.02 0.41 M61.68 57.37 C74.31 42.9, 81.98 30.11, 112.31 -1.62 M60.97 58 C79.24 39.39, 95.37 20.73, 111.62 -0.93 M65.97 59.53 C85.52 36.2, 105 11.61, 114.72 -0.27 M66.31 57.65 C81.4 41.07, 95.46 23.63, 116.57 0.73 M73.45 56.57 C86.48 41.52, 102.63 22.85, 122.25 1.09 M72.04 57.94 C86.98 40.35, 100.69 23.61, 122.77 -0.2 M77.94 56.98 C95.34 38.64, 111.62 19.45, 126.6 1.25 M76.55 57.47 C95.62 37.16, 110.99 16.99, 126.61 -0.02 M81.13 56.46 C99.6 40.32, 113.07 20.68, 131.04 1.57 M83.05 57.07 C97.8 38.94, 114.04 21.83, 131.97 -0.88 M87.47 58.78 C100.36 40.94, 113.7 26.16, 139.34 0.74 M86.77 58.03 C107.08 35.27, 126.97 12.61, 138.38 0.31 M91.68 58.58 C105.56 44.23, 115.07 30.21, 145.15 -0.36 M93.58 57.1 C107.14 42.96, 119.98 27.43, 142.67 -0.02 M97.62 58.16 C112.73 37.83, 129.38 18.32, 149 0.16 M99.15 58.61 C116.59 36.3, 136.4 13.84, 149.16 0.98 M105.77 58.29 C113.33 46.43, 125.91 34.42, 155.71 -2.07 M103.61 57.59 C120.05 39.5, 134.5 21.84, 153.25 0.7 M108.16 59.08 C128.45 35.57, 147.59 13.74, 159.35 1.26 M108.72 57.83 C126.08 39.52, 140.65 20.83, 159.64 0.12 M115.81 58.72 C126.84 41.05, 141.31 26.62, 164.62 -0.17 M114.51 56.98 C133.02 36.1, 151.82 13.72, 163.95 -0.05 M117.62 58.33 C140.49 33.81, 158.22 14.62, 167.87 -0.41 M120.44 56.68 C137.69 36.36, 157.62 14.57, 168.89 -0.3 M123.24 57.53 C137.77 43.35, 151.03 28.55, 173.17 1.01 M125.38 58.33 C138.24 42.49, 151.5 25.18, 174.6 1.28 M129.21 59.45 C144.68 39.19, 162.79 21.41, 173.89 5.24 M130.11 57.5 C143.26 41.59, 156.41 26.9, 173.46 7.35 M135.23 57.89 C146.23 42.69, 157.87 29.67, 174.79 13.5 M134.69 57.26 C143.46 48.21, 153.57 36.6, 174.36 14.13 M140.88 58.77 C150.28 49.21, 158.73 38.7, 173.62 17.8 M141.48 57 C149.01 48.72, 156.33 39.48, 173.53 18.26 M146.65 59.04 C153.71 48.93, 162.99 39.64, 172.7 24.45 M145.31 57.55 C155.38 47.86, 163.01 37.93, 174.34 25.69 M151.29 59.41 C154.67 52.72, 161.39 43.33, 173.66 33.63 M151.14 57.24 C157.24 50.46, 164.18 44.12, 173.27 31.47 M156.79 59.23 C160.55 52.19, 166.13 48.17, 175.68 36.4 M156.18 57.06 C160.15 53.97, 164.83 48.78, 174.36 38.09 M161.84 57.27 C165.47 52.38, 168.84 51.09, 175.51 42.06 M161.65 56.73 C166.14 53.49, 171.27 47.59, 174.55 42.97 M166.83 58.17 C168.89 55.17, 171.19 53.89, 173.68 50.12 M166.83 57.64 C168.99 54.73, 172.27 51.81, 174.74 49.09" stroke="#fab005" stroke-width="0.5" fill="none"></path><path d="M0.65 1.81 C48.86 1.06, 95.56 -1.68, 173.22 1.61 M173.9 -0.85 C174.33 13.71, 173.53 30.36, 174.21 54.28 M171.14 53.45 C114.95 53.42, 56.34 56.4, 0.22 54.47 M0.97 53.05 C1.76 40.98, 1.06 31.45, -1.34 -0.48" stroke="#c92a2a" stroke-width="1.5" fill="none" stroke-dasharray="1.5 7"></path></g><g transform="translate(406.4785095993109 196.02761001917656) rotate(0 81.5 12)"><text x="81.5" y="17" font-family="Virgil, Segoe UI Emoji" font-size="20px" fill="#c92a2a" text-anchor="middle" style="white-space: pre;" direction="ltr">isValidating</text></g><g stroke-linecap="round" transform="translate(615.4785095993109 263.52761001917656) rotate(0 86.5 35.5)"><path d="M0.81 1.36 C54.9 -2.07, 108.14 0.84, 174.19 0.26 M-0.47 -0.29 C52.47 2.56, 103.43 1.8, 173.32 0.64 M174.99 0.31 C174.98 19.02, 174.35 35.64, 174.09 69.72 M173.5 0.13 C171.85 26.16, 172.59 53.47, 172.73 70.91 M171.34 70.25 C130.19 72.8, 85.09 71.25, 0.72 70.86 M173.96 71.51 C129.63 71.28, 86.77 71.6, -0.88 70.42 M0.96 71.65 C1.26 46.39, -1.58 25.49, 0.78 -0.21 M-0.55 71.61 C-0.17 51.28, 0.07 29.72, -0.31 -0.11" stroke="#000000" stroke-width="1" fill="none"></path></g><g transform="translate(657.9785095993109 283.02761001917656) rotate(0 47.5 13)"><text x="0" y="18" font-family="Virgil, Segoe UI Emoji" font-size="20px" fill="#000000" text-anchor="start" style="white-space: pre;" direction="ltr">new value</text></g><g transform="translate(23.919783493451973 28.743813179758945) rotate(0 107 13)"><text x="0" y="18" font-family="Virgil, Segoe UI Emoji" font-size="20px" fill="#000000" text-anchor="start" style="white-space: pre;" direction="ltr">Fetch and Revalidate</text></g><g stroke-linecap="round"><g transform="translate(390.4785095993109 93.02761001917656) rotate(0 2.056186403706647 79.17389332465831)"><path d="M0.23 -0.39 C1.01 26.12, 3.24 132.45, 3.89 158.74" stroke="#d9480f" stroke-width="1.5" fill="none" stroke-dasharray="1.5 7"></path></g></g><g transform="translate(342.9785095993109 66.52761001917656) rotate(0 53 13)"><text x="0" y="18" font-family="Virgil, Segoe UI Emoji" font-size="20px" fill="#d9480f" text-anchor="start" style="white-space: pre;" direction="ltr">Revalidate</text></g><g transform="translate(27.978509599310883 286.02761001917656) rotate(0 27.5 13)"><text x="0" y="18" font-family="Virgil, Segoe UI Emoji" font-size="20px" fill="#000000" text-anchor="start" style="white-space: pre;" direction="ltr">data:</text></g></svg>