<svg version="1.1" xmlns="http://www.w3.org/2000/svg" viewBox="0 0 1230.9077358360364 438.33413843075004" width="2461.815471672073" height="876.6682768615001">
  <!-- svg-source:excalidraw -->
  
  <defs>
    <style>
      @font-face {
        font-family: "Virgil";
        src: url("https://excalidraw.com/Virgil.woff2");
      }
      @font-face {
        font-family: "Cascadia";
        src: url("https://excalidraw.com/Cascadia.woff2");
      }
    </style>
  </defs>
  <rect x="0" y="0" width="1230.9077358360364" height="438.33413843075004" fill="#ffffff"></rect><g stroke-linecap="round" transform="translate(113.54393872961202 262.0578144833253) rotate(0 86.5 37)"><path d="M1.63 1.49 C63.07 0, 129.84 2.73, 174.31 -1 M-0.95 -0.65 C37 -1.84, 72.63 -0.72, 172 -0.69 M174.43 -0.71 C174.96 22.07, 174.1 47.77, 172.46 72.3 M173.74 -0.02 C174.1 15.67, 172.72 32.22, 172.11 73.63 M174.27 75.34 C135.31 72.53, 102.71 73.67, -0.25 73.83 M173.03 73.31 C133.9 73.41, 96.15 71.64, -0.08 75 M-0.81 72.23 C1.56 54.45, 1.41 38.29, 0.17 -0.5 M-0.46 74.21 C-0.6 45.38, -1.45 17.5, -0.61 -0.94" stroke="#000000" stroke-width="1" fill="none"></path></g><g transform="translate(153.54393872961202 283.5578144833253) rotate(0 49 13)"><text x="0" y="18" font-family="Virgil, Segoe UI Emoji" font-size="20px" fill="#000000" text-anchor="start" style="white-space: pre;" direction="ltr">fallback(1)</text></g><g stroke-linecap="round" transform="translate(112.04393872961202 180.05781448332527) rotate(0 86.5 28)"><path d="M0 0 C0 0, 0 0, 0 0 M0 0 C0 0, 0 0, 0 0 M0.33 5.94 C1.47 5.54, 2.17 3.55, 5.63 1.12 M-0.22 6.2 C1.28 4.21, 3.15 1.84, 4.78 0.34 M-0.02 11.96 C3.45 7.73, 8.82 1.32, 10.41 -1.1 M0.41 12.47 C5.06 6.8, 7.91 3.25, 10.82 -0.3 M-1.96 16.64 C5.08 11.62, 11.89 7.25, 15.74 -1.47 M0.82 18.26 C3.69 13.32, 9.81 6.73, 15.8 1.28 M0.53 22.92 C7.3 18.55, 14.9 7.72, 19.58 0.99 M0.51 25.04 C5.52 18.76, 10.69 13, 21.3 0.02 M1.57 29.69 C7.89 21.77, 15.07 12.29, 27.14 2.07 M-0.9 30.17 C5.63 22.58, 11.35 15.75, 27.14 -0.49 M-0.2 36.06 C6.23 27.83, 13.3 21.81, 30.17 0.97 M-1.22 36.25 C12.49 23.11, 24.23 9.56, 31.25 0.62 M1.25 43.82 C13.76 28.12, 29.81 11.13, 36.48 0.28 M-0.53 41.86 C12.6 28.19, 26.73 11.93, 36.49 0.87 M0.14 49.87 C15.04 34.17, 25.47 19.09, 43.99 0.1 M-1.06 49.25 C12.64 33.85, 25.06 18.56, 43.04 0.86 M0.31 53.16 C16.42 33.79, 35.48 14.71, 46.27 -1.71 M0.54 55.46 C16.68 34.8, 34.41 14.4, 47.22 -0.38 M3.38 59.84 C19.65 38.9, 40.33 15.66, 54.65 0.6 M2.64 58.73 C16.62 43.19, 30 26.89, 53.85 -0.93 M8.96 60.25 C22.86 43.1, 35.28 28.67, 59.75 0.92 M7.05 57.68 C24.25 38.72, 40.91 19.17, 59.08 -0.6 M11.42 57.37 C25.98 42.38, 34.57 31.37, 65.57 -0.59 M13.18 56.98 C29.61 40.37, 44.82 22.38, 64.73 -0.52 M20.05 59.2 C34.53 40.31, 47.91 22.85, 66.99 -1.27 M18.4 57.96 C31.35 43.05, 44.21 29.01, 69.15 0.26 M23.8 58.71 C41.23 36.76, 60.62 14.15, 75.93 -1.81 M24.1 57.79 C35.53 42.98, 46.24 30.57, 73.57 -0.81 M30.86 60.06 C36.82 46.03, 51.1 35.92, 78.82 1.99 M29.53 57.87 C42.36 42.91, 54.53 27.43, 78.9 -0.37 M32.73 58.74 C48.84 38.13, 65.42 20.8, 86.71 1.33 M35.16 57.27 C49.55 39.84, 64.47 23.02, 84.14 -0.79 M39.75 59.83 C57.87 36.86, 79.26 11.99, 88.84 -1.32 M40.51 59.11 C52.82 44.34, 62.83 31.77, 89.15 -0.68 M45.2 58.1 C55.13 47.11, 67.43 35.64, 94.67 -2.09 M45.5 57.95 C59.13 40.95, 73.19 24.75, 95.05 -0.57 M48.84 56.25 C68.08 34.43, 88.38 11.43, 99.45 0.52 M50.28 58.24 C60.62 47.06, 70.48 35.61, 101.05 0.55 M56.98 57.1 C67.73 44.33, 77.76 30.98, 106.32 -0.23 M56.59 57.71 C66.53 46.38, 77.46 32.47, 106.79 -0.38 M62.04 57.75 C80.94 37.66, 96.67 15.95, 111.83 0.93 M61.62 57.75 C75.23 41.83, 91.4 23.88, 111.16 0.93 M65.96 58.55 C86.96 38.2, 104.38 16.37, 115.34 0.19 M66.64 57.6 C78.26 43.3, 92.16 29.42, 116.03 1.23 M71.04 57.5 C91.42 36.02, 111.6 10.5, 119.92 1.07 M72.19 58.98 C83.31 44.99, 94.49 32.46, 122.36 -0.56 M76.78 58.72 C92.2 38.1, 113.46 17.56, 127.13 0.91 M76.16 57.79 C95.61 36.96, 115.28 13.75, 127.3 1.29 M81.3 59.37 C95.59 45.42, 106.31 28.66, 132.47 -0.22 M81.49 57.2 C92.17 44.65, 102.46 34.09, 132.91 -0.53 M86.89 57.85 C96.5 46.83, 107.36 32.31, 136.92 -1.33 M87.05 59.11 C105.57 37.43, 123.83 15.1, 137.98 0.03 M94.09 59.97 C111.55 34.75, 128.19 15.21, 143 -0.33 M91.91 58.54 C105.25 43.88, 118.02 30.23, 143.41 -0.2 M99.2 59.16 C111.28 41.83, 128.22 21.4, 146.35 0.16 M98.24 59.03 C116.59 36.48, 134.96 14.8, 148 0.78 M104.43 58.61 C118.35 41.27, 131.87 24.33, 155.79 1.02 M103.66 57.03 C113.46 45.36, 124.24 33.89, 153.84 -0.42 M107.37 59.55 C126.81 37.78, 145.01 15.53, 156.88 0.79 M108.03 57.38 C124.43 39.5, 142.49 20.46, 158.13 -0.21 M115.14 59.34 C126.78 45.23, 135.88 31.41, 163.95 -0.13 M113.84 57.61 C134.2 35.9, 152.82 13.1, 164.53 -0.61 M117.87 59.7 C131.77 45.39, 144.49 29.44, 167.71 -1.31 M119.04 57.43 C138.75 35.91, 156.65 13.33, 169.01 1.17 M122.82 56.89 C139.58 42.14, 153.04 26.08, 174 -0.55 M125.38 57.08 C141.52 39.31, 158.29 20.2, 173.86 1.66 M127.92 57.94 C141.65 43.07, 158.93 26.65, 175.96 7.51 M129.28 58.79 C140.19 46.88, 150.56 36.24, 174.22 6.75 M135.84 58.76 C146.38 45.83, 154.93 30.68, 174.73 14.29 M136.11 57.14 C143.27 47.75, 152.39 38.11, 174 13.8 M139.55 56.38 C151.86 44.71, 162.05 33.73, 175.72 19.29 M141.12 58.5 C146.5 49.36, 153.26 41.84, 174.44 19.9 M144.37 59.13 C154.45 48.79, 159.14 43.26, 174.74 25 M145.69 57.4 C153.41 49.7, 161.68 40.43, 173.56 25.97 M149.55 58.82 C157.1 50.22, 162.28 44.67, 175.48 31.81 M150.27 57.97 C159.23 48.32, 169.57 37.58, 173.82 31.91 M158.33 56.91 C161.88 50.92, 171.15 40.51, 174.25 38.47 M156.64 58.33 C161.42 51.98, 167.72 44.77, 174.29 38.28 M159.6 56.84 C166.92 52.38, 171.04 46.79, 174.85 44.51 M160.85 58.02 C165.11 53.48, 168.61 50.21, 173.74 43 M166.19 57.76 C168.92 56.15, 172.5 53.74, 175.35 50.49 M167.23 58.08 C169.61 55.09, 171.39 52.88, 173.76 49.36" stroke="#fab005" stroke-width="0.5" fill="none"></path><path d="M-1.5 -1.24 C40.14 0.19, 80.21 -2.3, 171.19 0.4 M174.44 -1.21 C172.61 21.79, 170.48 40.18, 173.37 56.27 M174.86 54.48 C124.37 55.98, 73.18 53.69, -1.6 57.22 M1.3 54.78 C-1.88 35.68, -2.2 15.96, -1.83 -0.58" stroke="#c92a2a" stroke-width="1.5" fill="none" stroke-dasharray="1.5 7"></path></g><g transform="translate(117.04393872961202 196.05781448332527) rotate(0 81.5 12)"><text x="81.5" y="17" font-family="Virgil, Segoe UI Emoji" font-size="20px" fill="#c92a2a" text-anchor="middle" style="white-space: pre;" direction="ltr">isValidating</text></g><g stroke-linecap="round" transform="translate(112.04393872961202 108.05781448332527) rotate(0 86.5 21)"><path d="M0 0 C0 0, 0 0, 0 0 M0 0 C0 0, 0 0, 0 0 M0.27 6.84 C0.87 4.95, 2.55 4.64, 5.35 -0.01 M-0.56 6.3 C1.17 4.11, 2.89 2.53, 5.31 0.38 M-0.54 12.31 C3.83 7.07, 5.9 4.11, 12.17 -0.21 M0.89 11.5 C1.93 9.93, 5.06 6.22, 10.99 -0.6 M-0.48 17.94 C6.44 13.78, 10.92 4.4, 15.66 -0.11 M-1.1 18.84 C5.26 11.79, 10.23 7.52, 15.72 0.19 M0.74 25.88 C6.3 17.48, 7.58 14.87, 19.95 -1.89 M0.37 24.54 C8.01 15.67, 15.14 6.84, 21.56 0.88 M-0.5 31.8 C6.28 22.63, 17.64 12.83, 25.03 2.22 M-0.36 29.89 C8.14 20.26, 18.73 9.58, 25.49 1.06 M-0.71 36.08 C8.21 28.06, 16.14 17.23, 33.42 1.75 M0.73 36.82 C8.2 28.79, 14.42 20.59, 32.8 -0.06 M-0.6 44.32 C8.59 34.72, 15 24.48, 38.13 2.16 M-0.32 43.49 C11.47 30.48, 21.46 18.73, 37.03 0.59 M7.67 43.03 C17.28 28.65, 32.55 13.02, 42.73 1.01 M5.6 42.16 C15.15 30.5, 26.64 20.06, 43.29 -0.64 M8.85 42.39 C22.75 29.5, 34.8 11.73, 48.87 2.16 M10.3 43.17 C24.89 25.93, 39.11 8.49, 48.13 0.26 M15.18 44.07 C28.44 28.82, 39.8 17.15, 52.42 -0.06 M17.12 43 C30.74 26.12, 44.24 9.84, 52.86 0.41 M23.28 42.75 C30.87 33.2, 41.02 21.78, 58.95 1.37 M21.17 42.98 C34.24 28.06, 49.31 11.14, 57.43 0.42 M28.29 40.27 C39.59 26.71, 57.02 9.79, 63.83 -1.7 M27.67 41.67 C35.49 32.56, 43.74 24.01, 63.73 -0.21 M33.39 41.81 C43.87 27.07, 54.69 12.28, 67.82 1.67 M32.81 42.28 C46.78 27, 60.22 10.58, 69.46 -0.66 M35.87 42.12 C45.7 30.37, 57.39 19.39, 73.07 1.6 M38.07 41.09 C50.96 26.11, 64.81 9.2, 73.47 0.57 M40.68 41.67 C51.79 34.38, 56.96 26.32, 78.74 1.67 M43.09 42.83 C54.2 28.38, 67.33 12.76, 79.58 0.14 M46.52 40.85 C58.79 28.75, 73.17 17.17, 85.03 -0.96 M47.99 41.1 C56.29 31.79, 64.71 21.46, 85.99 -0.8 M51.4 44.17 C65.44 27.39, 77.34 11.55, 88.76 -1.32 M54.25 41.79 C59.69 33.65, 67.58 23.3, 89.03 -0.14 M58.67 42.42 C68.47 33.75, 73.14 22.61, 95.39 1.54 M58.99 41.43 C67.29 31.63, 75.85 21.3, 96.58 0.54 M62.61 40.87 C71.36 31.81, 78.83 24.91, 98.67 -1.26 M63.89 42.69 C73.27 31.68, 83.69 20.42, 99.88 0.42 M70.49 41.47 C80.53 27.94, 92.3 15.73, 104.6 -0.25 M69.46 42.68 C77.63 31.58, 86.6 22.48, 106.88 -1.17 M76.14 43.02 C87.4 26.21, 102.61 11.3, 111.08 -1.39 M73.96 42.46 C83.55 31.81, 90.87 23.99, 112.09 -0.35 M81.32 44.14 C88.23 34.33, 96.05 22.32, 115.25 -1.2 M79.01 42.11 C92.47 28.64, 103.9 15.08, 117.25 -0.54 M84.6 43.64 C98.5 25.53, 110.7 11.87, 120.37 -0.25 M85.78 42.42 C98.98 26.86, 112.47 10.11, 122.47 0.23 M88.2 43.03 C103.6 29.09, 114.6 15.19, 128.66 1.25 M90.07 43.59 C101.03 30.77, 112.18 19.04, 126.35 0.95 M97.38 43.41 C104.34 30.91, 112.73 22.43, 130.69 -1.64 M95.03 41.3 C109.49 26.51, 125.2 8.91, 131.67 0.78 M100.02 43.7 C113.88 25.86, 127.63 9.49, 138.97 1.66 M100.97 43.17 C111.45 29.52, 123.25 16.7, 138.25 0.47 M106.66 40.77 C117.44 27.28, 132.33 11.23, 141.98 -0.64 M106.73 42.18 C120.11 28, 131.84 13.28, 143.24 0.77 M110.1 43.69 C121.71 28.86, 130.23 18.18, 149.77 1.55 M111.53 43.03 C123.7 27.97, 137.5 12.34, 148.03 -0.18 M117.4 41.87 C125.85 30.37, 138.07 21.02, 151.97 -1.63 M116.28 41.57 C127.07 30.25, 138.31 17.63, 154.55 -0.43 M121.52 43.26 C129.15 33.18, 136.58 24.14, 159.42 0.17 M121.46 43.22 C136.3 28.36, 148.29 11.59, 158.13 1.2 M129.33 42.56 C134.61 32.58, 143.42 22.93, 166.16 -0.26 M128.44 42.34 C137.54 30.66, 147.71 18.91, 163.84 -0.53 M133.17 43.39 C143.97 29.66, 151.2 17.69, 171.06 0.47 M133.32 42.69 C146.23 26.13, 160.88 10.79, 169.35 0.19 M138.96 42.44 C146.03 34.31, 154.26 22.75, 174.52 0.05 M138.31 42.78 C150.09 29.32, 162.06 15.15, 173.92 2.11 M141.71 43.76 C156.42 30.68, 167.94 17.12, 172.71 5.92 M143.53 42.3 C150.13 35.95, 156.08 27.56, 173.95 7.58 M149.6 42.81 C157.11 28.64, 169.46 20.14, 172.23 12.14 M148.37 41.54 C156.11 33.36, 163.41 25.87, 173.87 13.62 M155.57 40.78 C163.04 33.2, 170.21 25.89, 172.39 19.4 M153.35 41.78 C160.28 33.76, 168.68 26.23, 173.75 19.2 M161.33 40.68 C162.17 39.63, 166.4 34.65, 173.34 23.96 M159.45 42.69 C165.61 35.92, 169.91 30.25, 173.7 26.35 M164.86 41.82 C167.6 39.01, 172.53 34.65, 174.99 30.9 M164.12 42.64 C168.06 39, 170.43 35.84, 174.33 32.15 M169.86 42.22 C171.66 40.18, 172.39 39.78, 174.25 37.82 M170.07 42.18 C171.68 40.31, 173.05 38.98, 174.44 37.65" stroke="#15aabf" stroke-width="0.5" fill="none"></path><path d="M0.69 1.48 C66.13 0.07, 127.85 1.47, 174.42 -1.89 M173.14 1.01 C171.31 8.47, 173.68 19.97, 172.74 43.43 M174 42.6 C126.71 38.99, 79.9 41.9, 1.02 43.48 M-1.47 41.34 C-2.06 28.73, -2.1 16.35, 0.54 1.27" stroke="#1864ab" stroke-width="1.5" fill="none" stroke-dasharray="1.5 7"></path></g><g transform="translate(117.04393872961202 117.05781448332527) rotate(0 81.5 12)"><text x="81.5" y="17" font-family="Virgil, Segoe UI Emoji" font-size="20px" fill="#1864ab" text-anchor="middle" style="white-space: pre;" direction="ltr">isLoading</text></g><g stroke-linecap="round"><g transform="translate(117.54393872961202 371.0578144833253) rotate(0 82.14286527819934 0.8305882160771034)"><path d="M0.89 0.78 C28.25 0.87, 136.17 0.57, 163.4 0.92" stroke="#862e9c" stroke-width="1.5" fill="none" stroke-dasharray="1.5 7"></path></g><g transform="translate(117.54393872961202 371.0578144833253) rotate(0 82.14286527819934 0.8305882160771034)"><path d="M136.47 10.06 C140.04 8.84, 149.98 4.14, 162.09 2.35" stroke="#862e9c" stroke-width="1.5" fill="none" stroke-dasharray="1.5 5"></path></g><g transform="translate(117.54393872961202 371.0578144833253) rotate(0 82.14286527819934 0.8305882160771034)"><path d="M136.55 -10.46 C140.17 -6.8, 150.1 -6.62, 162.09 2.35" stroke="#862e9c" stroke-width="1.5" fill="none" stroke-dasharray="1.5 5"></path></g></g><g transform="translate(150.54393872961202 385.0578144833253) rotate(0 38.5 13)"><text x="0" y="18" font-family="Virgil, Segoe UI Emoji" font-size="20px" fill="#862e9c" text-anchor="start" style="white-space: pre;" direction="ltr">fetching</text></g><g stroke-linecap="round" transform="translate(319.043938729612 261.0578144833253) rotate(0 86.50000000000006 36.5)"><path d="M-1.81 0.4 C66.13 -1.02, 128.11 2.3, 171.79 0.14 M0.19 0.13 C60.52 1.91, 120.94 2.12, 172.24 0.5 M171.4 1.22 C173.82 25.56, 172.77 49.45, 171.78 71.53 M172.09 -0.29 C172.62 20.11, 173.02 38.15, 172.03 73.94 M171.45 72.14 C126.19 72.91, 81.55 71.6, 1.88 73.22 M172.49 72.9 C134.65 74.32, 96.95 75.47, -0.57 73.67 M1.6 74.91 C0.84 46.18, 0.35 21.4, -0.99 -1.48 M-0.53 72.94 C1.25 52.95, 0.29 32.7, -0.05 -0.42" stroke="#000000" stroke-width="1" fill="none"></path></g><g transform="translate(370.543938729612 283.5578144833253) rotate(0 36.50000000000006 13)"><text x="0" y="18" font-family="Virgil, Segoe UI Emoji" font-size="20px" fill="#000000" text-anchor="start" style="white-space: pre;" direction="ltr">value(1)</text></g><g stroke-linecap="round"><g transform="translate(543.5439387296119 359.0578144833253) rotate(0 83.55118463225665 1.033383659646006)"><path d="M0.24 0.85 C28.15 1.24, 138.76 1.14, 166.86 1.21" stroke="#862e9c" stroke-width="1.5" fill="none" stroke-dasharray="1.5 7"></path></g><g transform="translate(543.5439387296119 359.0578144833253) rotate(0 83.55118463225665 1.033383659646006)"><path d="M140.09 9.56 C144.49 10.27, 151.63 6.42, 167.88 -0.78" stroke="#862e9c" stroke-width="1.5" fill="none" stroke-dasharray="1.5 5"></path></g><g transform="translate(543.5439387296119 359.0578144833253) rotate(0 83.55118463225665 1.033383659646006)"><path d="M140.1 -10.96 C144.32 -5.12, 151.45 -3.85, 167.88 -0.78" stroke="#862e9c" stroke-width="1.5" fill="none" stroke-dasharray="1.5 5"></path></g></g><g stroke-linecap="round" transform="translate(826.0439387296121 174.05781448332527) rotate(0 86.5 27.5)"><path d="M0 0 C0 0, 0 0, 0 0 M0 0 C0 0, 0 0, 0 0 M-0.63 6.56 C1.76 3.68, 3.08 1.59, 4.5 -0.39 M-0.24 6.34 C1 4.84, 2.17 3.44, 5.16 -0.02 M-0.04 10.88 C3.77 9.34, 7.74 3.95, 9.53 1.35 M-0.43 12.37 C2.84 7.37, 6.82 3.98, 11.04 0.52 M-0.57 19.01 C6.76 12.54, 7.72 8.14, 16.39 -1.12 M-0.26 17.59 C4.85 12.07, 9.98 7.77, 16.39 -0.44 M-1.56 25.18 C5.16 20.92, 9.42 14.71, 21.98 0.65 M1.21 24.32 C7.4 16.29, 12.75 10, 20.27 0.84 M1.93 31.17 C6.97 19.62, 17.09 8.65, 24.42 -0.11 M0.77 30.3 C10.49 18.51, 20.46 6.76, 25.95 1.03 M1.6 35.53 C4.5 27.45, 15.27 20.68, 33.13 0.53 M-0.21 35.99 C7.61 28.51, 14.27 20.05, 32.36 0.57 M2.04 42.35 C9.08 29.12, 19.81 20.54, 37.56 0.34 M0.47 42.97 C9.6 31.91, 20 20.85, 36.32 0.9 M1.02 48.35 C13.86 31.22, 31.28 12.33, 40.52 -0.21 M-0.63 49.36 C14.41 30.63, 28.43 14.03, 42.2 0.51 M2.21 56.38 C12.58 43.1, 22.33 29.76, 47.24 0.82 M0.31 54.56 C13.79 40.48, 25.61 25.77, 48.09 0.1 M2.74 59.33 C21.35 37.91, 41.7 16.38, 54.69 -0.32 M3.22 57.43 C22.43 37.56, 41.39 15.24, 53.45 0.64 M9.46 58.82 C25.91 34.26, 45.58 14.72, 56.61 1.71 M8.51 58.33 C27.44 35.04, 48.63 11.82, 57.26 0.46 M11.78 56.18 C32.87 33.41, 53.96 11.87, 64.88 -1.8 M13.26 58.28 C34.28 35.46, 54 11.76, 63.69 -0.66 M20.43 59.1 C30.15 45.02, 41.94 33.23, 70.53 1.16 M18.09 56.98 C35.67 38.17, 51.69 18.39, 68.23 -0.37 M25.74 59.51 C43.75 36.19, 63.13 12.64, 73.08 0.16 M24.7 56.95 C36.12 46.72, 45.04 32.91, 75.36 0.32 M31.09 58.4 C43.81 41.38, 56.89 27.44, 77.59 1.12 M29.55 57.58 C41.42 43.46, 53.92 28.07, 78.75 0.15 M33.84 56.62 C54.71 34.42, 72.2 11.48, 83.98 -0.87 M34 58.28 C45.53 46, 55.05 33.91, 84.82 -0.33 M38.76 55.69 C54.57 45.78, 66.49 29.03, 88.08 1.3 M39.94 56.51 C51.19 45.94, 61.6 33.87, 91 0.39 M47 56.61 C58.97 43.65, 71.03 27.8, 94.99 -0.51 M46 56.96 C56.68 42.56, 68.69 28.97, 95.3 -1.18 M49.49 56.7 C62.89 44.32, 74.51 31.15, 100.04 1.21 M51.17 57.53 C68.04 37.98, 84.84 18.61, 100.52 -0.39 M55.88 56.37 C72.58 40.58, 85.98 24.72, 106.24 -1.63 M54.96 58.55 C74.06 37.02, 91.84 17.31, 105.91 -0.42 M60.02 55.95 C79.16 37.91, 92.6 20.27, 113.19 -1.86 M61.06 56.75 C75.33 40.53, 90.44 24.77, 111.28 0.9 M64.84 58.53 C80.87 41.68, 90.7 27.85, 117.92 0.45 M65.5 58.47 C79.5 41.12, 93.16 26.28, 116.04 -0.15 M71.82 58.74 C83.3 48.02, 92.92 35.12, 123.01 1.14 M72.31 57.64 C89.73 37.45, 105.72 17.78, 122.6 0.23 M77.95 57.56 C91.94 38.08, 107.75 23.51, 126.91 0.94 M77.66 56.99 C93.05 39.17, 111.13 19.64, 126.88 -0.34 M81.1 59.15 C96.43 39.06, 110.71 21.96, 130.66 1.06 M83.52 58.04 C99.64 38.2, 116.06 19.78, 132.22 -0.57 M89.03 57.66 C101.62 43.26, 115.32 27.65, 136.84 0.06 M87.84 58.25 C105.73 38.51, 122.32 17.07, 136.59 0.62 M92.76 58.03 C106.39 41.91, 122.98 24.21, 145.04 0.54 M94.17 57.12 C110.27 39.09, 124.94 20.76, 143.25 -0.83 M99.58 58.84 C109.96 46.51, 119.42 34.21, 146.73 2.08 M97.85 57.25 C112.71 41.75, 126.45 25.04, 147.86 -0.02 M102.44 57.05 C124.26 32.88, 141.87 10.74, 152.76 -0.02 M103.64 56.45 C118.78 40.08, 134.09 22.46, 153.2 0 M108.87 58.89 C118.44 43.8, 127.94 35.46, 160.28 2.07 M109.9 56.84 C121.44 45.22, 133.3 31.36, 158.26 0.33 M114.47 56.61 C128.13 40.29, 143.52 25.65, 164.17 -0.44 M114.2 56.92 C129.74 40.44, 145.93 22.47, 164.97 -0.68 M119.83 59.36 C130.94 43.08, 142.66 33.01, 167.96 -0.16 M119.56 56.72 C131.02 42.27, 145.09 28.15, 169.27 0.64 M123.28 58.68 C142.11 38.37, 155.77 23.8, 173.99 2.78 M125.35 58.57 C138.82 40.1, 154.11 23.35, 174.53 1.9 M129.15 55.61 C146.7 39.11, 164.81 18.09, 175 8.81 M130.81 58.49 C144.14 42.51, 157.64 26.92, 173.33 6 M133.96 57.74 C150.08 41.48, 160.28 26.75, 174.13 12.43 M135.44 58.52 C146.73 43.09, 159.91 29.34, 174.71 12.91 M141.23 58.77 C155.1 44.01, 164.44 27.97, 172.61 18.85 M141.03 56.56 C150.33 46.15, 162.5 32.68, 174.02 19.58 M144.37 59.31 C155.12 46.13, 164.55 37.51, 175.27 25.49 M146.77 58.49 C152.15 50.02, 160.13 41.11, 173.74 25.77 M150.17 57.73 C159 46.88, 167.37 38.25, 175.32 31.61 M151.96 57.23 C159.19 48.98, 164.46 42, 174.42 30.89 M157.72 58.94 C162.13 52.61, 166.15 46.77, 174.6 37.28 M157.15 56.85 C160.85 50.57, 167.72 44.75, 174.11 37.32 M161.85 57.22 C165.08 52.37, 170.41 46.86, 173.78 44.47 M162.7 57.63 C164.83 53.54, 168.65 50.47, 174.76 44.71 M167.56 57.33 C170.17 55.09, 173.73 50.52, 174.72 49.15 M166.66 58.06 C169.03 56.51, 169.58 54.02, 174.49 49.9" stroke="#fab005" stroke-width="0.5" fill="none"></path><path d="M-1.89 -1.31 C37.72 -2.44, 72.7 -0.22, 171.01 -1.38 M174.43 -0.71 C174.93 16.01, 174.08 35.65, 172.46 53.3 M174.48 54.97 C136.25 54.66, 95.43 55.22, -1.78 54.27 M1.27 56.34 C-1.44 41.6, 2.04 31.26, -0.25 -0.17" stroke="#c92a2a" stroke-width="1.5" fill="none" stroke-dasharray="1.5 7"></path></g><g transform="translate(831.0439387296121 189.55781448332527) rotate(0 81.5 12)"><text x="81.5" y="17" font-family="Virgil, Segoe UI Emoji" font-size="20px" fill="#c92a2a" text-anchor="middle" style="white-space: pre;" direction="ltr">isValidating</text></g><g stroke-linecap="round" transform="translate(541.0439387296119 262.0578144833253) rotate(0 86 35.5)"><path d="M1.44 -1.21 C63.96 2.14, 125.65 -0.25, 172.37 0.27 M0.93 -0.76 C49.85 0.91, 98.43 -0.24, 171.2 0.61 M173.3 -1.22 C171.06 24.26, 170.74 49.1, 170.17 70.42 M171.2 -0.97 C173.39 22.81, 172.33 46.33, 171.22 70.57 M170.75 72.88 C135.82 68.17, 99.05 71.82, -1.03 70.8 M172.74 70.43 C134.32 70.03, 95.38 69.23, 0.8 71.95 M0.22 70.01 C-1.15 46.01, -0.89 20.12, -1.06 -0.12 M-0.09 70.95 C-0.46 44.14, 0.4 15.98, -0.14 -0.66" stroke="#000000" stroke-width="1" fill="none"></path></g><g transform="translate(32.941410508827744 23.528187249032726) rotate(0 199.00000000000006 13)"><text x="0" y="18" font-family="Virgil, Segoe UI Emoji" font-size="20px" fill="#000000" text-anchor="start" style="white-space: pre;" direction="ltr">Key Change + Previous Data + Fallback</text></g><g stroke-linecap="round"><g transform="translate(499.04393872961214 102.05781448332527) rotate(0 1.4391569416969787 143.94473265595752)"><path d="M-0.73 0.09 C0 47.91, 3.12 239.61, 3.61 287.8" stroke="#d9480f" stroke-width="1.5" fill="none" stroke-dasharray="1.5 7"></path></g></g><g transform="translate(446.5439387296119 61.057814483325274) rotate(0 55 13)"><text x="0" y="18" font-family="Virgil, Segoe UI Emoji" font-size="20px" fill="#d9480f" text-anchor="start" style="white-space: pre;" direction="ltr">Key Change</text></g><g transform="translate(582.5439387296121 283.5578144833253) rotate(0 36.5 13)"><text x="0" y="18" font-family="Virgil, Segoe UI Emoji" font-size="20px" fill="#000000" text-anchor="start" style="white-space: pre;" direction="ltr">value(1)</text></g><g stroke-linecap="round" transform="translate(540.5439387296119 173.05781448332527) rotate(0 86.5 28)"><path d="M0 0 C0 0, 0 0, 0 0 M0 0 C0 0, 0 0, 0 0 M-1.02 5.97 C0.89 5.71, 2.17 3.58, 4.91 0.32 M-0.65 6.34 C0.82 5.2, 2.39 2.97, 5.13 0.57 M1.52 12.42 C3.82 8.07, 7.37 3.26, 9.16 -1.48 M0.69 12.09 C2.41 8.6, 5.91 5.4, 11.39 -0.18 M-1.58 18.81 C4.89 14.93, 5.91 9.35, 15.88 -0.84 M-0.89 17.6 C5.33 11.8, 8.99 7.13, 15.86 1.28 M0.98 24.16 C6.86 17.11, 15.09 9.47, 22.82 -0.86 M1.17 24.53 C6.77 17.04, 12.62 11.35, 20.36 -0.38 M-0.39 32.27 C5.55 21.25, 15.56 14.44, 26.3 -0.53 M0.75 29.62 C7.95 22.94, 15.62 13.13, 25.29 -0.34 M0.37 35.59 C14.01 23.78, 25.46 5.44, 33 1.2 M0.42 36.68 C7.89 27.62, 17.29 17.17, 31.22 -0.77 M0.23 41.74 C10.29 31.97, 19.06 21.84, 37.14 1.21 M0.78 43.25 C14.55 26.16, 29.49 9.11, 35.94 0.59 M-0.19 49.95 C13.85 37.07, 22.85 22.6, 42.56 -1.54 M0.52 48.3 C7.64 39.72, 18.28 29.93, 42.79 0.76 M0.87 53.99 C10.65 42.11, 23.88 27.12, 48.26 2.12 M0.15 55.31 C11.37 40.97, 22.3 29.09, 47.51 1.01 M2.48 59.34 C19.33 35.42, 40.75 13.42, 54.49 1.78 M3.45 58.75 C22.82 35.29, 42.96 12.62, 52.58 -0.79 M9.14 60.18 C19.74 41.18, 35.78 28.05, 56.29 -0.35 M7.89 59.19 C26.27 37.69, 44.04 15.73, 58.05 -0.74 M11.67 59.8 C31.19 36.45, 50.14 16.22, 65.58 0.73 M12.81 57.02 C31.33 36.08, 51.41 15.94, 63.93 -0.51 M19.26 59.03 C37.63 37.26, 54.86 12.87, 68.67 0.99 M17.73 59.03 C28.04 45.68, 40.34 34.98, 68.97 0.07 M24.29 56.19 C40.45 36.59, 60.35 16.92, 76.39 1.58 M24.46 57.58 C35.18 45.39, 45.18 34.5, 75.06 -0.6 M29.88 57.24 C44.95 39.14, 63.29 19.06, 77.61 1.03 M28.91 59.07 C40.67 46.29, 50.19 33.43, 80.03 -0.44 M33.93 56.03 C47.61 44.36, 61.18 27.7, 85.28 1.36 M34.47 57.24 C43.67 45.37, 54.06 33.18, 86.04 0.64 M40.73 56.43 C58.31 33.68, 79.39 10.81, 90.08 0.38 M39.82 57.69 C52.98 40.9, 69.28 23.78, 90.37 0.23 M44.96 56.56 C60.39 42, 78.08 20.71, 94.37 -2.22 M44.29 57.2 C57.66 43.37, 68.62 30.38, 95.81 -0.23 M51.3 58.95 C65.93 39.51, 80.67 24.06, 101.85 -0.62 M49.7 58.17 C67.84 37.24, 85.34 17.24, 101.47 -0.01 M54.5 58.74 C69.94 42.08, 83.02 25.61, 107.57 -0.72 M55.71 58.04 C75.2 35.81, 93.21 13.14, 107.15 -0.72 M58.89 57.87 C74.68 45.23, 84.31 28.36, 111.49 0.08 M61.65 57.66 C79.9 35.01, 98.85 13.31, 112.17 -0.87 M65.84 58.01 C80.3 45.61, 89.29 30.73, 115.91 -0.22 M65.24 57.49 C79.59 42.08, 92.62 27.81, 117.06 1.27 M72.56 58.98 C88.42 37.97, 108.23 16.53, 122.31 0.25 M71.65 58.21 C81.76 46.9, 92.11 34.23, 121.69 -0.68 M76.98 59.24 C92.42 40.43, 106.43 23.23, 126.17 1.65 M75.71 58.42 C95.09 35.53, 113.51 15.37, 126.37 -0.52 M83.15 58.77 C92.83 43.89, 106.66 34.2, 132.42 -0.62 M81.51 57.75 C94.09 43.76, 108.78 27.85, 132.58 0.64 M86.77 59.31 C102.14 41.59, 119.04 22.91, 138.96 2.25 M87.33 58.33 C103.03 40.21, 118.6 23.1, 136.78 0.82 M93.29 58.49 C109.06 38.54, 127.64 18.99, 144.73 0.68 M91.92 57.12 C104.07 45.22, 116.56 31.45, 143.77 0.55 M99.46 58.05 C114.08 40.43, 127.83 21.9, 149.3 0.9 M97.36 59.38 C114.29 39.22, 128.96 21.65, 148.53 -0.68 M103.39 58.05 C114.23 46.86, 125.4 30.93, 152.9 1.08 M103.41 57.03 C117.15 42.73, 130.64 27.19, 153.56 -1.09 M110.11 57.02 C119.14 42.64, 134.12 28.46, 160.01 1.62 M108.38 58.1 C127.42 37.32, 146.62 14, 158.71 -0.11 M113.64 58.14 C131.78 35.09, 150.84 13.98, 163.4 1.22 M113.4 57.1 C129.28 39.66, 146.55 20.9, 164.57 -1.05 M118.55 57.48 C139.1 37.39, 155.52 14.72, 167.69 -0.82 M119.34 58.44 C134.62 39.51, 151.67 20.24, 170.26 -0.64 M126.01 58.13 C139.52 41.31, 155.1 25.4, 172.14 0.98 M125.13 58.83 C135.26 44.39, 145.27 31.72, 173.5 1.83 M131.38 58.43 C143.51 41.2, 159.5 27.04, 174.81 7.84 M128.57 58.7 C144.63 40.77, 158.37 24.48, 175.08 6.22 M134.25 58.12 C145.62 47.06, 154.59 37.62, 173.27 11.5 M134.73 58.6 C150.44 39.65, 165.25 24.26, 174.84 13.61 M140.01 58.57 C150.42 48.02, 157.23 37.78, 172.84 20.28 M140.74 58.61 C153.44 42.8, 166.13 28.67, 174.16 18.55 M145.91 56.92 C154.79 47.76, 163.62 40.41, 172.77 26 M146.18 58.71 C154.97 48.42, 163.36 37.29, 173.49 25.16 M150.61 58.33 C156.33 53.43, 162.52 45.14, 175.65 30.89 M149.89 58.26 C156.71 51.89, 162.34 45.96, 173.96 32.31 M156.28 58.08 C162.44 54.53, 166.61 45.61, 172.23 36.03 M156.32 58.32 C162.79 50.87, 168.26 44, 173.55 37.27 M162.09 57.87 C163.65 53.94, 170.43 49.86, 172.37 43.8 M162.35 59.1 C165.57 54.04, 168.51 49.86, 174.16 44.35 M166.74 56.72 C169.7 53.72, 171.95 51.8, 175.24 50.21 M167.5 58.18 C168.75 56.28, 170.03 53.63, 174.37 49.3" stroke="#fab005" stroke-width="0.5" fill="none"></path><path d="M-1.38 0.37 C53.41 1.46, 107.71 1.01, 174.86 -1.52 M171.3 -1.6 C174.39 20.63, 174.65 39.19, 174.3 54.78 M172.27 54.17 C133.21 54.99, 95.86 55.8, -1.6 54.07 M-0.17 54.45 C-0.63 32.18, 0.28 10.52, -1.25 1.88" stroke="#c92a2a" stroke-width="1.5" fill="none" stroke-dasharray="1.5 7"></path></g><g transform="translate(545.5439387296119 189.05781448332527) rotate(0 81.5 12)"><text x="81.5" y="17" font-family="Virgil, Segoe UI Emoji" font-size="20px" fill="#c92a2a" text-anchor="middle" style="white-space: pre;" direction="ltr">isValidating</text></g><g stroke-linecap="round" transform="translate(537.5439387296119 101.05781448332527) rotate(0 86.5 21)"><path d="M0 0 C0 0, 0 0, 0 0 M0 0 C0 0, 0 0, 0 0 M-0.31 7.04 C1.09 4.86, 2.23 3.5, 4.65 0.5 M-0.53 6.78 C1.56 4.04, 3.54 2.47, 5.36 0.09 M-0.4 12.76 C1.33 9.89, 3.41 4.99, 10.35 -0.44 M-0.59 12.06 C3.56 8.02, 8.18 3.41, 9.85 0.28 M1.77 18.65 C5.07 10.57, 10.94 4.98, 16.09 2.12 M0.4 17.78 C5.04 12.28, 12.14 5.85, 15.72 0.78 M0.45 24.69 C9.13 16.43, 15.85 7.05, 20.76 1.25 M1.15 23.47 C5.23 19.48, 7.58 13.98, 20.9 -0.66 M-1.55 28.97 C7.07 23.59, 11.06 16.84, 25.8 -0.51 M0.54 31.24 C7.8 21.87, 13.01 13.75, 27.23 0.23 M1.19 38.7 C11.36 21.91, 24.02 11.6, 31.16 1.7 M-0.24 37.5 C11.6 24.03, 21.13 10.62, 31.43 0.87 M1.37 42.82 C13.06 29.46, 24.92 15.4, 38.76 1.16 M0.26 42.62 C9.4 31.66, 16.85 21.97, 36.69 0.29 M7.77 43.66 C12.13 34.36, 20.54 23.62, 40.6 -0.23 M4.82 42.81 C16.31 31.96, 25.44 20.63, 42.05 0.55 M9.57 43.72 C21.24 30.49, 32.44 20.28, 46.27 2.2 M11.16 42.12 C24.03 27.76, 37.14 12.72, 48.22 1.13 M14.9 41.51 C31.46 24.89, 45.47 11.93, 55.03 0.13 M16.78 42.5 C28.78 28.48, 39.75 13.27, 52.92 0.36 M19.83 41.04 C29.76 34.23, 35.64 22.69, 59.39 -1.6 M21.21 42.48 C28.35 32.27, 36.83 23.21, 58.77 -0.2 M26.41 41.96 C40.42 27.45, 55.27 12.62, 65.15 -0.81 M26.33 41.58 C38.68 30.88, 48.76 17.49, 64.56 -0.34 M32.25 43.81 C44.43 24.83, 60.23 10.32, 66.96 0.25 M31.25 41.75 C42.2 32.57, 50.51 21.27, 69.16 -0.78 M36.54 40.14 C47.79 30.62, 56.74 24.41, 72.43 -0.95 M38.61 41.7 C52.74 25.88, 67.13 8.35, 74.84 0.21 M41.67 42.76 C50.17 33.93, 56.04 25.77, 77.62 -1.02 M43.46 42.38 C50.94 31.54, 60.55 21.65, 79.09 -0.76 M47.27 43.88 C56.45 32.76, 66.82 23.07, 83.15 1.55 M47.6 41.35 C57.84 29.58, 69.76 19.61, 86 -0.84 M51.76 40.35 C60.02 32.25, 67.98 25.83, 89.76 0.55 M52.4 42.21 C68.66 25.17, 82.65 9.14, 90.09 -0.44 M58.41 43.77 C70.44 29.26, 77.21 17.79, 94.36 -1.76 M59.17 40.96 C68.29 30.73, 78.72 20.07, 95.64 0.06 M64.92 40.76 C74.3 31.05, 84.64 18.76, 101.59 -0.4 M63.98 41.47 C74.69 29.49, 85.98 18.02, 100.56 0.81 M69.5 43.08 C79.08 30.76, 92.91 16.28, 107.89 0.4 M70.02 41.82 C78.49 30.07, 89.64 19.36, 105.71 -0.17 M76.37 43.88 C88.73 24.38, 104.19 8.97, 113.07 1.52 M74.45 41.77 C84.39 30.2, 97.06 16.25, 110.77 -0.52 M81.24 44.59 C91.73 28.05, 107.22 9.84, 115.7 1.77 M80.08 41.86 C89.78 32.04, 100.83 20.56, 116.88 0.55 M84.09 43.34 C98.46 27.71, 111.37 12.39, 119.95 0.4 M85.46 43.12 C99.07 26.55, 111.93 10.38, 121.83 0.97 M92.07 41.49 C102.29 28.36, 111.36 18.4, 128.48 1.54 M90.08 41.67 C100.6 30.96, 111.79 16.59, 126.13 -0.57 M94.86 40.46 C104.78 34.86, 110.54 24.15, 131.77 1.07 M94.99 42.93 C106.52 31.02, 115.7 20.42, 132.72 0.55 M100.25 43.99 C110.93 32.37, 121.77 21.92, 137.76 -1.1 M100.67 41.97 C107.95 34.28, 115.04 25.71, 137.83 0.31 M106.21 42.3 C122.45 25.19, 136.73 9.65, 141.85 1.07 M106.38 42.98 C118.67 30.14, 129.91 17.19, 143.28 0.4 M112.45 42.26 C118.52 32.2, 128.94 23.94, 148.5 0 M112 41.62 C120.7 30.68, 131.73 18.42, 147.38 -0.3 M116.48 43.62 C125.54 30.08, 134.34 22.4, 153.27 0.64 M117.35 42.45 C125.76 33.04, 134.32 21.33, 153.22 0.59 M121.16 41.17 C137.35 25.4, 150.4 12.48, 160.42 0.69 M122.07 43.36 C131.03 31.87, 140.06 21.38, 159.54 0.47 M126.79 40.92 C137.53 29.41, 147.76 19.24, 164.92 0.76 M126.94 42.92 C141.01 28.41, 153.97 11.71, 165.08 0.07 M134.63 42.32 C141.07 31.37, 147.67 22.44, 170.06 0.57 M131.75 42.85 C142.31 30.78, 154.23 17.54, 169.41 0.91 M139.02 42.4 C150.67 30.64, 158.5 16.29, 172.15 2.64 M138.6 41.35 C150.95 25.4, 164.6 11.47, 173.97 1.19 M142.89 42.03 C154.78 32.18, 164.77 18.99, 174.79 7.73 M143.78 41.6 C149.78 34.48, 158.06 26.06, 173.56 6.46 M149.85 42 C157.4 34.31, 164.03 22.24, 175.51 11.74 M149.1 41.09 C158.81 31.55, 169.07 20.21, 173.3 12.74 M155.75 41.33 C158.77 35.44, 161.32 33.52, 176.03 17.68 M153.75 42.06 C158.66 36.64, 164.84 29.05, 174.14 19.69 M160.73 41.36 C166.72 37.34, 168.79 30.65, 174.43 24.63 M159.59 42.88 C162.81 37.5, 166.86 32.6, 173.38 25.79 M164.74 43.5 C168.77 38.04, 172.85 33.74, 172.92 32.38 M164.94 42.47 C168.48 38.89, 171.53 35, 173.42 32.28 M170.73 42.53 C171.92 39.92, 172.18 38.62, 174.37 37.35 M170.33 41.94 C171.35 40.58, 172.37 39.23, 174.17 37.26" stroke="#15aabf" stroke-width="0.5" fill="none"></path><path d="M0.27 -0.26 C36.08 -1.03, 71.16 -1.84, 174 0.6 M174.22 1.02 C174.13 11.43, 173.95 21.71, 171.53 41.34 M172.42 42.54 C137.8 41.76, 98.45 38.49, 1.88 41.21 M-0.86 40.23 C0.09 28.55, -1.21 19.72, 0.22 -1.66" stroke="#1864ab" stroke-width="1.5" fill="none" stroke-dasharray="1.5 7"></path></g><g transform="translate(542.5439387296119 110.05781448332527) rotate(0 81.5 12)"><text x="81.5" y="17" font-family="Virgil, Segoe UI Emoji" font-size="20px" fill="#1864ab" text-anchor="middle" style="white-space: pre;" direction="ltr">isLoading</text></g><g transform="translate(592.5439387296121 379.0578144833253) rotate(0 38.5 13)"><text x="0" y="18" font-family="Virgil, Segoe UI Emoji" font-size="20px" fill="#862e9c" text-anchor="start" style="white-space: pre;" direction="ltr">fetching</text></g><g stroke-linecap="round" transform="translate(753.0439387296121 257.5578144833253) rotate(0 127 35.5)"><path d="M-0.58 1.51 C78.4 -0.66, 159.74 -1.91, 252.62 -1.3 M-0.01 0.53 C91.18 -2.12, 183.08 -2.25, 253.7 -0.74 M255.34 -1.6 C252.26 21.1, 253.4 38.2, 253.83 69.45 M253.31 -0.63 C254.31 18.37, 252.54 36.44, 255 70.49 M252.57 72.2 C179.39 71.25, 107.53 70.31, -0.41 72.3 M254.17 71.09 C153.16 69.46, 52.91 69.57, -0.76 70.57 M-0.31 70.81 C-0.67 49.29, -0.23 30.14, -1.92 -0.27 M-0.72 71.35 C-0.15 55.35, -1.35 37.13, 0.86 0.24" stroke="#000000" stroke-width="1" fill="none"></path></g><g transform="translate(843.0439387296121 281.5578144833253) rotate(0 41 13)"><text x="0" y="18" font-family="Virgil, Segoe UI Emoji" font-size="20px" fill="#000000" text-anchor="start" style="white-space: pre;" direction="ltr">value(2)</text></g><g stroke-linecap="round"><g transform="translate(818.0439387296121 95.05781448332527) rotate(0 0.8591933649032626 73.22291724868114)"><path d="M1.12 -0.91 C1.07 23.72, 0.84 122.88, 0.6 147.36" stroke="#d9480f" stroke-width="1.5" fill="none" stroke-dasharray="1.5 7"></path></g></g><g transform="translate(757.0439387296121 58.057814483325274) rotate(0 53 13)"><text x="0" y="18" font-family="Virgil, Segoe UI Emoji" font-size="20px" fill="#d9480f" text-anchor="start" style="white-space: pre;" direction="ltr">Revalidate</text></g><g stroke-linecap="round" transform="translate(1031.0439387296121 256.5578144833253) rotate(0 86 35.5)"><path d="M0.6 -0.54 C65.9 -2.46, 136.42 0.16, 173.48 -0.03 M-0.33 -0.89 C62.45 0.35, 125.35 1.53, 172.64 0.67 M171.21 -0.25 C171.14 14.05, 170.46 29.44, 172.06 69.63 M171.17 -0.08 C173.66 16.35, 172.57 32.95, 171.6 70.11 M173.1 71.17 C107.11 73.75, 45.14 73.05, -0.92 71.42 M171.75 70.39 C117.6 69.2, 65.03 70.53, 0.05 70.85 M0.34 71.88 C-1.89 50.09, -1.29 31.65, -0.22 -1.45 M-0.67 70.31 C0.49 47.48, -0.71 23.94, -0.7 0.42" stroke="#000000" stroke-width="1" fill="none"></path></g><g transform="translate(1062.0439387296121 278.5578144833253) rotate(0 62 13)"><text x="0" y="18" font-family="Virgil, Segoe UI Emoji" font-size="20px" fill="#000000" text-anchor="start" style="white-space: pre;" direction="ltr">new value(2)</text></g><g transform="translate(35.327893339124444 292.0578144833253) rotate(0 27.5 13)"><text x="0" y="18" font-family="Virgil, Segoe UI Emoji" font-size="20px" fill="#000000" text-anchor="start" style="white-space: pre;" direction="ltr">data:</text></g><g stroke-linecap="round" transform="translate(10 10) rotate(0 605.4538679180182 209.16706921537502)"><path d="M0.36 0.51 C369.12 -1.64, 737.89 -0.96, 1210.3 0.49 M1210.29 0.17 C1210.35 128.72, 1209.93 255.48, 1210.23 418.87 M1210.18 418.62 C779.99 422.54, 347.58 423.36, -0.46 417.54 M-1.06 418.47 C0.52 261.2, 2.15 103.13, 0.22 1.02" stroke="#d9480f" stroke-width="1.5" fill="none" stroke-dasharray="1.5 7"></path></g></svg>