<svg version="1.1" xmlns="http://www.w3.org/2000/svg" viewBox="0 0 1230.9077358360364 438.33413843075004" width="2461.815471672073" height="876.6682768615001">
  <!-- svg-source:excalidraw -->
  
  <defs>
    <style>
      @font-face {
        font-family: "Virgil";
        src: url("https://excalidraw.com/Virgil.woff2");
      }
      @font-face {
        font-family: "Cascadia";
        src: url("https://excalidraw.com/Cascadia.woff2");
      }
    </style>
  </defs>
  <rect x="0" y="0" width="1230.9077358360364" height="438.33413843075004" fill="#ffffff"></rect><g stroke-linecap="round" transform="translate(94.78256038945676 262.8329719679723) rotate(0 86.5 37)"><path d="M0.86 0.41 C37.61 0.12, 80.21 -0.31, 171.93 -0.56 M-0.6 -0.16 C41.16 0.07, 80.35 -1.52, 173.57 -0.94 M171.12 1.71 C172.56 21.84, 171.46 41.6, 172.77 72.12 M172.57 0.51 C173.91 25.2, 173.66 49.23, 172.83 73.23 M172.22 75.22 C134.01 74.17, 93.78 75.31, 1.92 75.93 M172.79 73.69 C129.47 73.39, 87.17 71.62, 0.79 73.07 M0.05 73.52 C-1 53.36, 1.25 30.8, 1.31 -1.35 M-0.75 73.31 C0.42 51.45, 1.47 26.93, 0.91 -0.65" stroke="#000000" stroke-width="1" fill="none"></path></g><g transform="translate(134.78256038945676 284.3329719679723) rotate(0 45 13)"><text x="0" y="18" font-family="Virgil, Segoe UI Emoji" font-size="20px" fill="#000000" text-anchor="start" style="white-space: pre;" direction="ltr">undefined</text></g><g stroke-linecap="round" transform="translate(93.28256038945676 180.8329719679723) rotate(0 86.5 28)"><path d="M0 0 C0 0, 0 0, 0 0 M0 0 C0 0, 0 0, 0 0 M-0.51 6.73 C1.98 4.48, 3.45 2.21, 5.09 -0.39 M-0.37 6.65 C1.96 4.02, 3.87 1.89, 4.84 0.26 M-0.05 11.94 C2.53 8.78, 4.27 6.53, 9.73 1.13 M-0.62 12.49 C4.46 8.25, 7.98 3.51, 11.34 -0.41 M-0.13 19.46 C5.76 15.58, 6.71 10.07, 15.27 0.91 M-0.09 17.75 C4.71 14.55, 8 8.42, 16.39 0.94 M0.61 24.66 C5.68 15.4, 13.19 9.36, 20.11 1.13 M0.42 24.97 C8.39 15.19, 15.92 5.21, 21.37 -0.28 M-0.02 28.53 C4.83 25.26, 10.53 15.63, 25.12 2.1 M0.91 29.52 C5.11 24.25, 12.32 15.46, 25.81 -0.48 M-0.53 35.16 C8.3 25.05, 16.45 16.43, 33.01 1.88 M-0.4 37.53 C8.17 27.11, 16.22 16.94, 32.61 0.82 M-0.96 42.2 C12.89 27.58, 24.25 12.4, 37.67 0.79 M-0.09 42.68 C13.43 25.89, 28.17 11.54, 37.06 0.31 M-1.98 49.28 C10.26 38.65, 19.07 28.28, 42.22 -0.48 M0.55 49.9 C8.02 38.35, 16.69 28.27, 43.22 -0.7 M0.43 52.94 C13.36 37.38, 25.67 23.25, 48.57 -0.58 M1.23 54.44 C20.03 34.01, 36.73 13.25, 46.7 1.14 M3.25 59.84 C15.98 39.07, 32.74 24.32, 51.5 0.61 M2.11 58.34 C17.44 39.48, 32.66 22.59, 53.06 -0.42 M8.53 59.66 C26.48 39.36, 40.64 18.63, 56.23 -1.8 M8.25 57.57 C22.03 42.42, 34.72 27.4, 58.63 0.24 M12.22 57.6 C22.11 45.43, 32.26 32.34, 64.44 0.44 M13.73 57.72 C32.63 35.62, 51.64 14.69, 62.85 -1.05 M16.33 58.78 C34.03 38.62, 52.14 16.12, 67.87 0.99 M18.05 58.6 C28.87 44.77, 40.45 32.84, 69.12 -0.77 M25.63 56.14 C44.94 35.9, 63.69 10.05, 74.37 1.02 M24.14 57.41 C38.36 40, 53.77 22.85, 75.15 0.6 M27.28 56.7 C49.95 34.19, 69.2 11.74, 77.46 1.44 M28.24 59.18 C41.18 41.81, 56.3 25.45, 79.79 0.11 M34.84 57.7 C47.28 41.07, 61.67 25.49, 86.41 1.07 M35.26 58.11 C47.9 41.41, 59.7 26.55, 85.39 0.62 M39.87 56.79 C52.29 42.56, 65.65 28.36, 91.79 0.85 M38.58 58.07 C55.52 39.9, 71.15 21.96, 90.64 0.29 M43.99 56.24 C58.7 41.46, 73.45 22.54, 95.49 -1.98 M45.4 57.9 C59.63 38.92, 75.59 20.42, 94.88 -1.04 M50.41 57.11 C61.74 46.17, 75.03 30.47, 100.39 -1.7 M50.65 57.92 C63.38 41.41, 77.8 25.45, 101.01 -0.44 M56.02 59.43 C72.15 38.83, 93.62 14.97, 108.29 -1.94 M56.23 57.26 C68.14 44.21, 79.1 30.35, 105.76 0.5 M58.94 56.43 C76.7 44.59, 90.22 28.06, 109.6 0.55 M60.92 58.3 C76.09 39.45, 90.95 22.24, 110.6 -0.9 M65.96 59.43 C78.53 46.33, 88.02 31.61, 116.63 -1.2 M65.09 58.82 C78.13 45.15, 90.7 30.39, 115.39 0.73 M71.32 56.28 C91.7 34.58, 109.06 15.19, 120.53 0.08 M71.73 58.64 C84.02 44.36, 95.13 31.46, 122.49 0.47 M77.62 59.84 C88.53 43.37, 102.79 30.47, 126.06 0.34 M76.68 59.32 C90.79 41.95, 106.65 25.62, 125.94 -0.21 M81.17 58.87 C99.65 40.08, 113.41 21.47, 131.07 1.11 M82.24 57.26 C96.02 42.6, 109.5 27.23, 132.09 0.65 M85.61 58.25 C101.81 44.5, 114.15 27.57, 137.97 -0.25 M86.08 59.16 C107.42 35.74, 125.79 13.27, 137.49 -0.03 M91.9 57.15 C108.6 39.93, 125.33 23.05, 141.9 1.57 M93.51 58.39 C107.44 38.87, 124.52 21.5, 142.2 -1.02 M95.97 57.22 C109.92 45.3, 122.57 30.19, 146.18 2.07 M98.39 58.4 C111.81 42.56, 124.81 28.12, 147.64 -0.31 M102.71 56.77 C116.35 45.14, 126.24 28.63, 154.47 -0.9 M103.43 57.13 C117.91 42.21, 130.87 26.69, 153.95 0.22 M107.55 59 C126.38 36.33, 145.81 16.57, 158.27 -0.94 M109.06 58.45 C123.33 40.19, 138.7 23.08, 157.82 -0.74 M114.56 58.12 C129.23 43.29, 141.04 26.73, 165.02 1.06 M113.76 58.49 C130.4 39.06, 145.67 21.32, 163.84 -0.52 M117.95 59.6 C132.42 40.79, 147.48 26.65, 169.63 -0.82 M118.91 59.14 C130.12 46.32, 140.39 34.84, 170.34 -0.11 M124.2 58.3 C141.19 39.6, 155.48 20.4, 173.25 0.06 M125.13 58.37 C135.96 44.76, 147.58 32.53, 173.43 0.81 M129.56 58.72 C145.03 38.65, 162.29 20.85, 175.51 8.42 M129.11 57.69 C144.69 40.7, 159.95 22.85, 173.47 7.47 M134.17 57.12 C147.91 44.06, 159.65 26.87, 175.1 13.94 M136.01 58.53 C145.29 46.69, 154.24 34.69, 173.06 14.17 M139.57 57.79 C145.55 51.36, 156.67 43.19, 174.16 17.19 M140.21 57.69 C154.18 43.96, 166.79 27.46, 173.55 18.47 M146.78 59.13 C156.17 45.89, 166.09 37.35, 172.33 24.66 M145.73 57.66 C153.08 49.14, 159.58 41.31, 174.51 25.32 M149.91 57.95 C155.22 53.33, 162.65 46.98, 172.24 31.59 M151.08 58.14 C158.21 49.86, 164.93 43.39, 173.4 32.23 M158.14 59.57 C162.53 50.79, 167.74 46.27, 172.29 38.46 M155.51 58.33 C163.76 50.79, 170.23 41.97, 173.7 36.94 M161.34 58.08 C166.67 54.57, 167.08 50.17, 173.58 45.37 M161.95 58.41 C165.32 53.84, 168.72 48.68, 174.06 44.02 M167.64 58.14 C169.02 55.4, 172.03 52.53, 174.76 49.39 M167.25 57.89 C169.8 55.18, 172.41 52.59, 174.65 49.28" stroke="#fab005" stroke-width="0.5" fill="none"></path><path d="M-1.99 -1.36 C38.15 -2.14, 73.2 -0.91, 171.7 -0.74 M174 1.18 C170.73 16.49, 173.8 35.09, 172.78 54.01 M173.3 56.46 C123.93 56.32, 76.24 55.6, 0.64 57.39 M0.78 57.25 C0.52 40.47, -0.1 23.08, -1.43 1.2" stroke="#c92a2a" stroke-width="1.5" fill="none" stroke-dasharray="1.5 7"></path></g><g transform="translate(98.28256038945676 196.8329719679723) rotate(0 81.5 12)"><text x="81.5" y="17" font-family="Virgil, Segoe UI Emoji" font-size="20px" fill="#c92a2a" text-anchor="middle" style="white-space: pre;" direction="ltr">isValidating</text></g><g stroke-linecap="round" transform="translate(93.28256038945676 108.8329719679723) rotate(0 86.5 21)"><path d="M0 0 C0 0, 0 0, 0 0 M0 0 C0 0, 0 0, 0 0 M0.39 6.3 C1.73 4.17, 2.76 2.29, 5.43 -0.24 M0.05 6.12 C1.33 4.71, 2.03 3.48, 4.68 0.05 M0.1 11.43 C2.24 8.74, 4.69 6.94, 11.33 0.85 M0.92 12.46 C4.7 7.49, 8.46 2.97, 10.26 0.42 M1.87 20.1 C2.81 14.52, 7.5 9.77, 14.89 -0.03 M0.52 19.23 C3.46 13.61, 8.25 10.4, 15.51 0.49 M-0.35 22.21 C5.67 17.78, 8.31 14.59, 23.08 -0.46 M0.14 24.82 C7.56 14.72, 16.65 4.92, 20.51 0.3 M-0.95 31.92 C5.48 21.7, 12.14 17.29, 24.88 0.21 M-0.99 31.39 C9.18 19.14, 17.89 8.57, 25.92 0.46 M-0.24 35.22 C11.71 22.56, 25.6 10.74, 31.14 -1.03 M-0.45 37.11 C11.75 22.02, 25.58 8.75, 32.35 0.44 M0.41 42.19 C10.16 29.18, 22.89 18.11, 38.34 -0.36 M-0.4 41.94 C14.65 27.28, 28.26 10.49, 36.06 1.17 M7.3 42.69 C19.25 29.1, 29.98 13.98, 40.6 1.01 M5.51 41.48 C15.45 29.24, 26.72 17.59, 42.35 0.41 M10.77 41.13 C23.97 26.23, 40.41 9.06, 49.32 -0.94 M11.76 42.99 C19.32 32.32, 29 21.08, 47.39 1.16 M15.75 40.3 C31.23 26.52, 41.47 11.66, 53.17 -0.92 M15.81 41.43 C29.39 26.53, 43.23 11, 53.54 -0.92 M22.7 42.85 C27.9 31.95, 36 20.99, 57.68 1.96 M22.31 42.17 C28.09 35.08, 36.32 25.86, 57.23 0.88 M25.72 41.46 C34.48 30.28, 45.84 22.14, 65.32 0.28 M27.5 41.37 C35.95 32.42, 43.31 21.27, 64.28 -0.28 M30.07 43.07 C41.48 28.65, 52.72 18.79, 67.05 0.57 M31.96 41.42 C44.31 28.59, 55.43 14.94, 69.76 -0.35 M38.23 43.02 C45.57 30.2, 55.55 22.56, 74.34 -0.55 M37.07 41.31 C47.84 29.54, 59.22 18.97, 75.32 -1.03 M43.51 41.27 C55.74 27.55, 65.88 15.43, 78.82 1.84 M41.75 42.08 C56.98 25.55, 70.43 10.85, 79.04 0.69 M48.06 40.55 C60.11 27.62, 71.71 17.93, 84.27 1.14 M48.87 41.17 C61.12 25.33, 76.3 10.62, 84.75 -0.12 M52.46 42.61 C64.03 30.63, 78.97 15.77, 90.21 1.43 M54.08 41.87 C64.59 30.34, 74.46 19.41, 89.94 0.11 M57.77 42.34 C67.44 29.83, 77.82 18.93, 95.94 1.62 M58.13 41.73 C72.35 25.08, 86.45 8.51, 95.03 -1.13 M63.11 44 C75.13 29.89, 85.03 16.1, 100.16 1.71 M63.74 41.92 C77.78 26.24, 91.53 10.31, 101.25 -0.08 M67.7 43.39 C78.6 31.34, 86.73 22.5, 104.96 -1.11 M69.91 41.69 C78.28 30.79, 87.57 21.4, 105.97 -1.24 M76.45 44.05 C86.27 32.53, 92.07 21.46, 111.44 1.79 M74.83 41.74 C86.98 27.52, 99.59 11.63, 110.57 1.01 M81.34 44.18 C93.29 26.4, 107.95 8.56, 115.08 -0.6 M79.5 43.38 C92.2 28.67, 102.9 15.3, 117.1 0.53 M86.26 41.09 C96.41 30.34, 107.97 14.88, 120.58 -0.52 M85.86 42.22 C97.12 28.79, 109.75 14.77, 121.39 0.15 M89.9 41.64 C100.45 32.45, 107.17 21.52, 126.76 1.07 M89.98 42.77 C99.37 33.43, 105.99 22.29, 127.25 1.27 M97.08 43.17 C101.66 35.18, 109.53 25.95, 131.9 1.32 M96.67 42.65 C110.08 27.57, 122.32 12.08, 132.05 -0.98 M102.41 43.69 C117.08 24.46, 130.86 8.3, 139.33 -0.2 M101.37 42.97 C114.62 26.57, 129.49 9.37, 137.66 -0.28 M106.25 42.06 C117.03 32.37, 124.69 21.71, 143.49 0.57 M105.46 41.72 C119.88 26.87, 132.37 9.74, 142.74 -0.81 M110.34 44.21 C120.58 32.5, 130.14 21.14, 147.5 0.46 M112.16 42.22 C122.41 30.59, 132.68 16.54, 147.59 0.26 M117.86 43.27 C125.65 29.53, 137.94 18.48, 153.23 -0.8 M117.81 42.49 C130.88 27.09, 144.87 10.91, 154.52 -0.89 M120.96 41.8 C131.06 32.84, 140.2 19.9, 158.81 -0.37 M121.74 41.68 C131.59 30.5, 140.75 18.49, 158.65 0.68 M128.83 43.98 C136.57 31.91, 149.16 19.12, 164.77 -2.1 M127.62 41.44 C136.72 30.68, 146.67 19.11, 164.31 -0.88 M131.29 41.78 C144.26 30.03, 157.5 13.13, 167.55 -0.38 M133.32 42.37 C143.7 30.47, 154.64 17.66, 169.82 1.14 M138.82 43.14 C148.55 29.2, 162 13.02, 172.25 -0.41 M138.2 41.4 C147.52 31.38, 155.75 20.71, 174.57 1.97 M142.14 42.18 C150.47 34.6, 160.81 25.26, 174.89 5.24 M143 42.22 C153.19 30.56, 162.4 20.56, 174.5 5.99 M148.28 43.38 C156.16 30.88, 168.29 22.04, 173.01 13.47 M149.17 42.63 C157.94 30.42, 167.83 19.76, 173.06 13.84 M152.11 43.76 C160.38 39, 162.86 30.32, 176.01 18.71 M154.72 43.04 C158.86 36.38, 162.63 31.14, 174.72 19.66 M160.45 41.07 C164.3 39.34, 165.23 32.64, 173.25 25.81 M159.55 41.76 C163.02 37.47, 168.72 32.01, 173.47 26.19 M163.89 43.51 C168.18 40.17, 169.52 35.37, 173.57 31.21 M165.08 41.78 C167.73 39.59, 169.44 36.75, 173.55 31.21 M170.56 41.47 C171.55 40.7, 171.41 40.19, 174.63 37.06 M170.36 42.22 C171.86 40.12, 173.18 38.29, 174.15 37.28" stroke="#15aabf" stroke-width="0.5" fill="none"></path><path d="M1.02 -1.78 C54.38 0.62, 109.59 0.43, 173.6 -1.19 M171.07 -2 C174.35 10.04, 172.99 21.86, 172.58 40.12 M172.2 40.84 C106.11 40.52, 40.33 43.79, -0.4 41.13 M0.28 42.15 C-0.51 25.73, -1.59 13.75, 1.88 -0.78" stroke="#1864ab" stroke-width="1.5" fill="none" stroke-dasharray="1.5 7"></path></g><g transform="translate(98.28256038945676 117.8329719679723) rotate(0 81.5 12)"><text x="81.5" y="17" font-family="Virgil, Segoe UI Emoji" font-size="20px" fill="#1864ab" text-anchor="middle" style="white-space: pre;" direction="ltr">isLoading</text></g><g stroke-linecap="round"><g transform="translate(98.78256038945676 371.8329719679723) rotate(0 81.298247172311 0.2892546217888139)"><path d="M-1.07 -0.64 C26.34 -0.54, 136.23 0.72, 163.67 1.22" stroke="#862e9c" stroke-width="1.5" fill="none" stroke-dasharray="1.5 7"></path></g><g transform="translate(98.78256038945676 371.8329719679723) rotate(0 81.298247172311 0.2892546217888139)"><path d="M134.26 10.52 C140.56 8.3, 149.04 5.56, 163.35 2.22" stroke="#862e9c" stroke-width="1.5" fill="none" stroke-dasharray="1.5 5"></path></g><g transform="translate(98.78256038945676 371.8329719679723) rotate(0 81.298247172311 0.2892546217888139)"><path d="M134.55 -10 C140.89 -7.46, 149.3 -5.43, 163.35 2.22" stroke="#862e9c" stroke-width="1.5" fill="none" stroke-dasharray="1.5 5"></path></g></g><g transform="translate(131.78256038945676 385.8329719679723) rotate(0 38.5 13)"><text x="0" y="18" font-family="Virgil, Segoe UI Emoji" font-size="20px" fill="#862e9c" text-anchor="start" style="white-space: pre;" direction="ltr">fetching</text></g><g stroke-linecap="round" transform="translate(300.28256038945676 261.8329719679723) rotate(0 86.5 36.5)"><path d="M-1.3 -0.74 C37.09 -0.71, 72.66 1.48, 174.18 -1.93 M-0.11 -1 C34.42 0.69, 70.12 1.78, 173.23 -0.4 M173.64 1.39 C172.52 16.8, 173.93 36.12, 174.25 73.28 M172.29 0.6 C173.82 22.07, 173.49 45.2, 172.27 72.93 M171.97 72.61 C122.1 74.25, 74.08 73.55, 1.81 73.22 M172.9 73.51 C136.18 71.42, 99.06 71.08, 0.42 73.82 M0.27 71.12 C0.62 50.5, -1.86 30.46, 1.28 1.56 M-0.38 72.76 C-1.43 55.34, -1.07 39.12, -0.06 -0.02" stroke="#000000" stroke-width="1" fill="none"></path></g><g transform="translate(351.78256038945676 284.3329719679723) rotate(0 36.5 13)"><text x="0" y="18" font-family="Virgil, Segoe UI Emoji" font-size="20px" fill="#000000" text-anchor="start" style="white-space: pre;" direction="ltr">value(1)</text></g><g stroke-linecap="round"><g transform="translate(524.7825603894568 359.8329719679723) rotate(0 83.41918096728625 1.0844718735665992)"><path d="M-0.45 0.36 C27.49 0.79, 139.11 1.42, 167.28 1.81" stroke="#862e9c" stroke-width="1.5" fill="none" stroke-dasharray="1.5 7"></path></g><g transform="translate(524.7825603894568 359.8329719679723) rotate(0 83.41918096728625 1.0844718735665992)"><path d="M139.6 10.61 C146.44 10.19, 155.64 4.54, 165.29 2.94" stroke="#862e9c" stroke-width="1.5" fill="none" stroke-dasharray="1.5 5"></path></g><g transform="translate(524.7825603894568 359.8329719679723) rotate(0 83.41918096728625 1.0844718735665992)"><path d="M139.79 -9.91 C146.45 -4.75, 155.59 -4.82, 165.29 2.94" stroke="#862e9c" stroke-width="1.5" fill="none" stroke-dasharray="1.5 5"></path></g></g><g stroke-linecap="round" transform="translate(807.2825603894568 174.8329719679723) rotate(0 86.5 27.5)"><path d="M0 0 C0 0, 0 0, 0 0 M0 0 C0 0, 0 0, 0 0 M-0.81 6.18 C1.3 5.82, 1.32 4.67, 4.47 0.06 M-0.42 6.35 C1.21 4.77, 2.52 2.95, 4.94 0.13 M1.05 10.54 C4.88 9.06, 8.73 4.39, 10.28 1.38 M-0.24 12.04 C3.25 9.73, 6.16 5.46, 10.93 -0.17 M-1.29 18.51 C3.74 13.8, 11.9 6.11, 14.51 1.87 M-0.93 18.61 C5.87 11.56, 10.34 5.73, 15.15 -0.25 M2.03 24.39 C9.38 15.17, 16.64 5.1, 21.68 0.15 M-0.21 24.07 C5.33 16.79, 12.88 9.95, 20.56 -0.63 M1.09 32.29 C8.55 16.72, 22.52 7.2, 24.47 -0.58 M0.84 30.34 C5.1 23.71, 10.98 16.75, 26.05 0.85 M1.54 36.59 C14.03 21.88, 26.03 6.34, 31.44 1.33 M-0.3 36.33 C12.02 22.34, 24.62 7.17, 31.44 0.29 M1.71 42.07 C12.15 27.77, 22.66 16.04, 38.53 0.63 M0.42 41.59 C11.88 30.04, 23.2 16.88, 37.33 0.1 M-0.54 50.27 C14.37 34.25, 23.19 20.29, 41.09 1.26 M0.77 49 C9.55 36.72, 20.09 24.21, 42.47 0.39 M-0.44 56.48 C11.82 42.68, 25.37 25.04, 49.45 -1.39 M0.92 54.87 C19.79 32.5, 36.44 12.31, 47.61 -0.6 M3.9 56.89 C20.56 37.21, 35.58 17.54, 53.01 -0.35 M1.91 58.39 C16.99 42.97, 30.42 25.49, 52.83 -1.13 M6.28 58.8 C16.94 47.44, 27.83 33.33, 59.76 1.17 M7.72 57.02 C23.86 39.04, 38.92 21.33, 57.38 0.52 M12 58.85 C29.24 39.37, 45.03 19.95, 64.38 -2.08 M13.15 56.94 C24.13 44.42, 35.11 32.08, 63.04 -0.66 M19.16 57.11 C37.13 37.65, 51.52 19.58, 67.78 0.85 M18.4 58.38 C27.8 46.15, 39.5 33.54, 67.96 0.13 M23.59 58.36 C41.33 35.64, 59.17 15.38, 73.17 1.23 M24.27 57.07 C42.03 36.35, 61.66 13.74, 73.99 -1.21 M30.92 56.2 C49.83 34.24, 65.58 16.08, 77.6 0.9 M29.55 57.63 C44.59 39.91, 58.86 23.28, 78.56 0.81 M36.13 59.31 C53.84 37.29, 70.19 13.13, 84.09 0.43 M34.79 58.02 C53.66 34.72, 74.16 11.92, 85.95 0.6 M39.66 55.57 C56.73 39.28, 72.92 19.92, 89.1 1.31 M39.73 56.86 C55.43 38.44, 72.4 20.05, 89.23 0 M46.89 58.3 C56.22 43.12, 66.52 30.76, 94.68 -1.89 M45.07 57.94 C56.48 44.61, 69.33 32.08, 95.53 -0.45 M52.28 58.42 C61.06 44.44, 71.35 33.29, 99.94 0.75 M49.87 57.52 C63.81 42.14, 76.23 29.4, 99.9 1.05 M54.88 58.65 C66.28 45.88, 77.95 31.45, 105.22 -1.42 M55.35 56.85 C74.54 36.84, 95.68 14.53, 106.69 -1.19 M62.45 57.68 C78.01 38.77, 92.86 18.68, 111.56 -1.35 M62.25 57.47 C72.69 45.84, 83.37 32.86, 111.34 0.19 M66.94 56.39 C78.45 45.21, 90.3 33.4, 116.15 -1.4 M66.7 57.69 C81.76 38.96, 98.81 18.74, 117.11 -0.32 M72.63 57.99 C88.73 41.34, 102.8 22.5, 123.18 1.13 M71.52 57.95 C90.47 37.08, 106.71 17.93, 122.18 -0.44 M75.65 58.28 C93.77 39.95, 107.33 24.85, 128.65 -1.59 M76.09 57.27 C89.48 43.82, 101.77 28.2, 127.79 -0.4 M84.05 57.73 C99.14 38.13, 119.49 17.51, 133.8 -0.96 M83.68 56.6 C101.37 37.32, 120.49 15.91, 131.91 0.17 M89.39 55.78 C102.22 43.32, 115.11 25.08, 138.68 0.22 M87.31 57.29 C100.45 42.58, 114.12 27.76, 138.12 -0.33 M94.74 58.97 C113.05 33.19, 130.5 13.51, 144.21 -2.05 M93.09 56.43 C103.32 45.2, 115.08 33.17, 143.9 -1.08 M98.32 59.11 C117.96 36.68, 136.76 13.33, 149.69 -0.79 M98.04 57.34 C110.08 44.16, 123.31 29.1, 147.52 0.6 M105.49 57.51 C115.41 43.9, 130.86 27.47, 154.96 0.15 M103.47 56.87 C120.51 37.93, 136.48 19.12, 154.36 -0.39 M108.38 59.16 C121.14 43.29, 131.32 29.83, 157.88 -1.72 M108.79 57.91 C119.2 46.32, 130.15 33.39, 159.76 0.53 M113.89 56.88 C133.56 36.83, 149.15 14.67, 164.42 -1.36 M114.9 56.72 C128.43 41.75, 140.59 26.92, 165.36 -0.06 M119.29 57.56 C134.16 44.7, 144.72 30.17, 170.23 2.04 M119.97 57.38 C132.95 41.9, 146.7 25.28, 169.95 -0.05 M123.63 59.07 C137.53 44.67, 146.95 32.38, 173.38 0.66 M124.17 57.93 C136.56 42.92, 148.46 28.97, 174.51 2 M130.56 56.68 C145.22 38.41, 162.38 20, 172.6 5.61 M130.8 57.02 C145.06 39.87, 161.53 21.51, 173.69 7.57 M137.18 59.53 C149.4 43.65, 162.03 27.09, 173.9 11.71 M134.39 57.58 C150.09 39.8, 165.76 24.67, 174.75 13.29 M139.46 57.56 C146.39 51.03, 155.79 41.84, 172.86 17.54 M140.39 57.98 C149.54 48.22, 156.69 38.84, 175.13 18.15 M145.8 57.7 C152.98 49.19, 160.3 38.93, 174.83 26.37 M146.06 57.41 C154.09 47.67, 163.27 39.1, 174.9 24.64 M151.06 58.01 C157.8 51.57, 162.74 44.43, 174.28 31.07 M150.72 58.31 C160.08 49.4, 166.03 40.8, 173.41 30.87 M158.19 55.96 C163.52 51.73, 170.42 44.09, 173.67 36.54 M156.69 57.77 C160.81 53.58, 165.66 46.75, 174.47 37.27 M160.4 58.41 C167.01 52.49, 171.01 46.47, 172.44 44.15 M161.64 57.89 C166.07 52.59, 169.97 48.63, 174.37 44.22 M166.4 58.14 C169.35 55.92, 171.55 53.84, 175.03 50.21 M167.13 57.59 C168.59 56.09, 170.77 52.99, 174.04 49.41" stroke="#fab005" stroke-width="0.5" fill="none"></path><path d="M-0.32 1 C46.66 -0.9, 88.95 2.17, 171.11 -0.22 M174.71 0.3 C173.34 10.21, 171.73 21.8, 171.12 55.64 M174.01 55.78 C110.32 54.53, 45.29 53.91, -1.55 53.57 M1.22 55.56 C-1.98 35.07, -0.84 17.33, 1.93 -1.03" stroke="#c92a2a" stroke-width="1.5" fill="none" stroke-dasharray="1.5 7"></path></g><g transform="translate(812.2825603894568 190.3329719679723) rotate(0 81.5 12)"><text x="81.5" y="17" font-family="Virgil, Segoe UI Emoji" font-size="20px" fill="#c92a2a" text-anchor="middle" style="white-space: pre;" direction="ltr">isValidating</text></g><g stroke-linecap="round" transform="translate(522.2825603894568 262.8329719679723) rotate(0 86 35.5)"><path d="M1.18 -1.93 C39.34 0.28, 80.79 -1.08, 170.01 -0.42 M0.23 -0.4 C34.85 -0.37, 69.91 0.07, 172.7 -0.2 M173.25 0.28 C172.51 17.88, 170.81 35.02, 173.2 72.88 M171.27 -0.07 C172.28 19.5, 173.4 36.57, 171.8 70.13 M173.81 71.22 C122.27 71.62, 74.17 69.84, 1.02 71.06 M172.42 71.82 C119.87 71.12, 67.31 70.6, -0.94 71.55 M1.28 72.56 C-0.88 56.84, -0.81 38.3, -0.49 -1.54 M-0.06 70.98 C-0.09 54.77, 0.18 38.77, 0.73 0.44" stroke="#000000" stroke-width="1" fill="none"></path></g><g transform="translate(37.59775602812908 27.616768807389803) rotate(0 55 12.999999999999943)"><text x="0" y="18" font-family="Virgil, Segoe UI Emoji" font-size="20px" fill="#000000" text-anchor="start" style="white-space: pre;" direction="ltr">Key Change</text></g><g stroke-linecap="round"><g transform="translate(480.28256038945676 102.8329719679723) rotate(0 1.8979373496025573 143.73380266614265)"><path d="M0.89 -0.95 C1.35 47.31, 2.5 240.05, 2.9 288.42" stroke="#d9480f" stroke-width="1.5" fill="none" stroke-dasharray="1.5 7"></path></g></g><g transform="translate(427.78256038945676 61.8329719679723) rotate(0 55 13)"><text x="0" y="18" font-family="Virgil, Segoe UI Emoji" font-size="20px" fill="#d9480f" text-anchor="start" style="white-space: pre;" direction="ltr">Key Change</text></g><g transform="translate(563.7825603894568 284.3329719679723) rotate(0 45 13)"><text x="0" y="18" font-family="Virgil, Segoe UI Emoji" font-size="20px" fill="#000000" text-anchor="start" style="white-space: pre;" direction="ltr">undefined</text></g><g stroke-linecap="round" transform="translate(521.7825603894568 173.8329719679723) rotate(0 86.5 28)"><path d="M0 0 C0 0, 0 0, 0 0 M0 0 C0 0, 0 0, 0 0 M0.12 6.35 C1.25 4.91, 3.47 2.62, 5.11 0.91 M-0.29 6.68 C0.89 4.98, 2.1 3.68, 4.78 0.08 M0.72 13 C5.08 8.26, 8.65 3.63, 10.81 1.41 M0.05 12.55 C4.4 7.53, 7.57 2.59, 10.34 0.16 M0.58 20.08 C5.86 14.2, 6.26 8.68, 16.66 1.59 M-0.24 18.5 C3.83 14.19, 7.03 11.17, 16.41 1.1 M0.46 25.91 C4.69 18.52, 12.17 9.31, 20.69 -1.79 M0.69 24.67 C8.32 14.84, 15.68 7.54, 21.51 -0.71 M1.7 32.18 C8.36 18.63, 19.4 8.11, 27.15 0.24 M-0.27 30.56 C8.31 20.65, 16.15 9.67, 26.92 -0.14 M0.79 38.17 C13.27 23.24, 25 9.68, 31.93 0.74 M-1.06 36.66 C13.32 22.78, 24.77 8.52, 32.43 0.07 M-0.21 42.1 C12.17 26.73, 24.88 11.08, 35.52 -0.01 M-0.1 42.91 C8.62 32.17, 17.2 23.45, 36.44 0.53 M-1.49 48.18 C8.22 36.53, 18.38 26.08, 44.44 -1.69 M-0.78 48.06 C16.01 30.12, 32.38 11.97, 41.56 -0.8 M-0.67 56.14 C11.35 42.84, 23 31.72, 48.21 -1.11 M-0.52 54.51 C15.91 36.78, 33.33 16.82, 46.82 0.57 M2.69 57.09 C17.32 40.43, 31.76 21.73, 52.77 0.6 M2.03 58.39 C22.38 34.29, 43.79 12.19, 53.29 -0.31 M6.73 57.07 C20.27 43.4, 31.01 29.23, 57.41 0.79 M6.76 58.4 C20.36 43.59, 32.89 28.08, 58.28 -0.68 M11.38 56.11 C24.68 46.45, 33.54 33.61, 64.21 0.11 M13.52 57.23 C33.83 35.55, 51.73 13.13, 62.93 -0.06 M17.96 59.29 C35.45 38.34, 53.68 16.73, 67.01 1.32 M17.81 57.8 C37 37.12, 56.6 15.31, 68.44 0.94 M25.23 59.28 C38.56 40.89, 56.5 19.93, 72.78 -1.89 M24.14 58.14 C39.58 41.75, 54.49 23.91, 73.66 0.66 M28.38 57.21 C50.04 36.83, 68.37 15.29, 78.63 1.89 M29.21 57.52 C42.01 43.68, 53.61 29.52, 79.31 -0.51 M34.47 57.4 C51.77 37.75, 66.23 19.27, 85.19 -1.36 M34.57 57.48 C50.63 38.21, 69.01 18.55, 85.57 -0.03 M41.33 56.26 C52.65 41.63, 66.19 25.22, 89.6 -0.31 M39.74 57.98 C52.16 42.97, 64.27 28.28, 90.29 -0.13 M45.06 57.02 C58.01 41.85, 72.82 27.24, 94.89 -1.46 M44.91 58.45 C62.3 38.49, 81.17 17.86, 96.62 0.31 M50.89 58.64 C63.07 42.2, 75.55 28.73, 98.97 1.68 M50.06 57.94 C64.81 40.57, 81.55 22.56, 101.17 0.83 M56.68 58.5 C73.83 41.09, 87.76 22.51, 108.04 1.41 M55.63 58.14 C66.17 44.85, 76.93 32.84, 105.67 -0.5 M59.83 57.34 C72.16 46.78, 82.66 34.85, 109.52 -1.37 M61.7 57.54 C79.55 36.41, 97.97 14.07, 111.13 0 M64.07 58.71 C84.56 37.8, 104.6 15.29, 116.86 0.41 M65.95 59.23 C77.08 46.02, 88.51 33.07, 116.82 0.47 M69.67 58.12 C87.63 36.23, 104.74 16.49, 121.74 -0.94 M72.12 57.25 C89.38 39.08, 105.73 19.39, 121.74 0.85 M77.66 58.06 C91.42 41.74, 109.25 22.83, 128.27 1.2 M75.43 57.99 C93.03 38.45, 110.93 18.56, 127.02 1.24 M82.62 57.55 C98.15 37.85, 116.64 16.64, 131.82 -0.7 M81.63 58.94 C98.46 38.86, 115.62 19.61, 131.97 -0.28 M85.62 58.99 C102.53 37.74, 118.1 19.66, 137.92 0.49 M87.08 57.84 C104.53 37.42, 120.38 19.12, 137.16 0.46 M91.64 56.94 C111.35 33.98, 132.36 12.96, 141.71 1.42 M92.46 58.79 C102.29 45.32, 113.91 32.94, 143.16 0.81 M98.52 56.97 C113.35 40.22, 129.25 21.16, 146.86 1.02 M96.92 59.29 C110.54 42.57, 123.48 28.77, 147.64 -0.61 M102.38 56.41 C117.9 37.74, 135.77 21.89, 153.04 -0.67 M103.72 58.38 C117.63 42.16, 131.67 26.87, 154.06 -0.81 M106.6 59.25 C118.84 44.63, 127.66 33.18, 158.83 -1.69 M108.4 57.71 C124.05 40.88, 139.77 22.61, 158.8 -0.36 M115.22 56.85 C132.84 36.87, 149.18 17.78, 165.18 0.66 M114.42 57.63 C133.29 36.92, 152.06 16.23, 163.81 -0.25 M117.88 58.86 C137.06 36.28, 156.17 16.19, 170.32 -1.35 M119.33 58.32 C129.78 45.87, 142.02 32.63, 169.82 0.18 M123.27 57.94 C134.98 43.31, 149.16 31.5, 171.91 2.38 M124.43 57.83 C141.03 38.06, 160.05 17.68, 173.62 1.8 M128.05 56.63 C144.33 39.25, 160.91 23.68, 174.61 7.91 M128.92 59.22 C142.43 42.25, 156.36 28.46, 173.9 7.12 M134.33 56.13 C148.2 43.51, 162.45 23.7, 174.14 14.75 M135.55 58.62 C143.68 48.05, 153.1 37.61, 174.52 14.02 M138.55 59.15 C150.31 50.78, 156.13 38.32, 172.92 18.46 M140.79 58.35 C150.63 45.18, 162.13 32.53, 174.35 19.66 M144.95 58.66 C155.28 48.08, 165.26 37.21, 173.6 24.22 M146.45 56.99 C153.4 49.31, 160 40.16, 174.02 26.35 M150.51 56.79 C155.65 50.06, 160.85 42.93, 171.83 32.4 M149.91 58.52 C156.66 51.51, 162.45 44.95, 172.96 32.32 M158.38 57.55 C160.61 52.16, 167.88 47.39, 172.51 37.58 M155.69 58.33 C160.27 54.22, 163.14 49.05, 174.8 37.12 M162.74 57.74 C163.13 55.07, 166.24 51.31, 172.08 45.56 M161.67 58.38 C165.19 51.96, 170.57 47.24, 173.83 43.97 M166.81 58.78 C170.65 55.75, 171.61 52.14, 173.49 49.42 M166.88 57.54 C169.57 55.91, 170.77 53.18, 174.66 49.53" stroke="#fab005" stroke-width="0.5" fill="none"></path><path d="M-0.9 0.73 C53.79 -0.25, 107.97 0.88, 173.26 -0.62 M172.95 -1.79 C171.78 13.51, 172.53 24.22, 174.68 56.45 M174.37 57.69 C115.75 58.49, 54.86 58.93, 1.7 55.81 M-1.12 57.57 C2.24 42.38, 0.39 33.57, 1.39 0.75" stroke="#c92a2a" stroke-width="1.5" fill="none" stroke-dasharray="1.5 7"></path></g><g transform="translate(526.7825603894568 189.8329719679723) rotate(0 81.5 12)"><text x="81.5" y="17" font-family="Virgil, Segoe UI Emoji" font-size="20px" fill="#c92a2a" text-anchor="middle" style="white-space: pre;" direction="ltr">isValidating</text></g><g stroke-linecap="round" transform="translate(518.7825603894568 101.8329719679723) rotate(0 86.5 21)"><path d="M0 0 C0 0, 0 0, 0 0 M0 0 C0 0, 0 0, 0 0 M-0.8 6.76 C1.09 5.05, 2.67 4.02, 4.77 0.42 M-0.62 6.67 C1.05 5.06, 2.92 2.65, 5.2 0.62 M0.9 12.07 C4.65 9.09, 6.88 3.27, 9.34 -0.38 M0.88 12.47 C4.03 8.12, 7.79 2.99, 10.49 -0.2 M-2.04 17.08 C3.78 12.39, 7.6 8.79, 15.15 1.1 M0 18 C5 12.35, 10.39 8.37, 14.93 -0.05 M1.13 26 C3.64 20.36, 8.88 12.14, 19.95 -1.78 M1.18 23.12 C4.43 17.91, 9.54 13.77, 20.79 0.72 M1.5 31.18 C7 21.55, 17.97 9.43, 24.66 0.19 M-0.26 29.79 C6.76 22.72, 13.52 14.45, 26.28 -0.13 M-1.79 36.49 C9.81 28.41, 18.59 14.24, 30.68 0.79 M0.07 37.02 C8.4 26.26, 17.77 17.31, 31.44 -0.72 M-0.56 41.79 C13.37 27.51, 26.84 12.65, 35.15 0.46 M-0.04 42.66 C10.23 29.26, 22.73 18.09, 35.94 -0.64 M7.14 42.56 C18.21 29.82, 29.56 12.28, 43.03 -1.49 M5.64 41.28 C19.9 26.91, 33.93 11.38, 42.37 0.37 M9.46 40.73 C23.01 31.04, 32.1 14.97, 46.62 -0.72 M11.42 42.16 C20.02 32.81, 28.08 21.67, 48.17 0.93 M15.27 40.46 C22.9 32.22, 32.22 23.25, 53.64 0.37 M16.51 41.34 C30.62 26.84, 43.34 10.1, 52.9 -0.68 M23.08 41.68 C37.12 25.03, 50.6 8.93, 58.8 -1.24 M21.26 42.36 C35.38 26.15, 50.88 9.28, 58.11 -0.03 M27.15 42.21 C38.44 29, 53.75 14.32, 63.87 -0.92 M27.52 42.58 C36.01 31.4, 43.75 22.02, 64.69 -1.18 M31.04 41.99 C40.61 31.48, 51.64 22.76, 69.23 -0.28 M31.46 42.68 C44.72 27.49, 57.54 13.15, 68.72 -0.24 M37.68 41.24 C46.74 31.24, 58.31 17.22, 73.92 1.06 M37.95 42.97 C47.61 30.2, 56.87 20.61, 74.78 0 M42.91 40.7 C56.23 28.99, 66.23 17.11, 79.23 -0.32 M43.37 42.89 C50.64 33.78, 56.91 24.96, 79.84 0.49 M49.56 43.73 C64.22 23.61, 78.64 7.15, 84.74 0.47 M47.96 41.36 C59.59 28.26, 70.47 15.68, 84.57 -0.67 M53.02 40.58 C64.76 28.81, 80.17 12.41, 91.89 -1.1 M52.69 42.19 C65.1 29.57, 76.51 15.38, 89.18 0.2 M59.26 42.54 C69.13 28.31, 80.17 18.11, 96.05 1.17 M59.56 42.5 C70.61 28.65, 82.59 14.76, 94.8 -0.3 M62.46 42.13 C72.47 32.87, 82.62 20.97, 102.09 -1.63 M64.49 42.13 C78.77 26.14, 92.78 9.27, 101.29 -0.15 M71.02 43.28 C79.67 31.64, 90.38 18.12, 104.39 -1.27 M69.62 42.04 C80.41 30.97, 88.43 19.91, 106.6 -0.6 M73.15 41.55 C81.87 33.81, 92.42 22.66, 110.49 1.77 M74.19 41.7 C86.52 28.35, 99.66 14.45, 110.59 0.3 M78.23 43.03 C90.73 31.45, 103.04 19.14, 116.4 -0.77 M80.21 42.26 C93.92 27.87, 107.51 11.53, 115.76 -0.17 M85.74 40.77 C95.94 30.06, 104.08 21.26, 121.52 1.51 M84.58 42.23 C94.16 33.48, 101.62 24.78, 122.35 -0.73 M92.02 41.3 C100.06 31.1, 107.43 22.31, 125.46 2.16 M90.24 42.08 C99.64 31.44, 110.97 18.74, 126.45 -0.45 M97.71 41.44 C103.21 33.14, 112.42 23.4, 133.41 0.73 M96.81 42.47 C108.04 26.16, 120.96 12.86, 131.71 0.39 M99.32 42.61 C110.21 30.34, 121.3 16.24, 137.78 -0.97 M100.49 42.57 C110.06 31.64, 119.75 18.94, 138.19 -0.25 M105.28 42.92 C121.04 28.07, 134.31 9.93, 144.17 -0.73 M107.36 41.55 C120.58 25.99, 134.25 9.72, 142.66 0.19 M111.5 43.43 C120.26 29.11, 132.2 17.87, 149.01 0.28 M111.27 42.93 C121.27 30.16, 131.8 20.12, 147.52 0.28 M117.47 40.29 C127.99 31.76, 136.54 20.76, 153.57 -0.3 M117.12 42 C125.03 33.4, 132.21 24.58, 153.07 -0.95 M121.74 42.96 C134.33 29.54, 144.44 17.33, 157.56 2.11 M122.75 42.25 C132.42 31.66, 141.92 18.99, 158.37 -0.64 M126.08 42.36 C137.29 31.22, 144.49 21.69, 165.18 1.3 M128.29 42.74 C136.81 31.6, 144.01 22.2, 163.63 0.29 M130.97 41.1 C146.31 26.19, 160.71 8.94, 170.66 0.41 M131.96 42.53 C142.64 32.42, 150.95 21.81, 169 0.61 M139.7 41.64 C147.36 29.2, 159.78 16.95, 175.04 -0.4 M137.45 42.07 C151.2 28.2, 162.13 15.41, 173.61 0.61 M141.91 40.5 C151.63 33.32, 157.43 24.71, 172.37 7.57 M143.77 41.63 C152.17 32.72, 159.05 22.45, 175.12 6.83 M149.68 40.39 C155.42 32.74, 160.54 26.8, 172.39 14.38 M148.56 42.68 C156.13 32.51, 164.1 24.98, 174.58 13.13 M153.06 40.49 C160.91 38.19, 165.87 29.72, 174.78 19.44 M153.95 42.33 C158.46 38.23, 163.33 33.06, 174.05 19.91 M160.16 40.55 C165.05 35.23, 172.87 29.39, 173.34 24.5 M159.9 42.67 C165.21 36.1, 170.84 29.38, 175.01 25.26 M164.67 42.91 C167.86 39.88, 168.14 37.09, 174.89 30.9 M164.23 43 C168.45 38.11, 171.92 34.16, 173.27 31.31 M170.18 41.92 C170.56 40.79, 171.28 40.75, 173.68 37.05 M170.5 42.13 C171.48 40.5, 172.99 38.77, 174.42 37.57" stroke="#15aabf" stroke-width="0.5" fill="none"></path><path d="M0.92 0.23 C64.26 0.9, 123.55 0.42, 172.79 1.27 M172.29 -0.74 C173.53 12.95, 171.24 27.1, 173.71 43.64 M172.54 43.04 C107.07 38.4, 40.21 40.62, -0.22 42.12 M0.15 43.58 C1.79 25.27, 0.41 8.55, 0.2 1.83" stroke="#1864ab" stroke-width="1.5" fill="none" stroke-dasharray="1.5 7"></path></g><g transform="translate(523.7825603894568 110.8329719679723) rotate(0 81.5 12)"><text x="81.5" y="17" font-family="Virgil, Segoe UI Emoji" font-size="20px" fill="#1864ab" text-anchor="middle" style="white-space: pre;" direction="ltr">isLoading</text></g><g transform="translate(573.7825603894568 379.8329719679723) rotate(0 38.5 13)"><text x="0" y="18" font-family="Virgil, Segoe UI Emoji" font-size="20px" fill="#862e9c" text-anchor="start" style="white-space: pre;" direction="ltr">fetching</text></g><g stroke-linecap="round" transform="translate(734.2825603894568 258.3329719679723) rotate(0 127 35.5)"><path d="M0.23 0.69 C54.22 3.15, 107.25 2.58, 254.06 0.34 M0.47 0.64 C88.54 1.14, 177.45 1.43, 253.48 0.36 M255.58 0.42 C254.85 18.05, 255.8 41.43, 252.57 72.17 M253.17 -0.08 C253.23 22.61, 253.84 44.98, 254.73 71.97 M255.46 72.37 C155.13 69.27, 56.11 68.63, 1.37 71.71 M254.72 70.58 C170.53 69.85, 86.42 69.63, 0.75 70.7 M-1.25 71.65 C0.97 49.73, 0.04 27.74, 0.71 -0.74 M-0.54 71.41 C0.91 55.63, 0.01 39.57, -0.59 0.29" stroke="#000000" stroke-width="1" fill="none"></path></g><g transform="translate(824.2825603894568 282.3329719679723) rotate(0 41 13)"><text x="0" y="18" font-family="Virgil, Segoe UI Emoji" font-size="20px" fill="#000000" text-anchor="start" style="white-space: pre;" direction="ltr">value(2)</text></g><g stroke-linecap="round"><g transform="translate(799.2825603894568 95.8329719679723) rotate(0 -0.2808792248381451 73.47478565387428)"><path d="M-1.08 -0.43 C-1.12 24.27, 0.54 122.76, 0.52 147.38" stroke="#d9480f" stroke-width="1.5" fill="none" stroke-dasharray="1.5 7"></path></g></g><g transform="translate(738.2825603894568 58.8329719679723) rotate(0 53 13)"><text x="0" y="18" font-family="Virgil, Segoe UI Emoji" font-size="20px" fill="#d9480f" text-anchor="start" style="white-space: pre;" direction="ltr">Revalidate</text></g><g stroke-linecap="round" transform="translate(1012.2825603894568 257.3329719679723) rotate(0 86 35.5)"><path d="M-0.38 -1.86 C52 2.87, 105.77 -0.14, 171.16 1.2 M-0.88 -0.64 C43.2 -2.19, 89.34 -0.52, 172.76 -0.41 M173.26 1.37 C173.09 16.74, 172.03 33.31, 170.73 72.32 M171.53 -0.79 C172.69 26.96, 172.59 55.08, 171.67 71.63 M171.43 71.17 C111.41 70.03, 55.56 68.31, 0.65 70.52 M171.15 71.96 C119.17 71.82, 66.8 71.88, 0.39 70.4 M1.14 69.42 C1.45 55.64, -1.81 37.98, 0 1.9 M0.71 70.73 C1.58 46.4, 0 22.16, -0.39 -0.77" stroke="#000000" stroke-width="1" fill="none"></path></g><g transform="translate(1043.2825603894566 279.3329719679723) rotate(0 62 13)"><text x="0" y="18" font-family="Virgil, Segoe UI Emoji" font-size="20px" fill="#000000" text-anchor="start" style="white-space: pre;" direction="ltr">new value(2)</text></g><g transform="translate(25.480786874861565 292.8329719679723) rotate(0 27.5 13)"><text x="0" y="18" font-family="Virgil, Segoe UI Emoji" font-size="20px" fill="#000000" text-anchor="start" style="white-space: pre;" direction="ltr">data:</text></g><g stroke-linecap="round" transform="translate(10 10) rotate(0 605.4538679180182 209.16706921537502)"><path d="M0.29 -0.63 C388.32 -2.65, 775.09 -3.39, 1210.91 0.49 M1210.83 -0.11 C1213.39 163.63, 1212.63 326.37, 1210.85 418.44 M1211.22 417.89 C917.54 422.9, 623.25 423.54, 0.38 418.26 M-0.48 418.46 C1.71 315.44, 3.1 213.63, 0.88 0.61" stroke="#d9480f" stroke-width="1.5" fill="none" stroke-dasharray="1.5 7"></path></g></svg>