<svg version="1.1" xmlns="http://www.w3.org/2000/svg" viewBox="0 0 1230.9077358360364 438.33413843075004" width="2461.815471672073" height="876.6682768615001">
  <!-- svg-source:excalidraw -->
  
  <defs>
    <style>
      @font-face {
        font-family: "Virgil";
        src: url("https://excalidraw.com/Virgil.woff2");
      }
      @font-face {
        font-family: "Cascadia";
        src: url("https://excalidraw.com/Cascadia.woff2");
      }
    </style>
  </defs>
  <rect x="0" y="0" width="1230.9077358360364" height="438.33413843075004" fill="#ffffff"></rect><g stroke-linecap="round" transform="translate(111.25651500114009 273.67785153838486) rotate(0 86.5 37)"><path d="M1.75 1.87 C55.97 1.97, 112.8 1.57, 174.18 -0.47 M0.86 0.97 C53.71 -0.59, 106.8 -1.53, 173.39 0.31 M171.81 -1.76 C173.7 18.67, 172.84 34.75, 172.9 73.09 M172.46 -0.81 C173.87 26.68, 174.39 53.48, 173.34 74.57 M171.03 74.38 C128 71.53, 84.54 74.96, -0.25 72.08 M172.54 74.15 C111.05 74.87, 50.34 75.02, -0.37 74.79 M-1.02 74.66 C-1.48 57.6, 0.23 45.86, 1.64 -1.23 M-0.51 73.58 C1.34 48.08, 1.12 22.64, -0.59 -0.46" stroke="#000000" stroke-width="1" fill="none"></path></g><g transform="translate(151.2565150011401 295.17785153838486) rotate(0 49 13)"><text x="0" y="18" font-family="Virgil, Segoe UI Emoji" font-size="20px" fill="#000000" text-anchor="start" style="white-space: pre;" direction="ltr">fallback(1)</text></g><g stroke-linecap="round" transform="translate(109.75651500114009 191.67785153838486) rotate(0 86.5 28)"><path d="M0 0 C0 0, 0 0, 0 0 M0 0 C0 0, 0 0, 0 0 M-0.7 5.8 C2.04 4.72, 4.48 1.23, 5.32 -0.4 M-0.01 6.14 C1.49 4.3, 2.65 2.65, 5.25 0.06 M-0.94 12.75 C2.22 7.08, 6.56 4.11, 9.39 -0.01 M0.46 11.28 C3.56 8.32, 6.92 5.03, 10.47 0.74 M-0.57 18.98 C4.86 10.36, 11.89 4.7, 15.35 0.98 M0.1 18.52 C3.68 13.98, 8.84 9.33, 15.41 0.48 M-0.03 22.21 C6.13 17.58, 16 8.83, 19.51 -1.66 M-0.54 23.66 C4.9 19.4, 9.36 12.54, 21.7 -0.23 M1.5 28.98 C8.05 19.7, 15.92 10.3, 27.79 1.48 M0.56 29.95 C8.66 19.75, 15.85 10.45, 25.61 1.02 M1.53 36.38 C8.22 29.98, 13.21 20.97, 31.21 1.12 M-1.1 36.51 C10.91 22.96, 24.7 7.66, 32.35 -0.82 M0.27 41.27 C9.68 29.41, 19.38 19.68, 38.53 0.09 M-0.01 42.48 C9.89 32.36, 18.29 22.46, 36.13 1.13 M0.8 47.42 C11.42 36.55, 20.51 23.71, 41.68 -1.88 M0.74 48.37 C12.74 33.95, 25.96 19.97, 41.84 -0.35 M1.88 54.99 C10.62 43.88, 22.29 33.82, 48.69 -1.29 M0.51 54.91 C17.26 35.71, 31.6 18.42, 47.22 0.62 M1.48 56.37 C12.37 45.54, 21.45 34.83, 53.14 -2.12 M1.88 57.1 C21.41 35.83, 41.66 11.81, 52.5 -0.98 M8.38 59.76 C17.63 45.07, 31.09 33.54, 59.1 -0.96 M8.37 59.1 C26.03 36.11, 44.38 13.31, 58.54 0.13 M14.29 56.24 C31.15 38.19, 46.02 19.42, 62.54 1.74 M13.91 57.6 C23.8 44.17, 35.73 31.23, 64.53 -0.49 M17.41 58.81 C37.35 34.42, 57.99 13.22, 68.31 0.54 M18.53 58.1 C30.74 44.94, 43.5 29.38, 68.11 0.18 M22.53 56.94 C36.94 42.11, 51.14 27.17, 75.54 -2.2 M23.69 57.76 C38.55 41.99, 54.64 23.87, 75.05 0.66 M27.99 57.41 C40.45 45.36, 50.76 32.08, 78.59 -1.53 M29.5 57.55 C43.86 41.69, 58.41 24.85, 79.38 0.13 M33.09 59.1 C48.83 40.54, 65.6 24.46, 84.51 -1.05 M35.33 57.27 C46.23 42.48, 58.74 28.05, 85.07 0.42 M41.1 57.83 C58.09 40.44, 75.53 20.01, 89.94 1.87 M38.99 57.7 C58.08 36.3, 77.74 15.08, 90.17 -0.79 M46.6 57.13 C62.46 35.69, 78.98 15.54, 94.56 0.88 M45.35 57.66 C57.95 44.31, 69 31.85, 96.47 0.06 M50.48 57.11 C61.07 43.5, 76.45 26.7, 102.05 -0.47 M49.56 58.13 C69.47 37, 86.81 14.2, 99.68 -0.48 M55.37 57.21 C74.6 36.16, 95.48 12.91, 105.5 0.03 M55.64 57.33 C75.59 35.07, 95.94 11.6, 107.04 -0.78 M60.57 57.08 C81.86 34.18, 99.73 14.06, 112.37 -1.92 M61.69 58.82 C78.46 38.08, 95.68 16.96, 111.53 0.99 M64.82 60.08 C77.68 46.69, 89.33 32.42, 117.23 0.4 M65.84 59.31 C82.09 40.74, 98.7 20.37, 116.8 -0.33 M72.53 58.36 C83.19 45.75, 90.32 36.45, 122.03 -0.13 M70.73 59.06 C90.56 36.16, 108.78 14.85, 122.69 0.45 M78.01 59.96 C94.03 41.25, 108.45 22.12, 126.29 0.5 M76.94 59.2 C90.09 43.09, 103.17 27.48, 127.62 1.25 M82.24 58.34 C97.21 42.65, 109.15 24.22, 133.89 1.07 M81.95 58.54 C95.42 44.13, 106.86 29.51, 132.57 0.55 M85.8 59.17 C103.87 39.33, 118.68 21.71, 136.01 -0.11 M86.35 58.73 C100.38 43.53, 115.16 27, 138.29 -0.55 M94.31 57.19 C109.31 41.01, 122.81 22.25, 142.55 1.62 M93.48 58.29 C105.46 44.99, 116.96 31.8, 143.93 0.81 M99.38 59 C116.71 34.79, 136.87 11.85, 149.09 2.13 M97.55 57.75 C110.04 45.3, 121.45 31.81, 148.17 -0.66 M104.04 59.86 C114.91 46.57, 126.1 32.35, 152.31 -0.76 M103.35 57.7 C118.6 41.99, 133.77 24.74, 153.93 0.64 M107.67 58.55 C121.5 42.5, 135.53 29.07, 156.93 1.59 M108.37 57.95 C124.78 40.68, 139.4 21.69, 159.49 -0.64 M115.47 58.11 C126.82 42.01, 140.22 30.35, 163.18 -0.57 M114.48 57.53 C126.39 43.37, 138.83 28.33, 165.14 0.26 M119.34 56.71 C138.55 38.83, 154.37 18.37, 169.67 1.43 M118.07 57.89 C131.55 43.25, 146.18 28.27, 170.37 0.32 M123.37 56.43 C141.06 36.08, 160.96 16.85, 175.59 2.99 M123.7 58.89 C138.46 43.19, 151.89 27.77, 173.19 1.3 M128.74 58.12 C141.68 43.38, 156.89 28.09, 172.25 6.34 M130.28 57.98 C143.3 42.11, 157.19 27.08, 173.93 7.16 M135.2 58.14 C150.08 42.24, 163.15 28.18, 175.14 14.03 M134.7 58.24 C146.97 43.16, 160 28.75, 174.53 13.78 M141.96 59.24 C153.45 44.35, 163.86 29.31, 175.55 17.54 M140.02 57.51 C149.9 47.12, 158.14 37.74, 174.39 18.9 M145.16 59.32 C155.94 48.03, 167.12 35.32, 174.17 26.85 M145.08 58.43 C156.71 47.6, 164.59 35.51, 173.1 25.95 M150.79 58.28 C159.67 51.29, 163.44 42.05, 173.8 31.97 M150.71 57.6 C157.51 50.43, 162.73 44.32, 173.48 30.87 M156.15 58.82 C161.99 48.88, 168.66 44.68, 175.59 38.05 M157.33 57.64 C162.69 51.21, 166.21 45.5, 175 37.49 M162.7 57.29 C166.48 53.61, 167.52 52.04, 173.33 42.48 M161.17 58.26 C165.67 53.61, 170.16 47.06, 174.19 43.82 M166.38 56.96 C169.4 55.88, 171.1 53.1, 175.24 49.8 M167.48 58.13 C169.42 55.54, 171.2 52.88, 174.54 49.74" stroke="#fab005" stroke-width="0.5" fill="none"></path><path d="M0.17 1.71 C50.53 -0.31, 99.84 -2.08, 173.2 -0.56 M173.19 1.74 C172.6 21.37, 174.27 43.66, 171.83 55.54 M173.87 56.81 C106.15 53.51, 39.18 53.57, 1.15 57.17 M0.88 56.42 C2.22 43.31, 0.99 29.63, -0.99 1.79" stroke="#c92a2a" stroke-width="1.5" fill="none" stroke-dasharray="1.5 7"></path></g><g transform="translate(114.75651500114009 207.67785153838486) rotate(0 81.5 12)"><text x="81.5" y="17" font-family="Virgil, Segoe UI Emoji" font-size="20px" fill="#c92a2a" text-anchor="middle" style="white-space: pre;" direction="ltr">isValidating</text></g><g stroke-linecap="round" transform="translate(109.75651500114009 119.67785153838486) rotate(0 86.5 21)"><path d="M0 0 C0 0, 0 0, 0 0 M0 0 C0 0, 0 0, 0 0 M-0.01 7.06 C2.18 3.94, 3.6 1.65, 4.96 -0.05 M-0.1 6.07 C0.82 4.69, 2.67 3.01, 5.12 0.45 M-1.24 11.02 C2.2 9.14, 3.99 6.25, 10.8 -0.99 M0.23 12.02 C2.86 9.59, 5.1 6.96, 11.32 -0.65 M-1.37 17.25 C3.17 14.46, 6.75 10.88, 15.08 1.43 M-0.52 18.8 C3.71 15.16, 6.45 10.74, 16.15 -0.32 M-1.45 25.96 C5.86 20.41, 8.19 11.6, 19.72 -0.55 M0.16 24.69 C5.39 17.25, 11.44 11.89, 21.26 -0.78 M-0.05 28.96 C9.49 17.58, 20.88 9.37, 26.75 1.88 M0.36 29.53 C6.38 21.54, 14.27 14.02, 25.27 -0.04 M1.61 37.47 C9.59 24.71, 18.38 15.59, 33.52 1.52 M-1.05 37.14 C11.29 23.99, 21.52 12.12, 31.67 0.11 M-0.45 40.97 C8.05 32.83, 19.84 21.79, 35.66 -0.28 M0.99 42.63 C13.4 28.21, 24.93 14.11, 36.24 0.02 M7.15 41.42 C17.78 26.86, 28.34 13.52, 42.55 1.18 M6.11 41.98 C17.37 30.04, 27.26 16.21, 41.62 -0.72 M10.89 42.76 C19.91 35.27, 26.82 23.41, 48.24 -1.22 M11.46 41.74 C19.31 31.67, 29.42 20.85, 46.53 0.81 M16.28 41.28 C25.29 31.22, 36.45 17.66, 54.88 0.39 M15.83 42.74 C30.08 26.3, 42.49 11.22, 52.39 -0.03 M20.16 41.77 C29.68 34.33, 37.3 23.67, 59.67 1.68 M21.23 42.51 C33.99 25.48, 48.96 10.49, 58.5 0.65 M28.18 42.32 C39.89 27.25, 53.7 11.96, 62.27 0.92 M26.55 41.33 C37.53 29.29, 48.86 17.33, 64.68 0.32 M31.74 41.13 C43.18 30.62, 52.38 18.97, 67.81 -0.18 M31.69 43.36 C39.92 32.94, 47.91 23.34, 68.41 0.2 M37.37 41.31 C47.01 32.11, 56.12 20.63, 74.22 -1.71 M37.22 42.73 C47.55 31.38, 56.06 22.65, 73.55 0.29 M43.75 41.73 C53.06 29.97, 61.23 18.81, 79.27 -0.65 M42.58 42.6 C50.79 32.99, 59.9 22.49, 79.4 -0.49 M47.07 41.79 C57.32 33.31, 64.78 21.76, 83.94 -0.17 M47.68 41.29 C61.67 24.97, 76.36 10.25, 85.46 -1.26 M54.03 44.26 C63.57 32.61, 72.25 21.9, 91.37 -0.75 M53.07 41.37 C62.37 32.51, 69.57 23.34, 90.5 0.97 M59.22 40.09 C69.61 26.77, 80.92 16.34, 94.34 -1.39 M59.63 41.72 C67.64 32.72, 77.32 22.05, 95.27 0.35 M62.12 43.21 C78.84 24.99, 94.28 8.58, 102.14 1.24 M64.68 42.67 C72.72 30.88, 81.89 20.27, 101.63 0.32 M68.49 43.34 C80.21 30.84, 90.44 17.56, 108.08 -0.47 M69.69 42.08 C83.4 26.49, 96.23 11.89, 107.21 -1.32 M75.31 40.82 C82.66 33.03, 94.1 19.33, 112.35 -0.15 M74.36 42.4 C81.86 31.75, 91.4 23.45, 110.6 -0.31 M79.59 44.17 C90.08 31.19, 101.3 18.66, 116.86 2 M79.7 43.55 C87.19 33.33, 95.13 24.26, 115.28 -0.09 M86.57 41.13 C91.23 34.34, 100.85 23.9, 123.45 0.37 M85.42 42.26 C96.36 29.3, 109.16 15.98, 122.12 0.55 M91.94 43.76 C98.84 32.61, 107.23 21.75, 126.09 -1.05 M90.37 42.41 C101.95 27.98, 114.27 16.07, 126.8 0.8 M96.62 43.95 C107.16 27.01, 123.68 12.72, 131.65 0.88 M96.57 42.85 C104.25 32.41, 114.07 21.69, 132.79 0.71 M101.7 42.3 C111.18 30.99, 121.12 17.18, 136.9 -0.66 M100.33 43.55 C114.95 27.42, 128.03 11.46, 137.54 0.25 M107.88 42.87 C118.84 26.8, 131.39 14.21, 141.86 -1.74 M106.93 42.62 C116.36 31.31, 127.08 19.7, 144.09 -0.62 M110.41 42.05 C124.04 26.09, 139.22 12.96, 146.82 -0.81 M111.75 42.48 C118.91 34.17, 126.39 24.68, 147.29 1.24 M118.5 43.28 C131.3 26.69, 140.44 12.36, 153.71 -1.87 M116.97 42.88 C125.21 33.66, 133.19 24.57, 153.4 0.11 M122.32 42.01 C136.59 28.42, 146.73 13.45, 159.09 0.29 M122.69 43.06 C132 30.27, 143.97 17.32, 158.26 0.63 M128.35 40.34 C138.71 31.76, 145.64 19.2, 163.54 0.92 M127.59 42.79 C141.02 26.48, 156.41 10.18, 164.98 -0.2 M134.41 43.98 C146.31 28.22, 160.98 11.62, 168.66 0.18 M132.1 42.51 C144.13 31.07, 154.55 19.09, 170.04 0.13 M137.01 40.97 C152.05 27.89, 165.77 14.83, 173.12 1.36 M139.05 42.37 C149.17 30.81, 157.2 19.75, 173.68 1.23 M142.36 42.55 C154.02 31.54, 160.25 20.34, 174.31 5.02 M142.83 42.41 C154.27 29.99, 165.95 16.13, 174.69 6.12 M149.77 41.92 C155.01 36.83, 161.97 29.14, 174.36 12.47 M148.03 41.53 C155.01 34.15, 162.4 27.81, 174.67 14.08 M154.6 43.08 C156.37 37.63, 163.99 30.5, 173.75 20.42 M154.62 41.7 C157.85 38.28, 162.65 32.59, 174.9 19.51 M159.67 43.66 C163.7 39.15, 165.8 36.44, 174.94 24.48 M160.59 42.98 C163.22 36.98, 167.57 32.37, 174.09 24.78 M165.75 43.31 C166.91 38.53, 171.51 34.54, 173.25 31.07 M164.94 41.88 C167.66 38.74, 170.98 34.19, 174.18 31.99 M169.99 41.53 C171.54 40.77, 173.58 38.77, 174.14 37.28 M170.5 41.78 C171.01 40.66, 172.58 39.52, 174.03 37.51" stroke="#15aabf" stroke-width="0.5" fill="none"></path><path d="M1.2 1.31 C69.25 -1.94, 136.35 -2.04, 174.69 1.73 M172.12 -0.15 C173.82 17.31, 171.87 32.92, 174.73 40.81 M173.01 41.03 C136.22 41.79, 100.81 43.87, -1.09 40.92 M1.92 43.07 C0.5 33.93, -1.17 25.36, -0.61 -1.97" stroke="#1864ab" stroke-width="1.5" fill="none" stroke-dasharray="1.5 7"></path></g><g transform="translate(114.75651500114009 128.67785153838486) rotate(0 81.5 12)"><text x="81.5" y="17" font-family="Virgil, Segoe UI Emoji" font-size="20px" fill="#1864ab" text-anchor="middle" style="white-space: pre;" direction="ltr">isLoading</text></g><g stroke-linecap="round"><g transform="translate(115.25651500114009 382.67785153838486) rotate(0 82.25404928140341 1.4128626246003932)"><path d="M0.79 0.71 C27.9 0.94, 136.57 1.74, 163.72 2.12" stroke="#862e9c" stroke-width="1.5" fill="none" stroke-dasharray="1.5 7"></path></g><g transform="translate(115.25651500114009 382.67785153838486) rotate(0 82.25404928140341 1.4128626246003932)"><path d="M136.6 11.63 C146.47 7.5, 158.87 5.94, 165.67 2.31" stroke="#862e9c" stroke-width="1.5" fill="none" stroke-dasharray="1.5 5"></path></g><g transform="translate(115.25651500114009 382.67785153838486) rotate(0 82.25404928140341 1.4128626246003932)"><path d="M136.81 -8.89 C146.72 -5.11, 159.04 1.25, 165.67 2.31" stroke="#862e9c" stroke-width="1.5" fill="none" stroke-dasharray="1.5 5"></path></g></g><g transform="translate(148.2565150011401 396.67785153838486) rotate(0 38.5 13)"><text x="0" y="18" font-family="Virgil, Segoe UI Emoji" font-size="20px" fill="#862e9c" text-anchor="start" style="white-space: pre;" direction="ltr">fetching</text></g><g stroke-linecap="round" transform="translate(316.7565150011401 272.67785153838486) rotate(0 86.5 36.5)"><path d="M0.2 -0.56 C64.94 2.13, 128.45 0.59, 174.74 -0.88 M-0.59 -0.23 C51.47 -1.13, 100.34 -0.1, 173.4 0 M174.15 1.17 C171.88 17.29, 171.35 37.63, 173.42 74.92 M172.51 0.89 C172.94 24.82, 173.44 50.78, 172.03 72.11 M174.12 74.11 C108.46 70.43, 43.73 70.6, 1.3 74 M172.01 73.53 C108.02 73.86, 41.64 73.82, -0.75 73.31 M0.83 71.1 C-0.66 43.99, -1.44 18.31, -1.29 0.83 M0.67 72.24 C0.75 57.23, -0.18 40.37, 0.45 -0.86" stroke="#000000" stroke-width="1" fill="none"></path></g><g transform="translate(368.2565150011401 295.17785153838486) rotate(0 36.5 13)"><text x="0" y="18" font-family="Virgil, Segoe UI Emoji" font-size="20px" fill="#000000" text-anchor="start" style="white-space: pre;" direction="ltr">value(1)</text></g><g stroke-linecap="round"><g transform="translate(541.2565150011401 370.67785153838486) rotate(0 84.34969835691152 2.089386476948903)"><path d="M-0.34 1.01 C27.88 1.52, 140.96 2.83, 169.04 3.17" stroke="#862e9c" stroke-width="1.5" fill="none" stroke-dasharray="1.5 7"></path></g><g transform="translate(541.2565150011401 370.67785153838486) rotate(0 84.34969835691152 2.089386476948903)"><path d="M142.41 14.82 C150.5 10.61, 158.13 6.8, 168.89 3.95" stroke="#862e9c" stroke-width="1.5" fill="none" stroke-dasharray="1.5 5"></path></g><g transform="translate(541.2565150011401 370.67785153838486) rotate(0 84.34969835691152 2.089386476948903)"><path d="M142.66 -5.7 C150.69 -4.23, 158.26 -2.36, 168.89 3.95" stroke="#862e9c" stroke-width="1.5" fill="none" stroke-dasharray="1.5 5"></path></g></g><g stroke-linecap="round" transform="translate(823.7565150011403 185.67785153838486) rotate(0 86.5 27.5)"><path d="M0 0 C0 0, 0 0, 0 0 M0 0 C0 0, 0 0, 0 0 M-0.67 6.06 C2.1 3.82, 3.71 1.63, 4.52 0 M-0.18 6.15 C1.44 4.35, 3.29 1.7, 4.86 0.37 M-0.82 11.18 C3.11 7.81, 4.99 6.61, 11.01 0.82 M-0.49 11.45 C2.78 8.78, 5.41 4.71, 10.51 0.03 M0.98 16.77 C4.79 13.45, 8.06 8.82, 16.55 1.65 M-0.78 17.73 C4.1 12.36, 7.78 9.17, 15.99 1.16 M-0.22 23.1 C3.31 18.25, 9.18 15.18, 20.59 -1.79 M-0.45 24.81 C8.27 15.03, 14.71 6.72, 21.23 -0.99 M1.59 30.22 C10.83 17.96, 20.35 5.74, 24.28 -0.55 M-0.32 30.53 C6.89 23.34, 13.14 16.74, 26.43 -0.18 M1.37 37.41 C6.39 26.03, 15.05 17.46, 33.36 -1.95 M-0.04 36.34 C11.21 23.51, 21.99 10.55, 31.34 0.13 M-0.4 43.45 C13.94 26.48, 30.02 10.61, 37.81 0.9 M-0.1 42.73 C8.52 32.48, 17.02 23.34, 37.08 -0.73 M1.19 49.05 C13.03 35.16, 22.98 23.3, 43.9 1.2 M-0.71 47.99 C10.69 38.12, 19.86 26.64, 43.46 0.67 M-1.17 53.74 C18.14 35.56, 36 13.86, 45.75 0.74 M0.86 54.26 C12.31 39.48, 25.65 25.1, 46.88 0.34 M3.2 59.13 C16.83 38.4, 32.31 23.97, 53.43 -1.98 M2.78 56.99 C15.32 45.43, 26.17 30.73, 53.6 0.24 M9.77 59.03 C27.46 38.8, 42.99 17.34, 56.47 -1.54 M8.74 58.37 C25.77 37.03, 42.78 18.5, 57.64 0.72 M14.39 57.71 C26.02 43.84, 35.77 29.16, 63.97 -1.41 M13.79 57.71 C31.94 35.95, 51.15 13.25, 64.11 -0.12 M18.57 56.04 C33.16 41.52, 45.74 27.86, 68.13 0.24 M18.96 56.83 C29.91 43.77, 42.13 30.42, 69.03 0.01 M22.43 56.68 C42.06 36.99, 59.57 17.91, 76.33 -1.29 M24.43 57.48 C41.32 36.73, 60.71 15.65, 74.72 -1.01 M28.77 56.25 C44.2 41.25, 55.75 28.15, 78.67 0.99 M28.93 56.75 C43.7 40.98, 58.69 23.13, 79.58 0.7 M34.63 59.56 C50.18 41.08, 61.12 24.93, 84.08 -2.09 M33.54 57.47 C50.22 39.83, 65.1 23.37, 85.5 0.4 M39.33 55.78 C53.34 39.16, 68.68 21.25, 91.82 -1.64 M41.05 57.63 C57.05 38.86, 72.14 20.25, 89.67 -0.84 M44.08 56.61 C57.55 43.64, 70.9 29.25, 95.58 1.43 M45.81 58.75 C64.32 35.38, 82.47 14.26, 95.91 -0.72 M51.99 56.5 C68.21 35.77, 89.34 15.35, 99.06 -1.32 M51.07 57.35 C60.99 45.04, 70.75 34.42, 100.54 0.67 M55.66 58.81 C68.53 41.33, 82.21 27.39, 107.99 -1.77 M54.81 57.28 C74.85 35.03, 94.24 13.07, 105.73 0.24 M61.26 56 C81.46 38.19, 96.9 16.74, 109.7 -0.98 M61.11 57.18 C76.54 39.94, 93.18 21.34, 111.3 0.36 M68.04 55.84 C83.9 39.3, 101.39 19.54, 116.56 -0.27 M65.95 56.88 C84.96 38.14, 102.67 17.24, 115.47 0.99 M72.45 57.58 C85.98 41.38, 103.02 21.96, 120.78 1.18 M72.62 56.79 C91.42 36.34, 110.32 14.51, 121.92 0.31 M75.65 58.13 C91.52 43.95, 104.26 26.63, 127.31 -1.18 M77.51 58.31 C95.13 36.6, 113.93 16.05, 125.96 0.41 M83.63 56.26 C100.51 37.43, 120.52 16.68, 131.17 1.65 M83.45 57.24 C96.79 40.24, 112.91 22.41, 132.21 0.43 M86.71 58.79 C97.63 45.61, 109.19 34.1, 139.07 0.38 M87.61 58.19 C107.71 35.7, 126.34 14.93, 137.43 0 M91.66 56.78 C107.86 42.72, 120.6 27.66, 143.48 1.66 M92.79 57.98 C112.35 35.63, 129.66 13.59, 142.86 -0.43 M97.23 55.69 C114.83 36.83, 132.95 18.13, 148.12 0.23 M99.27 58.04 C114.19 41.77, 129.51 24.18, 149.1 -0.08 M102.2 55.6 C115.46 43.78, 126.37 32.93, 154.12 1.15 M104.18 57.83 C118.77 39.63, 134.77 21.38, 154.41 0.45 M108.98 57.38 C119.05 44.85, 130.44 34.9, 157.51 -0.06 M109.33 57.25 C128.62 36.76, 146.57 14.63, 159.58 0.7 M115.66 58.89 C127.64 42.98, 138.11 31.59, 163.29 0.78 M114.53 58.03 C133 34.9, 152.1 15.24, 164.26 0.66 M119.54 57.16 C133.11 38.98, 149.19 21.99, 171.05 0.76 M119.5 58.14 C138.57 33.89, 158.17 11.46, 169.82 0.27 M124.59 57.31 C141.66 37.83, 164.09 14.32, 175.65 1.46 M124.46 57.95 C136.11 44.13, 147.99 30.52, 174.36 1.23 M128.25 59.02 C140.85 46.52, 147.42 36.69, 173.47 8.48 M129.35 56.89 C142.32 43.36, 154.94 29.11, 174.24 7.76 M134.3 56.96 C148.1 42.38, 161.24 24.5, 173.06 12.32 M135.9 57.09 C150 41.85, 163.54 25.46, 172.96 13.61 M142.24 55.7 C152.97 42.12, 166.79 28.2, 173.46 20.31 M141.33 56.57 C150.93 46.06, 161.69 34.21, 174.81 19.35 M144.89 57.93 C152.79 48.9, 164.92 39.73, 172.26 25.62 M145.19 58.61 C151.49 51.13, 158.19 45.03, 173.22 25.5 M150.41 58.64 C157.98 48.58, 165.94 40.68, 173.13 32.13 M151.72 58.17 C157.61 50.85, 163.43 42.64, 173.51 32.64 M155.91 57.28 C164.74 49.88, 171.43 41.44, 172.56 36.9 M156.68 57.29 C163.9 49.6, 171.02 41.75, 173.98 38.09 M161.53 56.13 C164.88 53.82, 167.78 51.22, 172.87 42.72 M161.72 57.52 C165.43 52.29, 170.21 48.73, 174.03 43.62 M167.42 58.87 C170.66 55.28, 173.43 51.57, 174.71 48.89 M167.06 57.53 C169.26 55.47, 172.03 51.98, 174.1 50" stroke="#fab005" stroke-width="0.5" fill="none"></path><path d="M1.73 1.95 C53.81 0.29, 106.36 -1.61, 173.78 0.62 M171.81 -1.76 C173.74 14.08, 172.88 25.58, 172.9 54.09 M171.92 53.39 C111.99 54.48, 51.15 55.13, 0.68 56.15 M-1.97 55.38 C-2.15 39.29, -2.27 28.93, -0.25 -1.92" stroke="#c92a2a" stroke-width="1.5" fill="none" stroke-dasharray="1.5 7"></path></g><g transform="translate(828.7565150011403 201.17785153838486) rotate(0 81.5 12)"><text x="81.5" y="17" font-family="Virgil, Segoe UI Emoji" font-size="20px" fill="#c92a2a" text-anchor="middle" style="white-space: pre;" direction="ltr">isValidating</text></g><g stroke-linecap="round" transform="translate(538.7565150011401 273.67785153838486) rotate(0 86 35.5)"><path d="M0.19 1.74 C65.21 -1.82, 132.97 -1.05, 170.83 -0.46 M0.43 0.4 C66.48 1.03, 132.9 1.06, 172.58 0.58 M172.88 0.42 C173.54 18.51, 172.3 36.03, 171.01 72.79 M171.17 -0.97 C170.41 19.86, 171.17 37.28, 172.56 71.55 M171.26 72.3 C119.26 72.88, 63.79 72.85, -1.97 72.06 M171.46 70.25 C105.92 72.4, 40.04 70.96, 0.42 70.05 M1.28 69.71 C1.19 48.3, -0.81 27.94, 1.33 -1.53 M-0.67 71.45 C-1.01 46.78, -0.47 23.86, -0.78 0.01" stroke="#000000" stroke-width="1" fill="none"></path></g><g transform="translate(25.870032170843274 30.547218731815065) rotate(0 110.5 13)"><text x="0" y="18" font-family="Virgil, Segoe UI Emoji" font-size="20px" fill="#000000" text-anchor="start" style="white-space: pre;" direction="ltr">Key Change + Fallback</text></g><g stroke-linecap="round"><g transform="translate(496.7565150011401 113.67785153838486) rotate(0 1.9781249899417617 144.47138947658254)"><path d="M1.05 -0.53 C1.34 47.7, 2.52 241.33, 2.91 289.47" stroke="#d9480f" stroke-width="1.5" fill="none" stroke-dasharray="1.5 7"></path></g></g><g transform="translate(444.2565150011401 72.67785153838486) rotate(0 55 13)"><text x="0" y="18" font-family="Virgil, Segoe UI Emoji" font-size="20px" fill="#d9480f" text-anchor="start" style="white-space: pre;" direction="ltr">Key Change</text></g><g transform="translate(580.2565150011401 295.17785153838486) rotate(0 53.5 13)"><text x="0" y="18" font-family="Virgil, Segoe UI Emoji" font-size="20px" fill="#000000" text-anchor="start" style="white-space: pre;" direction="ltr">fallback(2)</text></g><g stroke-linecap="round" transform="translate(538.2565150011401 184.67785153838486) rotate(0 86.5 28)"><path d="M0 0 C0 0, 0 0, 0 0 M0 0 C0 0, 0 0, 0 0 M-0.63 6.93 C0.97 4.62, 3.54 1.82, 4.45 0.72 M-0.25 6.09 C0.91 5.16, 1.79 3.61, 5.15 -0.02 M0.99 11.73 C4.95 9.64, 5.44 3.3, 10.28 0.4 M0.19 11.94 C2.97 8.97, 5.65 5.64, 10.81 0.03 M1.19 18.03 C4.23 14.7, 6.73 7.5, 15.32 -1.55 M0.71 17.57 C2.28 13.73, 6.21 10.13, 14.81 -0.1 M-1.45 24.96 C5.88 17.17, 10.84 11.63, 22.75 -1.57 M-0.66 24.85 C7.29 17.16, 13.72 9.6, 21.81 -0.6 M-0.84 29.21 C10.56 18.64, 17.27 10.56, 28.04 -0.21 M-0.47 30.14 C10.85 19.37, 21.37 6.95, 25.41 -0.08 M-2.1 37.81 C5.32 28.03, 14.28 19.22, 32.02 -1.35 M-0.02 37.71 C8.65 26.44, 17.17 17.5, 31.74 -0.15 M0.78 41.03 C16 24.77, 27.95 10.18, 37.8 -1.24 M-0.85 42.1 C12.96 26.89, 28.02 11.36, 37.74 -0.29 M1.21 47.57 C13.73 30.48, 27.18 14.09, 44.12 0.29 M0.68 49.51 C12.12 33.86, 25.21 18.05, 42.76 0.21 M0.79 53.99 C18.89 32.98, 36.69 14.29, 46.36 -1.35 M0.39 54.56 C13.38 39.78, 28.49 23.57, 46.75 -0.62 M0.82 56.63 C12.85 42.33, 26.93 27.92, 53.91 1.29 M3.05 58.42 C14.28 44.65, 27.63 30.79, 53.9 0.63 M5.89 59.1 C21.78 43, 37.12 27.46, 59.17 -1.48 M8.15 57.68 C26.56 37.04, 44.19 16.95, 58.79 -0.12 M12.06 59.4 C25.79 45.08, 40.08 28.32, 62.94 0.34 M13.35 57.68 C28.26 40.67, 42.32 23.82, 64.06 -0.38 M18.34 56.96 C31.17 42.28, 44.65 26.18, 67.41 -0.77 M18.11 58.83 C31.88 41.47, 46.54 24.39, 68.56 0.04 M22.85 59.16 C38.18 40.83, 50.34 26.95, 73.51 -1.06 M23.13 57.47 C41.18 37.04, 59.53 15.88, 75.03 -0.92 M29.76 58.2 C43.54 41.43, 57.08 22.99, 77.97 1.39 M29.46 57.97 C40.61 43.72, 53.1 31.27, 80.21 -0.45 M32.71 57.9 C48.31 45.12, 56.94 29.77, 86.63 -0.64 M35.2 57.79 C51.88 38.69, 67.6 17.6, 84.52 -0.78 M37.79 58.48 C52.37 42.54, 69.92 25.82, 91.47 -0.59 M38.59 57.64 C56.54 39.43, 71.3 21.21, 90.22 -0.06 M46.9 59.41 C64.69 35.54, 83.94 16.79, 96.01 -1.36 M44.75 58.5 C55.26 46.2, 66.74 32.79, 95.09 -0.34 M48.77 56.21 C67.88 38.62, 88.52 14.69, 100.25 -0.51 M50.76 57.76 C62.36 44.79, 74.56 30.11, 100.51 -0.38 M54.36 59.25 C70.61 41.01, 85.32 20.04, 106.1 -1.39 M56.37 58.31 C72.31 38.94, 90.27 18.09, 107.22 0.34 M59.78 58.6 C76.86 40.82, 88.46 25.47, 110.35 1.6 M61.12 58.6 C75.63 40.82, 91.72 21.99, 111.37 0.84 M65.11 59.54 C79.81 38.03, 96.29 19.93, 117.4 0.64 M66.38 58.54 C84.7 38.18, 103.62 16.06, 115.61 1.34 M72.6 59.64 C88.7 39.96, 105.26 19.62, 123.54 1.49 M71.73 57.79 C90.78 35.09, 109.64 13.13, 122.47 0.73 M74.87 59.87 C94.53 39.5, 109.84 22.29, 127.12 0.62 M76.46 59.13 C93.65 38.69, 110.76 18.83, 126.82 0.82 M83.73 58.1 C101.87 37.02, 121.23 14.53, 131.33 0.69 M82.52 57.3 C99.34 37.85, 116.51 18.67, 131.88 0.26 M87.09 59.93 C97.55 43.3, 111.95 29.61, 139.18 -0.53 M86.71 58.11 C106.47 36.19, 123.59 14.97, 138.35 0.57 M94.41 59.52 C111.82 39.52, 126.57 18.84, 144.9 0.52 M92.32 58.49 C106.32 43.03, 117.43 28.26, 143.08 -0.72 M97.61 58.39 C112.6 37.35, 133.17 20.6, 148.91 2.15 M97.29 57.63 C115.78 36.26, 134 13.88, 148.22 -0.01 M104.56 58.23 C119.03 40.25, 132.61 25.41, 153.2 0.08 M103.86 57.06 C119.93 39.63, 135.09 21.19, 153.9 -0.52 M107.98 59.73 C124.54 36.52, 145.4 15.81, 160.35 0.39 M108.74 57.72 C125.39 38.17, 142.94 20.13, 159.36 -0.19 M114.86 59.36 C128.95 42.56, 142.6 26.36, 164.87 -1.77 M114.74 58.08 C133.59 35.23, 152.46 12.98, 163.6 -0.58 M119.46 60.2 C131.31 45.12, 143.12 31.03, 168.24 -1.28 M118.98 59.23 C131.88 44.2, 142.88 30.62, 168.57 1.17 M124.69 56.78 C142.68 36.23, 160.84 15.37, 172.96 1.16 M124.47 56.97 C136.62 43.42, 148.37 29.81, 174.5 1.02 M131.06 57.84 C141.18 46.6, 150.32 31.33, 174.17 7.22 M130.33 58.9 C145.11 40.99, 159.53 22.81, 173.67 7.32 M134.14 59.18 C144.28 50.38, 152.92 37.98, 175.68 14.35 M135.43 58.52 C147.17 43.17, 161.49 27.73, 173.74 12.62 M141.48 58.46 C152.78 45.2, 166.55 27.69, 173.63 20.47 M140.52 58.32 C150.94 46.59, 160.13 34.24, 173.55 19.58 M146.03 56.01 C157.87 45.25, 166.82 33.67, 174.02 25.47 M145.91 57.87 C156.5 45.27, 166.71 33.77, 173.93 24.79 M151.14 57.65 C157.22 50.2, 167.68 41.1, 173.47 32.8 M151.64 58.93 C157.29 51.34, 162.72 44.21, 174.65 31.62 M155.9 59.5 C163.64 49.12, 170.99 40.86, 175.49 36.51 M157.09 57.52 C162.87 50.45, 170.31 40.93, 173.88 37.52 M160.25 58.76 C164.49 53.91, 166.95 51.1, 172.7 42.41 M161.19 59 C165.84 53.11, 170.03 49.51, 174.6 44.44 M166.49 58.28 C170.26 53.65, 172.43 51.05, 173.77 50.46 M167.59 58.09 C168.94 55.68, 171.78 53.12, 174.56 49.04" stroke="#fab005" stroke-width="0.5" fill="none"></path><path d="M0.62 -1.17 C43.84 1.05, 87.4 -2.44, 173.87 0.81 M172.09 1.15 C173.9 15.74, 171.65 32.04, 173.88 56.42 M174.15 55.01 C106.27 55.98, 33.99 56.97, -1.66 54.06 M-1.92 57.12 C0.69 44.42, -1.33 32.66, -0.74 1.3" stroke="#c92a2a" stroke-width="1.5" fill="none" stroke-dasharray="1.5 7"></path></g><g transform="translate(543.2565150011401 200.67785153838486) rotate(0 81.5 12)"><text x="81.5" y="17" font-family="Virgil, Segoe UI Emoji" font-size="20px" fill="#c92a2a" text-anchor="middle" style="white-space: pre;" direction="ltr">isValidating</text></g><g stroke-linecap="round" transform="translate(535.2565150011401 112.67785153838486) rotate(0 86.5 21)"><path d="M0 0 C0 0, 0 0, 0 0 M0 0 C0 0, 0 0, 0 0 M-0.87 6.65 C1.2 4.42, 1.76 3.8, 4.3 -0.15 M-0.26 6.44 C0.9 4.61, 2.71 2.82, 5.03 0.35 M1.68 13.43 C2.23 6.96, 6.52 4.67, 9.64 -0.98 M0.39 11.83 C3.56 7.94, 6.3 5.23, 10.32 0.26 M0.19 19.51 C3.92 10.78, 10.38 4.04, 13.9 2.2 M-0.93 17.67 C4.79 11.98, 9.53 5.94, 15.51 0.93 M-0.05 24.09 C4.64 19.01, 13.15 9.63, 21.2 -1.59 M0.86 24.33 C7.51 16.62, 13.5 9.06, 21.62 -1.02 M1.45 28.52 C4.76 24.67, 12.5 17.98, 28.11 0.89 M0.62 31.29 C9.31 21.23, 16 10.99, 25.46 0.56 M-1.68 36.44 C12.53 21.83, 24.24 7.84, 31.3 -1.66 M-0.34 36.27 C7.26 28.02, 15.25 18.46, 32.75 0.01 M1.89 41.24 C12.27 28.56, 26.41 11.99, 38.25 -0.45 M-0.73 42.54 C12.96 29.22, 24.92 15.1, 37.21 0.11 M5.36 40.32 C17.88 24.92, 34.21 11.62, 42.65 0.14 M5.03 42.49 C19.2 24.84, 34.64 8.94, 43.21 -0.88 M11.56 40.53 C19.63 33.01, 25.1 23.08, 47.37 -0.59 M9.8 43.35 C19.71 33.07, 27.38 21.61, 46.92 0.87 M14.81 40.58 C28.62 27.17, 40.62 17.25, 51.91 -0.85 M15.84 42.86 C29.65 28.08, 42.32 13.57, 52.98 -0.12 M21.28 43.19 C30.65 34.8, 38.72 22.32, 59.28 0.45 M22.37 41.7 C30.94 32, 40.22 21.21, 57.65 -0.54 M26.47 43.85 C39.72 28.31, 49.21 16.16, 63.49 -1.5 M27.24 41.58 C39.07 27.34, 51.74 13.83, 63.44 0.74 M32.07 41.71 C41.97 29.95, 50.36 19.05, 68.47 -0.56 M31.05 42.32 C43.36 27.81, 55.88 14.49, 68.32 0.86 M39.48 40.29 C53.51 24.27, 66.09 7.5, 75.5 -0.9 M36.85 41.96 C49.76 27.58, 62.92 13.53, 74.33 -0.03 M42.67 42.39 C50.95 29.78, 60.43 21.35, 78.17 -0.08 M42.27 41.83 C54.16 29.89, 66.61 15, 78.77 -0.58 M49.69 42.82 C55.97 30.61, 68.78 20.31, 85.78 1.64 M49.19 42.66 C60.32 26.54, 72.94 12.23, 84.82 -1.26 M51.54 43.29 C69.73 26.21, 83.71 8.7, 90.32 -1.77 M53.88 41.68 C62.84 30.79, 73.28 20.08, 90.72 -0.15 M59.66 41.14 C70.74 31.07, 80.63 15.61, 93.88 0.59 M58.67 42.7 C71.59 27.56, 82.3 14.31, 96.44 0.05 M62.85 44.25 C72.85 33.24, 79.98 23.5, 99.58 1.47 M64.11 43.2 C74.19 30.79, 84.71 17.65, 100.78 0.21 M68.69 43.75 C82.04 24.42, 97.9 8.12, 107.06 -1.8 M68.59 42.45 C78.15 30.77, 88.07 21.89, 106.11 -0.23 M76.5 40.9 C82.21 32.49, 90.02 25.15, 111.34 1.55 M74.56 42.57 C86.3 28.41, 96.65 17.43, 111.45 0.93 M78.12 40.65 C90.28 27.48, 103.87 16.17, 117.67 -0.74 M79.48 43.41 C87.54 33.46, 94.74 25.03, 116.52 0.39 M86.11 42.66 C94.99 30.59, 104.42 22.91, 123.69 1.13 M85.26 41.84 C95.37 29.89, 107.65 17.73, 122.13 -0.22 M91.99 42.4 C103.17 30.04, 114.22 15.56, 127.72 2.08 M90.73 42.16 C98.17 33.14, 105.18 25.45, 127.67 0.98 M97.01 42.7 C105.47 32.32, 111.2 23.43, 133.45 -0.32 M95.6 41.89 C104.91 31.8, 114.51 20.29, 132.08 0.93 M99.08 42.57 C114.51 27.42, 130.12 9.59, 138.98 1.01 M101.65 41.91 C110.72 30.21, 122.99 18.5, 138.02 0.75 M108.24 44 C116.59 30, 130.94 15.89, 142.16 -0.58 M107.37 41.5 C115.9 29.69, 126.2 18.69, 143.5 -0.14 M109.56 40.79 C124.31 30.75, 134.07 19.22, 149.6 1.42 M111.11 42.49 C125.16 25.36, 140.56 9.25, 148.06 1.01 M118.59 41.32 C128.86 29.94, 139.4 15.61, 154.07 -0.62 M117.75 42.29 C130.09 27.15, 143.4 11.62, 154.44 0.43 M120.31 41.44 C131.56 31.61, 140.98 22.49, 159.45 -1.53 M121.85 42.05 C136.31 27.58, 150.24 10.31, 158.68 0.92 M128.54 43.19 C136.33 33.25, 145.77 19.72, 166.16 1.36 M128.31 41.72 C137.72 29.92, 147.27 17.75, 163.85 -0.12 M132.92 43.7 C146.44 27.16, 159.4 8.4, 168.1 -0.89 M133.52 42.15 C145.16 27.46, 156.77 14.38, 170.15 0.51 M138.3 41.92 C152.1 26.26, 165.46 9.96, 172.8 1.44 M138.02 42.15 C150.18 28.45, 164.67 12.7, 173.27 1.29 M143.72 43.52 C149.56 31.79, 159.45 23.91, 174.97 6.84 M143.65 42.67 C152.11 30.83, 161.58 20.71, 173.23 6.45 M149.8 43.61 C157 32.87, 163.8 28.03, 174.54 14.04 M148.23 41.77 C154.76 35.04, 159.08 29.25, 174.57 12.66 M153.74 43.64 C160.07 34.49, 163.65 31.74, 174.37 20.66 M154.67 42.85 C160.57 34.18, 167.48 26.46, 175.28 19.98 M160.68 42.13 C161.4 40.14, 165.68 35.16, 175.69 26.75 M159.68 41.64 C162.23 38.94, 165.83 34.09, 174.54 24.72 M163.28 43.21 C167.4 40.55, 169.29 37.42, 173.22 30.77 M164.79 42.34 C166.83 39.2, 170.16 36.36, 174.42 31.37 M170.25 41.72 C171.24 40.62, 172.37 39.66, 174.74 37.15 M170 42.18 C171.21 40.49, 172.33 39.45, 174.02 37.64" stroke="#15aabf" stroke-width="0.5" fill="none"></path><path d="M-0.46 1.73 C57.49 -0.75, 118.23 1.82, 173.01 -0.97 M174.17 -1.09 C171.73 10.77, 173.69 25.19, 174.92 43.07 M174.79 41.39 C113.21 41.52, 55.7 39.21, -1.78 43.49 M1.11 42.25 C-0.51 30.24, -0.34 19.16, 1 1.61" stroke="#1864ab" stroke-width="1.5" fill="none" stroke-dasharray="1.5 7"></path></g><g transform="translate(540.2565150011401 121.67785153838486) rotate(0 81.5 12)"><text x="81.5" y="17" font-family="Virgil, Segoe UI Emoji" font-size="20px" fill="#1864ab" text-anchor="middle" style="white-space: pre;" direction="ltr">isLoading</text></g><g transform="translate(590.2565150011401 390.67785153838486) rotate(0 38.5 13)"><text x="0" y="18" font-family="Virgil, Segoe UI Emoji" font-size="20px" fill="#862e9c" text-anchor="start" style="white-space: pre;" direction="ltr">fetching</text></g><g stroke-linecap="round" transform="translate(750.7565150011403 269.17785153838486) rotate(0 127 35.5)"><path d="M-1.43 0.7 C71.04 1.23, 139.99 1.14, 253.26 0.93 M-0.65 0.36 C91.21 1.89, 182.51 1.39, 254.46 -0.4 M254.38 -1.66 C251.85 25.87, 255.27 55.04, 252.08 72.12 M254.15 -0.37 C254.74 25.73, 254.89 50.09, 254.79 70.01 M254.54 70.12 C163.1 70.46, 75.97 71.28, -0.99 71.67 M253.66 71.52 C201.47 70.28, 149.33 69.47, -0.37 71.54 M-1.22 69.66 C0.66 53.4, -1.5 38.58, 0.03 -1.55 M-0.54 71.4 C-1.03 49.72, -0.1 28.45, 0.53 -0.2" stroke="#000000" stroke-width="1" fill="none"></path></g><g transform="translate(840.7565150011403 293.17785153838486) rotate(0 41 13)"><text x="0" y="18" font-family="Virgil, Segoe UI Emoji" font-size="20px" fill="#000000" text-anchor="start" style="white-space: pre;" direction="ltr">value(2)</text></g><g stroke-linecap="round"><g transform="translate(815.7565150011403 106.67785153838486) rotate(0 0.27223719289679593 73.45326328687383)"><path d="M0.52 0.49 C0.64 25.07, 0.1 122.09, 0.01 146.42" stroke="#d9480f" stroke-width="1.5" fill="none" stroke-dasharray="1.5 7"></path></g></g><g transform="translate(754.7565150011403 69.67785153838486) rotate(0 53 13)"><text x="0" y="18" font-family="Virgil, Segoe UI Emoji" font-size="20px" fill="#d9480f" text-anchor="start" style="white-space: pre;" direction="ltr">Revalidate</text></g><g stroke-linecap="round" transform="translate(1028.7565150011403 268.17785153838486) rotate(0 86 35.5)"><path d="M-0.97 -0.1 C58.16 1.15, 119.32 -1.09, 170.92 -1.61 M0.54 0.34 C59.73 -2.15, 119.2 -1.96, 171.01 0.19 M173.49 -0.25 C169.4 16.53, 172.42 31.06, 171.09 71.31 M172.81 -0.37 C173.25 17.68, 172.99 38.2, 171.49 71.33 M173.67 72.64 C128.51 72.37, 85.57 71.47, -1.03 70.16 M171.19 70.41 C108.95 72.38, 46.05 72.03, 0.21 70.39 M-1.28 70.36 C-0.28 52.91, -0.29 38.13, -1.19 -1.07 M-0.03 71.24 C1.21 46.63, 1.64 23.53, -0.77 -0.74" stroke="#000000" stroke-width="1" fill="none"></path></g><g transform="translate(1059.7565150011403 290.17785153838486) rotate(0 62 13)"><text x="0" y="18" font-family="Virgil, Segoe UI Emoji" font-size="20px" fill="#000000" text-anchor="start" style="white-space: pre;" direction="ltr">new value(2)</text></g><g transform="translate(36.51084237636019 303.67785153838486) rotate(0 27.5 13)"><text x="0" y="18" font-family="Virgil, Segoe UI Emoji" font-size="20px" fill="#000000" text-anchor="start" style="white-space: pre;" direction="ltr">data:</text></g><g stroke-linecap="round" transform="translate(10 10) rotate(0 605.4538679180182 209.16706921537502)"><path d="M-0.62 0.34 C308.25 3.87, 618.84 4.97, 1210.42 -0.79 M1209.9 0.13 C1211.21 90.13, 1210.68 178.26, 1211.68 418.72 M1210.43 418.68 C751.98 413.51, 294.73 413.67, 0.46 418.84 M-0.13 418.28 C1.12 279.87, -0.18 140.75, -0.12 -0.07" stroke="#d9480f" stroke-width="1.5" fill="none" stroke-dasharray="1.5 7"></path></g></svg>