<svg version="1.1" xmlns="http://www.w3.org/2000/svg" viewBox="0 0 1230.9077358360364 439.73949543601157" width="2461.815471672073" height="879.4789908720231">
  <!-- svg-source:excalidraw -->
  
  <defs>
    <style>
      @font-face {
        font-family: "Virgil";
        src: url("https://excalidraw.com/Virgil.woff2");
      }
      @font-face {
        font-family: "Cascadia";
        src: url("https://excalidraw.com/Cascadia.woff2");
      }
    </style>
  </defs>
  <rect x="0" y="0" width="1230.9077358360364" height="439.73949543601157" fill="#ffffff"></rect><g stroke-linecap="round" transform="translate(99.20874427113495 280.73949543601157) rotate(0 86.5 37)"><path d="M1.62 -0.8 C67.53 -0.34, 135.26 0.2, 171.68 1.35 M0.85 -0.51 C54.2 -2.07, 107.34 -1.36, 173.83 0.76 M171.38 1.67 C173.96 14.48, 172.36 29.92, 174.28 72.45 M173.68 -0.35 C173.28 19.87, 172.14 40.84, 173.88 73.12 M172.94 72.94 C131.91 76.31, 94.99 73.18, 1.94 75.95 M172.46 73.45 C119.86 75.03, 65.71 75.69, -0.05 74.86 M1.65 75.79 C1.32 45.04, -1.27 14.32, -1.73 -1.37 M-0.19 73.73 C-0.09 48.64, -0.76 23.93, 0.34 0.76" stroke="#000000" stroke-width="1" fill="none"></path></g><g transform="translate(139.20874427113495 302.23949543601157) rotate(0 45 13)"><text x="0" y="18" font-family="Virgil, Segoe UI Emoji" font-size="20px" fill="#000000" text-anchor="start" style="white-space: pre;" direction="ltr">undefined</text></g><g stroke-linecap="round" transform="translate(97.70874427113495 198.73949543601157) rotate(0 86.5 28)"><path d="M0 0 C0 0, 0 0, 0 0 M0 0 C0 0, 0 0, 0 0 M0 6.43 C0.9 3.43, 2.97 1.24, 5.26 0.44 M-0.27 6.13 C0.83 4.59, 2.59 3.6, 4.69 0.14 M-0.72 11.92 C2.61 7.83, 9.55 4.11, 11.97 -1.59 M0.19 11.45 C4.4 6.92, 7.41 4.05, 10.01 -0.69 M-1.67 18.54 C6.48 13.39, 11.28 6.09, 14.84 -0.02 M-0.48 18.95 C4.42 12.94, 10.37 5.83, 16.15 0.19 M-0.56 25.36 C6.59 16.11, 12.22 10.5, 20.6 -0.48 M0.88 24.16 C6.21 17.92, 11.53 10.69, 21.08 0.29 M-1.46 29.75 C6.95 22.5, 15.09 13.39, 25.21 -0.11 M0.02 30.51 C6.08 23.8, 11.31 17.25, 25.94 -0.43 M0.13 38.53 C11.63 21.79, 26.1 7.19, 32.55 -1.32 M-1.14 36.83 C12.64 24.05, 23.41 10, 32.75 0.29 M1.87 44.37 C12.12 29.52, 24.46 14.41, 38.38 2.05 M-0.32 42.84 C12.39 29.26, 23.7 13.72, 36.07 -0.74 M1.43 48.26 C11.09 35.43, 21.02 23.54, 42.38 0.87 M0.2 49.82 C11.94 34.62, 25.01 20.8, 42.36 -0.73 M-0.08 56.4 C17.39 36.7, 33.57 17.29, 47.72 0.95 M0.31 54.76 C15.41 36.09, 30.49 20.3, 47.83 -0.54 M4.06 59.4 C19.1 40.21, 34.47 22.04, 53.11 -0.82 M2.49 57.76 C17.75 39.23, 34.04 22.9, 53.77 0.76 M8.31 59.24 C25.41 41.05, 37.66 24.45, 56.39 1.77 M7.31 58.19 C19.57 45.32, 29.1 33.07, 58.4 0.27 M13.79 59.72 C24.45 45.88, 34.11 32.95, 62.54 0.4 M12.47 57.38 C33.5 36.23, 53.97 12.57, 64.21 0.67 M18.28 56.85 C31.62 44.83, 40.09 30.36, 67.33 -1.57 M18.27 58.25 C30.86 44.67, 42.91 30.31, 67.81 0.66 M23.07 56.81 C38.98 40.91, 51.95 26.22, 73.26 -0.94 M24.6 57.43 C39.3 39.86, 54.9 23.21, 75.26 0.32 M30.5 60.15 C42.4 42.19, 58.87 25, 81.26 -0.44 M29.81 58.72 C39.98 46.39, 49.82 33.76, 79.94 -0.47 M34 55.94 C53.51 37.24, 71.38 15.42, 86.63 -0.6 M35.07 57.46 C48.27 41.58, 62.97 25.07, 85.86 -0.61 M39.7 58 C60.11 34.83, 79.02 12.63, 90.69 -1.5 M39.18 57.97 C54.31 41.89, 69.04 23.39, 89.53 0.63 M44.46 59.06 C62.58 35.7, 81.39 16.17, 96.78 1.36 M44.94 57.92 C61.75 37.77, 78.34 19.14, 95.3 -1.02 M49.41 58.99 C66.96 36.09, 86.65 16.81, 101.89 -0.68 M49.99 57.78 C65.12 40.54, 79.91 23.52, 101.2 -0.38 M54.09 58.89 C70.55 40.31, 85.55 26.16, 104.65 -1.36 M55.14 57.16 C75.68 36.51, 94.69 13.99, 106.25 0.56 M61.93 57.41 C74.05 46.06, 85.15 30.04, 112.94 -1.19 M61.22 58.31 C80.16 34.44, 99.9 13.05, 110.39 -0.95 M65.69 57.58 C78.51 43.75, 90.11 32.85, 115.28 1.39 M64.78 59.18 C83.6 37.89, 101.26 18.37, 117.07 -0.25 M72.33 59.3 C83.35 44.26, 98.23 28.61, 123.68 0.48 M72.19 57.13 C89.06 37.6, 106.6 19.24, 122.44 -0.64 M77.8 57.76 C95.32 38.61, 113.86 14.5, 126.47 -0.8 M76.8 57.59 C87.11 45.82, 100.32 31.16, 127.45 0.31 M82.48 56.38 C98.95 36.79, 117.78 16.49, 133.73 0.55 M81.59 58.18 C96.75 40.78, 110.56 25.89, 133.53 -0.12 M86.74 57.02 C102.49 36.53, 119.77 16.42, 138.83 -0.34 M87.05 59.15 C106.96 35.53, 125.45 11.46, 137.46 -0.36 M91.02 56.13 C105.24 39.43, 121.26 22.92, 144.51 -2.04 M92.48 58.79 C113.1 34.39, 131.72 11.73, 143.7 -0.17 M99.32 58.95 C115 40.35, 129.36 22.75, 148.42 -0.66 M97.88 57.79 C113.26 38.63, 130.11 21.19, 147.21 0.78 M103.37 59.7 C124.41 37.46, 144.52 13.62, 153.2 0.37 M103.26 58.69 C122.38 36.13, 139.63 14.99, 153.85 -0.68 M110.09 59.81 C124.81 38.38, 140.87 19.86, 160.06 -1.51 M108.5 58.29 C121.67 42.59, 135.61 25.75, 159.16 0.17 M113.74 56.01 C130.33 39.67, 142.01 24.29, 162.79 -1.83 M114.7 57.01 C130.47 38.07, 148.15 18.33, 164.74 0.35 M119.41 58.62 C132.25 41.81, 143.59 27.53, 169.36 -0.89 M118 57.35 C129.5 45.1, 139.75 34.37, 169.1 0.61 M123.12 59.67 C136.66 42.72, 148.26 29.85, 174.69 -0.04 M124.93 57.25 C135.82 46.25, 144.75 33.3, 174.68 1.31 M131.39 59.11 C144.78 40.44, 159.89 23.98, 174.82 5.7 M130.29 58.54 C141.73 46.31, 152.54 32.96, 173.33 7.12 M133.27 57 C148.45 43.83, 159.88 28.28, 173.59 12.61 M134.44 58.3 C146.1 44.84, 158.33 30.41, 173.28 14.06 M139.94 59.71 C148.68 48.78, 157.32 37.49, 172.92 20.18 M139.17 57.33 C148.42 47.55, 157.7 37.99, 174.68 18.79 M144.75 56.07 C154.06 49.82, 158.75 43.19, 172.97 24.11 M145.07 57.47 C153.9 49.56, 160.45 40.06, 174.05 25.7 M150.77 59.59 C157.58 53.41, 160.27 46.91, 175.55 33.17 M151.3 58.09 C155.87 52.93, 160.84 47.52, 172.98 31.08 M154.88 56.63 C162.7 51.61, 168.91 41.69, 174.94 35.7 M157.02 57.43 C159.19 53.09, 163.36 49.4, 173.21 37.79 M163.24 56.7 C165.47 56.56, 165.32 52.82, 174.72 44 M161.19 59.02 C164.99 54.86, 168.47 51.52, 174.75 42.93 M167.46 56.91 C169.09 55.14, 172.22 52.27, 173.78 49.41 M167.51 57.49 C169.8 54.7, 172.49 51.48, 174.02 49.1" stroke="#fab005" stroke-width="0.5" fill="none"></path><path d="M0.4 -0.12 C55.15 1.12, 106.96 2.04, 173.26 1.11 M173.15 -1.39 C171.66 21.28, 175.14 44.02, 171.28 55.6 M174.11 54.66 C112.08 55.73, 53.42 55.9, -0.48 54.23 M1.87 54.93 C-0.79 38.88, 1.39 19.94, -1.43 1.18" stroke="#c92a2a" stroke-width="1.5" fill="none" stroke-dasharray="1.5 7"></path></g><g transform="translate(102.70874427113495 214.73949543601157) rotate(0 81.5 12)"><text x="81.5" y="17" font-family="Virgil, Segoe UI Emoji" font-size="20px" fill="#c92a2a" text-anchor="middle" style="white-space: pre;" direction="ltr">isValidating</text></g><g stroke-linecap="round" transform="translate(97.70874427113495 126.73949543601157) rotate(0 86.5 21)"><path d="M0 0 C0 0, 0 0, 0 0 M0 0 C0 0, 0 0, 0 0 M-1.03 5.76 C1.07 3.5, 4.08 1.78, 4.65 0.21 M-0.54 6.13 C1.31 5.09, 2.31 2.92, 5.29 0.28 M-1.35 12.32 C4.53 9.91, 7.15 4.04, 11.6 1.47 M0.73 11.27 C3.07 9.24, 5.77 4.26, 10.79 -0.32 M1.37 19.14 C5.42 12.86, 7.54 8.52, 16.57 -0.16 M-1.1 19.36 C5.38 11.64, 12.35 4.56, 15.82 -0.38 M-0.3 23.63 C2.92 20.78, 8.12 13.85, 21.01 1.78 M0.4 24.68 C3.95 19.28, 8.78 14.26, 21.22 0.15 M-0.74 31.54 C8.85 21.09, 17.19 9.46, 24.53 0.23 M0.45 30.49 C10.22 18.71, 19.99 6.41, 27.22 0.14 M-1.19 36.52 C10.54 24.72, 20.5 12.19, 33.23 -1.32 M0.62 37.69 C10.25 25.34, 21.58 13.53, 31.99 -0.12 M0.73 42.61 C12.31 27.61, 23.24 18.7, 37.52 -0.27 M0.08 43.28 C10.33 29.06, 21.41 16.23, 36.54 0.48 M5.74 41.96 C17.21 28.05, 31.74 12.85, 42.16 -0.75 M5.67 41.27 C14.27 32.1, 20.85 23.52, 43.06 0.17 M11.32 43.58 C19.66 32.94, 28.68 22.59, 47.84 -1.36 M10.52 41.68 C25.2 26.26, 40.24 8.1, 47.76 -0.19 M16.2 43.16 C24.99 31.94, 36.42 17.77, 53.24 -1.1 M15.87 41.55 C31.26 26.4, 45.95 9.89, 53.22 -0.77 M23.34 42.57 C27.66 34.75, 34.92 26.12, 56.58 0.97 M22.34 42.69 C33.96 28.23, 48.17 12.23, 57.21 0.69 M28.03 42.04 C37.74 28.6, 46.99 17.83, 65.7 -0.24 M27.26 43.04 C36.47 32.91, 44.64 23.77, 63.09 -0.79 M33.39 42.34 C40.8 29.34, 51.8 16.55, 67.61 0.47 M32.51 43.12 C45.12 28.1, 56.65 13.5, 68.58 0.06 M38.48 40.96 C45.08 33.99, 52.05 23.86, 74.54 0.68 M37.86 41.39 C45.56 33.65, 53.97 24.63, 74.17 -0.89 M41.85 42.35 C54.77 28.49, 65.67 16.75, 77.55 -1.41 M42.83 42.69 C53.47 28.51, 66.17 14.74, 79.92 0.27 M49.58 42.02 C61.91 27.05, 74.29 14.07, 84.54 -0.78 M48.02 41.61 C59.02 29.23, 69.74 17.81, 85.82 -0.15 M54.87 40.8 C64.67 29.07, 73.95 17.74, 89.84 -1.47 M52.96 42.97 C64.56 28.32, 75.74 16.74, 90.63 0.03 M58.11 41 C71.21 27.97, 84.95 14.92, 96.26 1.67 M59.46 41.13 C70.94 28.43, 81.55 14.85, 96.25 -0.79 M62.4 40.6 C72.17 32.76, 81.29 23.04, 100.68 -0.84 M63.44 42.47 C76.21 27.99, 90.75 11.86, 100.5 -0.53 M69.66 41.43 C85.25 26.82, 97.39 7.2, 108.06 1.04 M70.27 42.75 C77.74 34.04, 85.34 25.16, 105.52 -1.1 M76.15 43.39 C88.65 25.61, 101.71 11.58, 113.05 1.1 M74.64 41.55 C88.47 26.67, 101.24 9.3, 110.63 -0.9 M79.93 41.32 C89.38 33.07, 97.87 21.59, 117.4 -0.2 M79.23 42.41 C87.99 33.35, 98.08 21.82, 115.93 0.24 M83.64 43.5 C93.38 33.31, 103.72 22.99, 122.74 0.7 M85.82 41.48 C96.21 31.31, 106.18 18.05, 122.52 0.81 M91.38 44.09 C105.25 25.12, 117.12 9.74, 125.5 0.9 M89.45 43.2 C101.03 30.53, 110.83 19.55, 127.57 0.2 M94.13 42.01 C103.72 32.54, 115.64 21.55, 132.28 -0.01 M96.07 41.42 C105.55 31.69, 116.88 19.2, 133.02 0.9 M99.28 41.19 C112.45 26.13, 128.91 11.41, 139.4 2.24 M101.43 42.85 C113.39 26.02, 127.39 10.95, 137.44 0.89 M104.7 40.71 C119.42 26.45, 134.13 10.64, 145 0.75 M107.37 41.42 C118.38 27.31, 131.2 14.01, 143.33 -0.95 M112.33 43.02 C122.77 29.42, 136.07 13.03, 148.57 -0.29 M110.69 41.73 C124.72 27.64, 137.27 12.33, 149.04 -0.44 M118.2 44.1 C129.57 29.99, 138.14 17.36, 155.02 -1.52 M117.52 41.42 C128.82 26.88, 141.65 13.11, 154.02 -0.68 M122.02 41.69 C135.87 24.99, 151.79 7.29, 158.26 1.9 M122.12 42.6 C132.96 29.24, 143.92 17.61, 158.75 0.35 M129.25 41.41 C140.08 27.41, 154.17 8.48, 165.24 0.38 M127.23 42.24 C140.31 27.75, 153.49 13.26, 164.02 -0.81 M132.62 41.02 C142.44 28.32, 155.72 14.63, 167.51 0.13 M132.94 41.6 C147.75 26.42, 161.74 9.88, 168.8 -0.7 M138.25 40.57 C151.01 26.38, 164.65 11.53, 172 0.88 M139.02 42.6 C149.26 28.21, 162.93 14.89, 174.28 2 M143.18 42.58 C150.74 34.31, 160.67 21.48, 173.22 5.24 M143.75 43.28 C150.83 33.83, 157.93 24.45, 174.37 6.12 M149.41 42.25 C155.8 32.91, 163.22 24.97, 173.91 13.69 M148.3 42.13 C154.91 34.32, 160.16 29.29, 173.59 14.08 M153.52 43.64 C159.64 35.13, 165.97 28.06, 173.31 18.47 M153.52 41.57 C160.56 35.04, 166.78 28.33, 173.72 18.12 M160.69 41.83 C162.8 38.4, 167.01 31.2, 173.37 26.61 M160.33 42.3 C163.41 37, 167.63 33.28, 173.14 24.47 M165.76 42.93 C167.14 38.9, 171.63 36.59, 172.59 31.07 M164.56 42.66 C167.22 39.75, 169.41 35.62, 174.34 32.26 M170.1 42.4 C170.8 40.82, 172.17 39.54, 173.63 37.52 M169.92 41.84 C171.12 40.78, 172.11 39.55, 173.89 37.67" stroke="#15aabf" stroke-width="0.5" fill="none"></path><path d="M1.01 0.42 C43.65 1.45, 90.2 1.21, 174.59 1.69 M171.18 0.03 C174.7 11.98, 171.31 20.49, 173.99 40.38 M172.51 40.28 C107.92 39.29, 39.79 39.07, 0.13 43.36 M-0.4 42.04 C1.38 29.12, -1.82 20.92, 0.71 -0.06" stroke="#1864ab" stroke-width="1.5" fill="none" stroke-dasharray="1.5 7"></path></g><g transform="translate(102.70874427113495 135.73949543601157) rotate(0 81.5 12)"><text x="81.5" y="17" font-family="Virgil, Segoe UI Emoji" font-size="20px" fill="#1864ab" text-anchor="middle" style="white-space: pre;" direction="ltr">isLoading</text></g><g stroke-linecap="round"><g transform="translate(103.20874427113495 389.73949543601157) rotate(0 82.53097058720891 0.6812151592224609)"><path d="M0.25 -0.79 C27.73 -0.53, 137.41 1.53, 164.81 2.15" stroke="#862e9c" stroke-width="1.5" fill="none" stroke-dasharray="1.5 7"></path></g><g transform="translate(103.20874427113495 389.73949543601157) rotate(0 82.53097058720891 0.6812151592224609)"><path d="M135.09 13.19 C144.97 10.04, 154.65 7.78, 163.78 2.31" stroke="#862e9c" stroke-width="1.5" fill="none" stroke-dasharray="1.5 5"></path></g><g transform="translate(103.20874427113495 389.73949543601157) rotate(0 82.53097058720891 0.6812151592224609)"><path d="M135.51 -7.33 C145.37 -4.44, 154.92 -0.67, 163.78 2.31" stroke="#862e9c" stroke-width="1.5" fill="none" stroke-dasharray="1.5 5"></path></g></g><g transform="translate(136.20874427113495 403.73949543601157) rotate(0 38.5 13)"><text x="0" y="18" font-family="Virgil, Segoe UI Emoji" font-size="20px" fill="#862e9c" text-anchor="start" style="white-space: pre;" direction="ltr">fetching</text></g><g stroke-linecap="round" transform="translate(304.70874427113495 279.73949543601157) rotate(0 86.5 36.5)"><path d="M0.26 1.11 C57.15 0.53, 110.11 -1.01, 171.61 -1.82 M-0.86 -0.2 C52.69 -2.13, 105.24 -0.77, 172.33 -0.25 M172.52 -1.77 C173.6 16.99, 172.77 33.12, 171.93 72.6 M172.29 0.59 C174 22.01, 173.12 43.32, 173.85 73.56 M173.21 71.53 C135.33 73.6, 92.83 75.83, -1.17 73.26 M173.92 72.11 C120.57 75.31, 67.47 74.82, 0.04 72.04 M0.68 73.21 C-0.22 56.56, 0.08 40.87, -1.32 -1.37 M-0.74 72.44 C0.5 55.73, -0.57 38.34, -0.08 -0.92" stroke="#000000" stroke-width="1" fill="none"></path></g><g transform="translate(356.20874427113495 302.23949543601157) rotate(0 36.5 13)"><text x="0" y="18" font-family="Virgil, Segoe UI Emoji" font-size="20px" fill="#000000" text-anchor="start" style="white-space: pre;" direction="ltr">value(1)</text></g><g stroke-linecap="round"><g transform="translate(529.208744271135 377.73949543601157) rotate(0 84.8416268248111 1.1684604566544294)"><path d="M0.67 0.95 C28.7 1.16, 141.11 1.35, 169.02 1.38" stroke="#862e9c" stroke-width="1.5" fill="none" stroke-dasharray="1.5 7"></path></g><g transform="translate(529.208744271135 377.73949543601157) rotate(0 84.8416268248111 1.1684604566544294)"><path d="M142.4 13.29 C150.13 7.84, 160.13 2.12, 169.05 3.05" stroke="#862e9c" stroke-width="1.5" fill="none" stroke-dasharray="1.5 5"></path></g><g transform="translate(529.208744271135 377.73949543601157) rotate(0 84.8416268248111 1.1684604566544294)"><path d="M142.43 -7.23 C150.18 -5.14, 160.17 -3.33, 169.05 3.05" stroke="#862e9c" stroke-width="1.5" fill="none" stroke-dasharray="1.5 5"></path></g></g><g stroke-linecap="round" transform="translate(811.708744271135 192.73949543601157) rotate(0 86.5 27.5)"><path d="M0 0 C0 0, 0 0, 0 0 M0 0 C0 0, 0 0, 0 0 M-0.42 6.18 C1.47 3.88, 2.69 1.86, 5.26 0.96 M-0.34 6.27 C0.75 4.96, 1.78 3.7, 5.37 0.63 M1.64 12.02 C4.39 6.17, 9.5 1.17, 10.26 1.42 M-0.15 11.75 C1.95 9.38, 5.5 6.93, 11.13 -0.35 M-0.61 19.98 C3.31 14.66, 6.18 10.74, 14.63 0.55 M-0.83 17.44 C5.05 12.64, 10.74 5.37, 14.79 1.16 M2.11 22.29 C7.16 17.81, 11.81 12.39, 20.09 0.53 M0.48 24.51 C5.37 16.91, 11.65 11, 21.07 0.37 M-0.05 32.21 C6.6 23.28, 13.99 15.75, 26.39 0.11 M-0.15 30.62 C7.49 22.92, 13.9 13.78, 26.64 0.15 M-1.47 37.3 C8.9 24.26, 23.12 13.66, 31.6 0.54 M-0.27 36.87 C12.86 23.51, 24.69 8.36, 32.67 -1.07 M-0.39 42.48 C12.61 27.2, 27.2 12.23, 34.99 -1.24 M0.36 43.12 C9.37 33.07, 16.62 24.07, 36.15 0.76 M-0.73 47.1 C12.76 36.44, 24.38 18.56, 44.4 -1.84 M0.18 48.32 C12.09 35.69, 24.64 21.4, 42.52 0.33 M-1.32 56.5 C14.81 38.02, 28.89 19.14, 47.24 1.47 M-0.14 54.33 C17.09 37.11, 31.97 18.86, 46.86 1.13 M1.71 59.8 C17.59 40.24, 31.84 22.2, 53.88 1.5 M2.04 57.04 C20.74 37.33, 39.66 15.87, 52.5 0.5 M9.06 58.73 C17.78 45.53, 30.89 34.05, 56.62 2.02 M8.78 57.44 C24.78 40.18, 41.3 20.53, 58.22 -0.25 M13.23 56.49 C23.54 42.53, 37.6 31.71, 65.14 0.49 M12.68 57.79 C30.12 37.59, 48.13 18.3, 62.87 -0.77 M19.22 58.48 C30.8 44.7, 43.09 33.07, 69.38 0.95 M18.82 56.6 C28.4 45.35, 39.41 33.62, 68.55 0.46 M24.81 56.16 C37.76 42.85, 48.99 28.37, 75.03 0.8 M23.25 57.8 C43.84 36.56, 62.09 13.19, 75.27 -0.83 M28.01 57.84 C51.16 36.36, 69.23 13.46, 78.45 -0.4 M29.68 57.78 C47.28 35.95, 65.84 16.59, 80.07 -0.54 M34.02 57.51 C54.88 35.15, 72.39 13.12, 86.1 -2.09 M34.65 57.56 C54.11 35.15, 74.1 12.28, 85.74 -1.17 M38.61 57.65 C56.56 37.93, 73.17 20.55, 89.49 -1.91 M40.11 57.81 C52 43.4, 64.43 27.92, 89.91 0.33 M47.13 58.04 C62.21 37.22, 81.66 14.68, 96.61 -0.92 M44.68 56.98 C58.51 42.62, 71.41 26.05, 95.72 -0.41 M49.9 58.55 C68.74 35.89, 86.11 16.23, 98.88 1.29 M50.22 58.37 C67.84 37.76, 86.37 16.66, 101.04 0.98 M57.17 56 C65.77 43.48, 79.46 33.71, 106.56 1.33 M55.03 58.27 C70.76 40.64, 85.9 24.39, 107.03 -1.34 M62.51 58.93 C81.74 35.36, 100.11 11.59, 111.73 0.89 M60.51 57 C72.43 45.19, 83.14 32.92, 111.38 0.7 M65.84 56.45 C76.63 44.49, 90.46 28.29, 115.01 2.24 M66.28 57.04 C86.17 36.73, 103.86 14.98, 116.23 0.9 M72.77 57 C92.83 32.96, 111.88 11.11, 123.84 1.34 M72.89 58.11 C90.68 36.48, 108.15 17.36, 122.69 -0.86 M77.6 57.22 C92.06 40.36, 103.68 27.33, 128.68 -1.1 M76.91 57.25 C94.95 36.21, 111.55 16.63, 126.22 0.74 M82.73 56.72 C99.54 37.01, 118.85 14.6, 131.76 1.88 M83.64 57.95 C102.44 33.53, 121.68 10.7, 131.66 -0.71 M89.61 58.92 C106.11 37.74, 125.51 15.91, 136.07 -1.58 M88.26 58.2 C101.83 39.97, 116.39 23.39, 137.35 -0.25 M94.16 57.85 C111.79 37.32, 132.29 13.25, 142.75 -1.47 M92.45 57.64 C111.76 37.28, 128.93 17.04, 142.84 0.52 M97.74 58.95 C114.62 38.4, 128.29 20.05, 148.04 0.99 M97.59 57.58 C108.26 46.3, 119.01 34.67, 149 0.59 M102.55 57.91 C117.2 42.86, 131.62 24.53, 152.76 -1.91 M103.39 58.16 C120.34 40.42, 134.57 21.84, 153.7 -0.44 M110.6 57.47 C127.99 36.78, 145.78 16.26, 159.19 -1.48 M109.05 58.42 C125.64 37.37, 143.26 18.71, 157.94 0.79 M115.11 58.23 C127.45 42.64, 135.79 32.33, 164.51 0.13 M113.92 57.36 C131 38.63, 147.18 18.81, 163.57 -0.53 M119.5 59.45 C132.86 39.07, 149.99 22.24, 169.8 0.75 M118.66 58.1 C131.98 43.38, 146.01 26.39, 169.35 -0.27 M124.11 58.65 C142.76 37.37, 160.45 20.15, 172.09 0.53 M125.24 57.68 C144.79 35.86, 163.11 13.31, 173.38 2.21 M128.48 56.62 C146.67 41.38, 160.71 25.69, 174 7.97 M129.36 57.39 C138.74 45.97, 149.5 35.5, 173.86 6.45 M135.51 56.54 C144.89 46.03, 156.09 32.68, 173.75 11.49 M135.9 58.17 C144 48.1, 153.14 37.36, 173.38 13.64 M140.29 57.49 C146.36 46.9, 155.25 38.15, 174.84 17.96 M139.94 57.39 C151.73 43.73, 164.17 31.47, 173.75 19.55 M147.02 57.32 C151.51 49.15, 161.47 42.49, 173.53 24.36 M144.88 58.01 C154.25 48.96, 163.66 38.84, 173.78 25.35 M150.42 57.38 C160.97 47.41, 168.59 38.5, 173.71 33.25 M152.12 56.59 C155.8 50.99, 161.34 46.62, 173.28 31.46 M156.72 57.42 C163.79 50.29, 166.65 43.28, 173 37.85 M157.21 58.46 C160.95 53.02, 164.43 50.41, 173.48 37.86 M161.15 56.46 C165.68 54.41, 170.74 48.71, 174.98 45.04 M161.56 57.76 C167.14 51.4, 171.22 46.76, 174.43 43.52 M167.81 58.49 C169.79 55.04, 170.88 53.69, 174.38 49.47 M166.65 58.27 C169.17 55.54, 171.15 53.66, 174.29 49.24" stroke="#fab005" stroke-width="0.5" fill="none"></path><path d="M1.69 -1.03 C54.28 -2.76, 106.43 -1.34, 174.67 1.53 M171.38 1.67 C174 10.42, 172.4 21.8, 174.28 53.45 M174.36 54.3 C127.16 54.04, 77.17 55.15, 1.77 53.25 M-0.06 53.94 C-1.85 44.12, 0.79 28.41, 1.94 1.95" stroke="#c92a2a" stroke-width="1.5" fill="none" stroke-dasharray="1.5 7"></path></g><g transform="translate(816.708744271135 208.23949543601157) rotate(0 81.5 12)"><text x="81.5" y="17" font-family="Virgil, Segoe UI Emoji" font-size="20px" fill="#c92a2a" text-anchor="middle" style="white-space: pre;" direction="ltr">isValidating</text></g><g stroke-linecap="round" transform="translate(526.708744271135 280.73949543601157) rotate(0 86 35.5)"><path d="M0.15 -1.39 C63.43 0.92, 132.17 2.41, 170.28 -0.4 M0.55 -0.67 C59.83 -2.3, 120.8 -2.21, 171.76 -0.88 M173.87 -1.07 C172.08 21.79, 174.25 41.75, 170.57 72.18 M171.24 0.85 C172.54 23.1, 172.95 48.6, 172.1 70.27 M173.14 69.83 C104.65 70.2, 36.69 71.77, 1.85 69.23 M172.33 71.04 C105.97 71.74, 41.01 71.86, 0.34 71.1 M-0.02 69.68 C-1.23 51.39, 0.81 35.94, -1.48 -1.11 M-0.54 70.92 C-0.78 44.58, 1.1 18.48, 0.84 -0.97" stroke="#000000" stroke-width="1" fill="none"></path></g><g transform="translate(26.703752503667943 36.4259135922066) rotate(0 143.5 13)"><text x="0" y="18" font-family="Virgil, Segoe UI Emoji" font-size="20px" fill="#000000" text-anchor="start" style="white-space: pre;" direction="ltr">Key Change + Previous Data</text></g><g stroke-linecap="round"><g transform="translate(484.70874427113495 120.73949543601157) rotate(0 1.0946873825043895 144.45464086718857)"><path d="M-0.83 -1.09 C-0.23 47.23, 2.23 241.82, 3.02 290" stroke="#d9480f" stroke-width="1.5" fill="none" stroke-dasharray="1.5 7"></path></g></g><g transform="translate(432.20874427113495 79.73949543601157) rotate(0 55 13)"><text x="0" y="18" font-family="Virgil, Segoe UI Emoji" font-size="20px" fill="#d9480f" text-anchor="start" style="white-space: pre;" direction="ltr">Key Change</text></g><g transform="translate(568.208744271135 302.23949543601157) rotate(0 36.5 13)"><text x="0" y="18" font-family="Virgil, Segoe UI Emoji" font-size="20px" fill="#000000" text-anchor="start" style="white-space: pre;" direction="ltr">value(1)</text></g><g stroke-linecap="round" transform="translate(526.208744271135 191.73949543601157) rotate(0 86.5 28)"><path d="M0 0 C0 0, 0 0, 0 0 M0 0 C0 0, 0 0, 0 0 M0.34 5.81 C0.55 5.58, 2.05 3.32, 4.56 0.3 M0.01 6.73 C0.43 5.34, 2.28 3.84, 5.01 0.07 M1.58 10.8 C2.87 7.87, 7.54 2.45, 9.4 0.05 M-0.18 11.73 C3.89 7.83, 7.77 3.54, 10.35 0.38 M0.1 19.51 C2.64 15.24, 4.69 9.17, 14.79 1.6 M0.71 18.11 C3.98 13.53, 9.39 7.84, 16.23 0.4 M0.87 23.72 C7.43 16.54, 13.72 9.91, 19.8 -0.8 M0.7 23.56 C5.45 16.92, 11.14 12.3, 21.27 -0.04 M-0.17 29.87 C7.62 21.99, 17.8 9.91, 26.63 1.94 M-0.14 30.81 C6.1 23.39, 12.76 15.28, 25.36 0.25 M0.39 38.59 C12.69 22.78, 24.35 8.22, 33.62 1.75 M-1.22 37.63 C11.22 24.75, 20.66 12.22, 31.43 0.22 M-1.36 40.9 C8.65 29.74, 21.9 19.16, 38.43 -0.4 M0.64 42.45 C11.63 30.01, 21.78 16.68, 37.2 1.16 M-1.83 48.59 C11.43 35.42, 25.55 18.96, 42.17 1.7 M0.35 49.02 C13.94 33.01, 26.75 17.74, 42.56 0.06 M1.52 55.21 C12.17 40.2, 25.84 24.3, 48.93 1.68 M1.18 54.54 C13.32 39.2, 26.84 24.36, 47.37 0.04 M4.31 59.18 C17.22 43.61, 26.58 27.4, 53.84 0.77 M3.31 57.06 C23.46 34.41, 43.12 12.7, 52.84 -0.28 M9.45 58.83 C27.56 33.92, 48.33 12.64, 58.66 2 M7.18 57.68 C25.58 38.91, 42.91 16.94, 57.35 -0.33 M13.96 58.77 C30.72 37.46, 44.07 19.89, 63.81 -1.62 M12.7 57.18 C31.03 36.39, 50.64 16.06, 63.8 -0.22 M19.05 56.35 C36.45 37.51, 52.84 15.82, 67.95 -0.91 M18.55 57.69 C35.42 38.64, 53.43 17.93, 69.47 -0.29 M24.93 59.58 C41.48 38.71, 55.17 20.51, 76.03 1.67 M23.3 58.8 C36.73 41.43, 49.36 27.45, 75.34 0.24 M28.37 59.32 C43.54 41.1, 61.02 22.24, 78.88 -1.78 M28.22 59.03 C47.09 36.5, 65.37 15.44, 79.94 -0.26 M32.71 59.48 C47.8 43.34, 62.43 25.45, 85.23 -0.47 M33.63 58.17 C53.33 35.35, 72.5 13.52, 84.71 -0.51 M37.51 57.21 C53.74 44.01, 66.05 28, 89.33 1.35 M39.75 58.75 C53.7 43.51, 66.93 28.3, 89.82 0.2 M44.54 57.07 C62.04 38.2, 80.35 14.89, 94.94 0.51 M45.05 58.42 C56.6 44.77, 67.84 32.31, 95.52 -0.7 M51.38 59.24 C61.92 43.65, 74.34 31.26, 98.97 1.17 M51.07 57.34 C65.17 41.14, 81.76 21.67, 100.01 -0.55 M57.46 57.67 C75.84 34.6, 91.26 15.61, 107.46 -1.06 M54.79 58.59 C74.07 36.19, 94.42 13.99, 106.75 -0.16 M61.65 56.33 C74.9 38.72, 90.61 21.33, 111.22 -0.89 M61.46 57.63 C77.81 40.07, 93.16 20.29, 110.3 0.71 M67.63 60.08 C78.25 42.48, 92.83 26.14, 117.2 1.58 M66.28 59.37 C76.9 45.97, 88.26 32.45, 117.06 -0.59 M72.76 59.14 C89 37.66, 110.28 16.84, 123.33 -0.71 M70.56 57.88 C88.62 36.04, 107.69 15.54, 122.33 -0.89 M74.94 59.54 C87.51 46.08, 98.81 30.6, 127.35 -1.34 M76.79 59.04 C87.66 46.11, 98.3 33.4, 126.47 0.46 M83.97 60.02 C98.85 40.24, 117.37 21.61, 132.27 -1.45 M81.38 58.71 C93.43 46.42, 106.04 33.09, 132.58 0.68 M85.14 58.28 C103.88 37.48, 124.73 17.64, 135.89 -1.59 M86.46 59.08 C97.23 47.04, 109.4 34.03, 137.35 1.07 M91.28 59.07 C112.78 35.62, 131.05 13.22, 144.85 0.47 M93.27 58.15 C109.49 38.34, 127.11 18.74, 143.41 -0.68 M98.36 56.48 C110.6 46.98, 119.61 31.96, 148.24 1.99 M97.97 58.08 C115.33 37.86, 132.39 16.87, 148.13 0.97 M101.5 58.07 C120.05 38.61, 137.51 19.95, 155.62 1.34 M102.97 58.62 C117.72 40.45, 134.49 23.32, 154.03 -0.18 M106.56 59.07 C123.55 40.36, 139.39 24.3, 158.61 -1.71 M108.83 57.52 C126.7 37.25, 146.87 15.44, 159.57 -0.71 M114.21 58.56 C127.63 42.4, 138.08 28.86, 164.94 0.15 M113.55 57.92 C128.78 40.2, 144.28 24.86, 163.53 -1.13 M119.46 57.67 C136.66 38.06, 150.48 21.49, 167.99 1.95 M118.43 58.78 C133.62 40.27, 149.04 24.3, 169.8 -0.47 M123.76 59.77 C142.4 38.49, 161.94 16.07, 175.6 2.15 M125.45 58.26 C138.3 41.06, 152.48 24.49, 174.51 1.57 M130.55 56.64 C144.76 41.1, 158.11 22.75, 172.24 6.08 M129.03 58.13 C143.5 41.87, 158.42 24.64, 173.41 7.38 M133.31 56.66 C145.61 46.9, 154.7 37.64, 173.67 14.82 M135.46 57.2 C146.28 45.19, 156.21 33.27, 172.89 12.44 M139.13 59.03 C148.85 46.92, 156.28 37.77, 173.22 17.22 M140.72 57.72 C151.66 44.18, 165.01 30.31, 173.54 18.62 M144.77 57.91 C156.86 44.01, 164.96 33.96, 173.99 26.78 M145.76 58.75 C157.21 44.61, 166.84 32.94, 174.52 25.28 M152.25 56.65 C156.08 52.03, 165.67 40.78, 172.2 30.61 M150.46 58.6 C156.18 50.03, 163.64 43.29, 174.34 31.41 M156.86 55.92 C160.78 52.06, 165.18 51.02, 176.06 35.89 M156.86 58.25 C163.09 49.77, 169.21 41.93, 173.91 38.33 M162.69 59.89 C163.69 53.5, 168.51 49.32, 174.57 42.33 M161.1 57.74 C164.83 54.85, 168.98 50.77, 174.65 43.33 M167.06 57.24 C168.54 54.56, 170.72 53.57, 174.74 49.08 M166.83 57.61 C169.27 54.51, 172.01 51.56, 174.36 49.07" stroke="#fab005" stroke-width="0.5" fill="none"></path><path d="M1.53 -1.72 C35.76 -0.46, 70.71 0.23, 174.11 -1.34 M171.45 -0.48 C170.75 15.55, 173.88 30.15, 174.87 54.93 M171.25 54.57 C125.78 58.24, 76.13 56.47, -1.52 57.69 M1.95 56.21 C-1.06 37.93, -0.68 15.03, 1.14 -1.17" stroke="#c92a2a" stroke-width="1.5" fill="none" stroke-dasharray="1.5 7"></path></g><g transform="translate(531.208744271135 207.73949543601157) rotate(0 81.5 12)"><text x="81.5" y="17" font-family="Virgil, Segoe UI Emoji" font-size="20px" fill="#c92a2a" text-anchor="middle" style="white-space: pre;" direction="ltr">isValidating</text></g><g stroke-linecap="round" transform="translate(523.208744271135 119.73949543601157) rotate(0 86.5 21)"><path d="M0 0 C0 0, 0 0, 0 0 M0 0 C0 0, 0 0, 0 0 M-0.71 7 C1.28 4.16, 2.77 2.35, 4.25 0.5 M-0.65 6.64 C2.15 3.96, 3.88 1.29, 5.28 -0.02 M-1.17 12.37 C2.37 8.2, 4.61 5.51, 11.83 0.52 M-0.01 12.42 C3.8 8.32, 7.52 3.73, 9.85 0.7 M-0.39 18.84 C2.39 11.82, 6.92 10.55, 15.05 -0.13 M-0.34 18.31 C4.06 13.66, 7.18 10.7, 15.75 0.92 M0.99 24 C5.69 19.15, 8.86 11.73, 20.51 0.99 M0.06 23.22 C6.04 18.26, 11.98 10.64, 21.71 -0.06 M-1.43 32.42 C7.77 21.57, 16.53 13.68, 25.32 -0.07 M-0.6 31.15 C8.34 20.37, 16.96 9.87, 27.13 1.1 M0.53 37.07 C8.78 26.02, 19.72 17.32, 32.48 -0.01 M0.64 37.2 C11.98 22.64, 23.93 9.02, 31.84 0.66 M-1.85 41.85 C8.45 35.32, 17.12 24.77, 36.84 0.09 M0.64 42.34 C7.96 32.05, 16.92 24.27, 36.77 -0.6 M4.59 43.21 C21.23 24.33, 34.75 10.71, 43.07 0.96 M6.15 42.29 C15.81 30.37, 27.67 16.92, 42.27 -0.94 M9.25 43 C20.2 29.8, 32.97 19.61, 47.29 1.29 M10.44 42.53 C18.56 33.48, 27.53 22.43, 46.96 -0.32 M18.27 42.23 C27.22 25.85, 41.46 14.38, 55.09 -0.05 M17.2 41.31 C25.15 33.07, 33.08 22.44, 54.09 0.07 M21.56 40.6 C30.25 32.67, 38.02 25.2, 59.13 0.17 M21.7 43.41 C32.88 28.95, 43.42 16.13, 58.36 1.17 M28.8 40.67 C39.25 26.12, 53.97 9.37, 65.14 -0.29 M26.18 41.48 C35.1 33.99, 42.62 24.68, 64.26 0.5 M33.05 42.05 C43.82 26.97, 55.34 13.76, 69.58 -0.91 M31.68 42.48 C42.58 30.01, 53.04 18.67, 68.96 -0.48 M38.79 41.54 C48.32 27.57, 63.39 15.65, 73.6 -0.27 M37.39 41.1 C51.32 25.56, 67.18 9.57, 74.58 0.06 M41.48 43.43 C52.34 32.12, 60.8 18.94, 80.67 0.15 M42.49 42.13 C56.19 26.39, 70.5 10.63, 79.11 -0.25 M47.63 43.55 C61.89 26.23, 74.8 11.66, 86.62 -1.82 M47.51 41.89 C61.5 26.33, 75.55 10.35, 84.71 0.35 M54.38 43.56 C63.63 31.73, 73.08 20.71, 89.2 -0.87 M54.13 42.64 C64.75 30.1, 74.12 17.94, 90.56 -0.74 M57.51 43.1 C70.86 25.77, 83.84 13.57, 94.15 -2.02 M58.57 41.96 C69.75 29.39, 81.26 15.53, 95.19 -0.16 M63.06 41.99 C70.26 35.12, 77.48 25.39, 100.75 -0.44 M63.41 43.19 C76.65 27.43, 87.74 13.41, 101.37 0.88 M71.37 40.37 C79.21 29.71, 93.38 14.75, 107.9 0.76 M68.96 42.8 C84.24 26.62, 97.86 10.24, 106.39 -1.08 M72.62 40.96 C84.35 28.26, 97.95 14.49, 111.68 -1.31 M75.05 42.84 C85.31 28.77, 95.96 17.06, 110.98 -0.21 M78.29 41.95 C87.57 30.97, 97.45 23.55, 114.73 1.63 M79.78 43.05 C90.52 29.67, 101.8 16.39, 116.91 -0.39 M83.94 43.45 C101.1 26.85, 115.41 7.87, 123.13 1.47 M84.61 41.54 C99.67 26.15, 113.65 9.58, 121.2 0.58 M90.11 43.94 C104.47 25.08, 119.48 7.88, 125.23 0.14 M90.47 42.47 C98.53 32.31, 106.58 22.93, 127.17 -0.45 M95.68 43.16 C106.88 32.11, 114.28 18.42, 131.03 -1.43 M95.49 43.14 C104.8 33.69, 111.6 24.89, 133.18 0.23 M99.47 42.37 C110.69 34.1, 116.21 21.53, 135.8 -1.16 M99.82 43.48 C111.79 30.72, 121.53 19.29, 138.46 -0.45 M106.28 42.49 C115.22 30.95, 128.86 19.01, 144.08 0.4 M105.97 42.38 C115.68 31.54, 125.97 19.03, 142.45 -0.89 M112.45 44.28 C120.65 30.37, 132.95 19.75, 149.29 2.23 M111.67 43.14 C124.68 26.78, 139.44 10.94, 148.62 -0.45 M115.95 42.57 C125.44 33.51, 137.47 22.64, 153.77 -0.94 M116.2 41.87 C128.64 29.65, 138.64 17.44, 153.87 -0.03 M121.91 42.41 C134.39 30.5, 145.72 13.41, 160.34 -0.46 M121.22 42.9 C129.98 34.24, 138.39 23.7, 158.32 0.37 M128.7 41.26 C137.48 29.47, 150.45 16.63, 164.37 -1.6 M127.15 41.15 C135.64 34.07, 142.59 23.16, 164.69 -1.03 M133.5 41.21 C142.48 30.2, 154.56 17.39, 169.35 -1.3 M132.01 41.59 C143.41 30.3, 154.75 16.91, 170.12 0.73 M138.32 43.12 C147.54 32.43, 155.69 24.91, 173.62 1.47 M137.7 41.61 C146.39 30.81, 157.29 20.84, 174.2 2.16 M143.63 42.86 C150.47 32.04, 159.26 21.06, 174.6 7.17 M142.94 42.44 C152.03 32.18, 159.49 23.64, 173.49 7.05 M150.37 41.45 C157.97 34.35, 163.62 26.84, 173.46 14.6 M149.55 41.55 C154.83 35.06, 160.31 26.99, 173.46 12.53 M153.52 41.26 C158.96 34.46, 166.33 25.2, 175.38 18.83 M153.3 42.07 C159.44 36.47, 163.11 30.58, 175.02 19.3 M160.19 40.23 C161.79 37.73, 167.6 34.22, 175.71 26.21 M160.27 41.17 C163.06 37.25, 168.06 32.59, 173.99 25.82 M163.58 43.52 C168.16 38.07, 168.87 35.33, 173.49 32.81 M163.97 41.75 C167.02 39.53, 169.65 36.73, 173.07 31.49 M170.43 41.44 C171.62 41.3, 172.69 39.34, 174.63 37.91 M170.25 41.84 C170.96 40.74, 171.96 40.11, 174.25 37.53" stroke="#15aabf" stroke-width="0.5" fill="none"></path><path d="M-0.4 0.99 C64.72 3.16, 133.77 0.15, 172.51 -1.72 M171.23 0.13 C174.04 14.59, 174.55 29.51, 172.6 42.04 M174.18 42.71 C105.73 39.71, 37.08 42.46, 1.12 40.57 M-1.47 43.86 C-1.49 24.23, 0.73 7.5, 0.26 0.15" stroke="#1864ab" stroke-width="1.5" fill="none" stroke-dasharray="1.5 7"></path></g><g transform="translate(528.208744271135 128.73949543601157) rotate(0 81.5 12)"><text x="81.5" y="17" font-family="Virgil, Segoe UI Emoji" font-size="20px" fill="#1864ab" text-anchor="middle" style="white-space: pre;" direction="ltr">isLoading</text></g><g transform="translate(578.208744271135 397.73949543601157) rotate(0 38.5 13)"><text x="0" y="18" font-family="Virgil, Segoe UI Emoji" font-size="20px" fill="#862e9c" text-anchor="start" style="white-space: pre;" direction="ltr">fetching</text></g><g stroke-linecap="round" transform="translate(738.708744271135 276.23949543601157) rotate(0 127 35.5)"><path d="M1.35 0.9 C70.02 1.26, 140.81 2.7, 252.75 -0.39 M-0.28 0.76 C53.31 -1.57, 107.5 -0.69, 253.29 -0.58 M252.94 -1.52 C255.95 26.62, 252.82 52.94, 255.95 71.21 M253.45 0.57 C254.08 16.23, 254.74 32.15, 254.86 71.92 M255.45 71.54 C200.35 71.14, 145.27 71.3, -1.11 71.55 M253.78 70.99 C174.61 70.05, 95.76 70.87, 0.61 70.4 M-0.66 69.93 C-0.68 51.79, -0.18 38.19, 1.36 1.68 M-0.02 71.07 C-1.17 57.36, -1.39 42.01, 0.91 -0.78" stroke="#000000" stroke-width="1" fill="none"></path></g><g transform="translate(828.708744271135 300.23949543601157) rotate(0 41 13)"><text x="0" y="18" font-family="Virgil, Segoe UI Emoji" font-size="20px" fill="#000000" text-anchor="start" style="white-space: pre;" direction="ltr">value(2)</text></g><g stroke-linecap="round"><g transform="translate(803.708744271135 113.73949543601157) rotate(0 0.1886070606407202 72.5817890066653)"><path d="M0.66 -0.81 C0.78 23.36, -0.31 121.49, -0.3 145.97" stroke="#d9480f" stroke-width="1.5" fill="none" stroke-dasharray="1.5 7"></path></g></g><g transform="translate(742.708744271135 76.73949543601157) rotate(0 53 13)"><text x="0" y="18" font-family="Virgil, Segoe UI Emoji" font-size="20px" fill="#d9480f" text-anchor="start" style="white-space: pre;" direction="ltr">Revalidate</text></g><g stroke-linecap="round" transform="translate(1016.708744271135 275.23949543601157) rotate(0 86 35.5)"><path d="M-1.72 1.28 C59.58 -0.06, 120.47 0.55, 173.36 -0.7 M0.02 0.88 C66.82 -0.37, 135.99 0.7, 171.97 -0.53 M170.57 1.94 C174.55 16.1, 171.14 33.65, 170.92 69.9 M172.08 -0.05 C172.44 26.27, 170.7 51.47, 172.83 71.89 M170.4 69.27 C113.32 70.02, 57.58 68.49, -0.39 70.45 M171.34 71.34 C121.36 69.09, 68.65 70.57, -0.2 70.67 M0.35 72.91 C1.41 55.18, -1.89 37.22, 1.88 -0.03 M-0.96 70.77 C1.43 48.43, -0.29 27.63, -0.35 -0.36" stroke="#000000" stroke-width="1" fill="none"></path></g><g transform="translate(1047.708744271135 297.23949543601157) rotate(0 62 13)"><text x="0" y="18" font-family="Virgil, Segoe UI Emoji" font-size="20px" fill="#000000" text-anchor="start" style="white-space: pre;" direction="ltr">new value(2)</text></g><g transform="translate(25.619862568257417 308.4259135922066) rotate(0 27.5 13)"><text x="0" y="18" font-family="Virgil, Segoe UI Emoji" font-size="20px" fill="#000000" text-anchor="start" style="white-space: pre;" direction="ltr">data:</text></g><g stroke-linecap="round" transform="translate(10 10) rotate(0 605.4538679180182 209.16706921537502)"><path d="M-0.76 -0.47 C479.04 -1.12, 957.8 -1.85, 1210.26 -0.26 M1210.93 0.45 C1212.77 132.75, 1211.41 264.02, 1209.88 418.72 M1210.18 419.11 C866.65 415.68, 522.03 417.26, 0.61 418.25 M-0.86 419.13 C-1.42 261.35, -0.42 105.16, 0.23 0.48" stroke="#d9480f" stroke-width="1.5" fill="none" stroke-dasharray="1.5 7"></path></g></svg>