<?xml version="1.0" standalone="no"?>
<!DOCTYPE svg PUBLIC "-//W3C//DTD SVG 20010904//EN"
 "http://www.w3.org/TR/2001/REC-SVG-20010904/DTD/svg10.dtd">
<svg version="1.0" xmlns="http://www.w3.org/2000/svg"
 width="2200.000000pt" height="2200.000000pt" viewBox="0 0 2200.000000 2200.000000"
 preserveAspectRatio="xMidYMid meet">
<metadata>
Created by potrace 1.11, written by Peter Selinger 2001-2013
</metadata>
<g transform="translate(0.000000,2200.000000) scale(0.100000,-0.100000)"
fill="#000000" stroke="none">
<path d="M5717 13583 c-1 -1 -37 -4 -79 -8 -72 -6 -113 -12 -113 -15 0 -1 -16
-3 -35 -5 -45 -5 -66 -9 -175 -34 -116 -28 -116 -28 -145 -39 -14 -5 -27 -10
-30 -10 -14 -2 -125 -40 -165 -57 -80 -33 -183 -82 -239 -112 -33 -18 -69 -36
-78 -39 -10 -4 -18 -10 -18 -15 0 -5 -5 -9 -11 -9 -6 0 -47 -25 -91 -55 -44
-30 -83 -55 -88 -55 -5 0 -10 -3 -12 -8 -1 -4 -23 -23 -48 -42 -64 -50 -66
-51 -113 -93 -132 -120 -272 -268 -291 -308 -5 -10 -13 -19 -17 -19 -4 0 -21
-19 -37 -42 -16 -24 -50 -73 -75 -111 -26 -37 -47 -71 -47 -76 0 -5 -4 -11 -9
-13 -29 -10 -211 -413 -247 -543 -32 -116 -53 -202 -58 -230 -3 -16 -12 -70
-21 -120 -18 -107 -26 -247 -29 -580 -2 -137 -6 -263 -10 -280 -40 -187 -80
-284 -172 -417 -89 -128 -223 -244 -359 -310 -33 -16 -71 -35 -85 -43 -14 -7
-74 -25 -135 -40 -124 -31 -287 -37 -405 -15 -36 7 -70 13 -77 14 -7 1 -16 5
-19 9 -4 4 -15 7 -25 7 -32 0 -181 71 -265 125 -82 54 -223 198 -280 286 -47
73 -117 230 -128 285 -3 16 -10 50 -15 77 -6 26 -13 89 -16 140 -7 113 -7 113
-31 162 -33 69 -108 134 -177 152 -12 4 -242 7 -512 7 l-490 1 -48 -23 c-58
-29 -117 -86 -143 -138 -16 -33 -19 -60 -18 -184 0 -125 5 -200 19 -285 11
-67 23 -136 29 -160 2 -11 9 -40 15 -65 40 -177 160 -476 246 -615 14 -22 29
-49 34 -60 19 -42 168 -248 231 -320 62 -70 165 -179 180 -191 8 -7 31 -27 50
-44 100 -91 286 -228 395 -291 75 -43 230 -119 243 -119 6 0 12 -4 12 -9 0 -5
10 -11 22 -14 13 -3 66 -22 118 -42 52 -20 102 -38 110 -40 36 -9 218 -54 245
-60 17 -4 44 -9 60 -11 17 -1 44 -5 60 -8 77 -15 175 -21 350 -21 191 1 304 9
405 30 14 3 40 8 59 11 58 10 214 49 241 61 8 3 24 8 35 10 11 1 29 7 40 12
11 5 61 25 110 44 50 19 112 47 139 61 27 14 52 26 57 26 12 0 176 97 259 152
152 103 349 276 481 424 48 54 187 243 225 306 20 35 44 71 52 81 8 9 12 17 8
17 -3 0 4 17 17 38 50 81 156 332 182 432 2 8 13 47 23 85 26 93 51 211 57
265 3 25 7 56 10 70 10 49 17 219 19 490 2 154 9 299 15 330 21 101 69 232
103 283 11 15 17 27 14 27 -13 0 100 149 153 201 103 103 194 163 366 240 59
27 254 62 340 61 100 0 253 -27 338 -58 62 -23 172 -77 175 -86 2 -4 10 -8 17
-8 8 0 20 -6 27 -12 7 -7 31 -26 53 -43 22 -16 69 -59 105 -95 l65 -65 782 0
782 -1 -6 26 c-3 14 -8 30 -12 35 -3 6 -7 18 -8 28 -7 45 -81 225 -146 356
-91 182 -90 181 -99 181 -5 0 -8 4 -8 9 0 12 -81 135 -92 139 -4 2 -8 8 -8 13
0 8 -20 35 -47 64 -7 8 -13 18 -13 23 0 6 -3 12 -7 14 -5 2 -26 23 -47 48
-125 144 -323 330 -392 368 -13 7 -24 17 -24 22 0 6 -6 10 -13 10 -8 0 -22 9
-32 20 -10 11 -24 20 -31 20 -7 0 -14 4 -16 8 -7 19 -242 149 -368 205 -66 30
-189 76 -212 81 -13 2 -34 9 -48 15 -23 10 -126 37 -175 47 -11 2 -30 6 -42 9
-53 12 -69 15 -108 21 -122 19 -228 27 -388 28 -82 1 -149 0 -150 -1z"/>
<path d="M12588 13585 c-2 -2 -39 -6 -83 -9 -110 -9 -172 -18 -285 -41 -14 -3
-36 -7 -50 -10 -52 -10 -258 -74 -327 -103 -40 -16 -73 -28 -73 -27 0 2 -60
-27 -132 -64 -138 -70 -241 -129 -246 -143 -2 -4 -8 -8 -13 -8 -6 0 -30 -15
-54 -32 -23 -18 -55 -42 -71 -53 -15 -11 -32 -24 -38 -30 -6 -5 -38 -32 -71
-60 -137 -114 -329 -325 -413 -454 -20 -31 -39 -58 -42 -61 -12 -10 -70 -111
-70 -120 0 -6 -3 -10 -7 -10 -5 0 -21 -29 -38 -65 -16 -35 -33 -65 -37 -65 -5
0 -8 -8 -8 -18 0 -10 -6 -26 -14 -37 -26 -39 -142 -355 -130 -355 3 0 0 -9 -6
-19 -5 -11 -13 -37 -16 -58 -3 -21 -8 -41 -11 -45 -5 -9 -10 -34 -18 -88 -3
-20 -8 -47 -10 -60 -5 -25 -11 -71 -21 -145 -2 -22 -7 -184 -9 -360 -2 -176
-6 -333 -9 -350 -4 -16 -9 -46 -12 -65 -3 -19 -17 -71 -31 -115 -79 -253 -273
-473 -522 -594 -59 -28 -169 -66 -221 -75 -14 -3 -25 -5 -25 -6 0 -5 -93 -11
-175 -12 -122 -1 -191 9 -300 43 -157 50 -295 135 -411 252 l-70 71 -772 1
c-425 0 -775 -1 -778 -2 -10 -4 22 -127 35 -135 6 -4 8 -8 4 -8 -6 0 59 -177
81 -217 5 -10 26 -52 46 -93 49 -101 160 -287 185 -310 3 -3 17 -23 32 -45 15
-22 38 -52 50 -66 13 -15 42 -49 65 -76 175 -206 432 -416 663 -541 51 -28
145 -76 150 -77 3 0 23 -9 45 -19 72 -33 120 -52 155 -61 3 -1 19 -7 35 -14
67 -28 292 -85 380 -97 28 -3 52 -7 56 -9 29 -18 473 -27 594 -12 33 4 80 10
105 13 25 3 87 14 139 25 51 12 101 22 110 24 9 2 46 13 84 25 37 12 73 23 80
24 6 2 21 7 32 11 11 4 52 20 90 35 397 156 768 434 1023 770 40 52 81 106 92
120 11 14 20 30 20 37 0 6 4 13 8 15 10 4 79 122 133 226 70 137 146 342 185
497 4 17 8 32 9 35 4 16 15 69 20 95 3 17 7 41 10 55 2 14 7 48 11 75 3 28 8
66 10 85 3 19 7 166 9 325 6 383 8 415 44 535 30 105 96 250 113 250 4 0 8 5
8 11 0 12 58 89 104 139 254 271 623 380 976 290 72 -18 216 -75 230 -90 3 -3
22 -14 43 -24 20 -11 37 -23 37 -28 0 -4 5 -8 11 -8 19 0 112 -81 189 -166 79
-87 163 -239 198 -359 38 -130 41 -161 47 -405 6 -269 13 -449 20 -495 20
-136 38 -238 51 -290 21 -87 74 -256 90 -287 8 -14 14 -32 14 -39 0 -22 137
-294 192 -382 48 -78 151 -220 214 -297 33 -40 232 -240 285 -285 54 -47 247
-187 255 -185 4 1 10 -3 13 -8 9 -15 102 -68 231 -132 176 -89 407 -168 591
-204 8 -2 30 -6 49 -10 36 -7 53 -9 175 -23 88 -10 410 -10 490 -1 138 17 196
26 268 43 31 7 57 10 57 7 0 -3 5 -1 12 6 7 7 20 12 30 12 19 0 237 70 295 95
104 45 277 133 351 179 46 28 95 57 108 64 13 7 24 17 24 23 0 5 7 9 15 9 8 0
15 3 15 8 0 4 21 21 45 37 25 17 45 33 45 38 0 4 4 7 9 7 21 0 238 209 332
320 72 85 147 186 161 216 6 13 14 24 18 24 4 0 13 14 20 30 7 17 16 30 21 30
5 0 9 9 9 20 0 11 3 20 8 20 4 0 12 10 18 23 7 12 28 54 49 92 74 142 195 458
180 474 -3 2 -354 5 -780 5 l-774 1 -67 -68 c-36 -37 -98 -91 -138 -118 -70
-49 -213 -124 -258 -134 -13 -2 -48 -11 -78 -20 -159 -42 -370 -38 -520 12
-25 8 -52 16 -61 18 -9 2 -25 8 -35 13 -11 6 -41 21 -69 33 -27 13 -54 27 -60
32 -5 4 -30 21 -55 37 -25 16 -61 44 -82 62 -20 18 -44 41 -55 50 -54 49 -116
130 -165 214 -38 65 -112 253 -103 262 2 3 0 11 -6 19 -6 7 -9 13 -6 13 3 0 1
15 -4 33 -5 17 -12 122 -14 232 -7 288 -15 507 -20 534 -2 13 -7 49 -11 80 -8
74 -29 175 -60 291 -14 52 -27 100 -28 105 -2 6 -8 23 -14 38 -7 16 -12 33
-12 38 0 6 -11 35 -25 65 -14 30 -25 56 -25 59 0 2 -5 16 -12 32 -6 15 -12 30
-13 33 0 3 -7 16 -15 30 -8 14 -15 27 -15 30 -1 7 -47 94 -80 150 -14 25 -31
55 -37 68 -6 12 -15 22 -20 22 -4 0 -8 5 -8 11 0 13 -77 122 -160 224 -239
297 -604 569 -945 705 -44 17 -89 36 -100 40 -58 25 -300 91 -380 104 -16 2
-30 5 -30 6 0 2 -11 4 -25 5 -14 1 -43 5 -65 8 -82 13 -154 18 -302 21 -84 2
-154 2 -155 1z"/>
<path d="M19427 13584 c-1 -1 -38 -5 -82 -9 -44 -3 -91 -8 -105 -10 -14 -2
-41 -7 -60 -9 -79 -12 -98 -16 -175 -35 -253 -62 -441 -138 -660 -264 -69 -40
-185 -115 -195 -126 -3 -4 -22 -17 -42 -31 -21 -14 -38 -28 -38 -32 0 -5 -4
-8 -10 -8 -5 0 -18 -8 -29 -17 -10 -10 -49 -45 -86 -78 -100 -88 -204 -200
-290 -309 -16 -21 -36 -45 -42 -52 -7 -7 -13 -17 -13 -22 0 -6 -3 -12 -7 -14
-12 -5 -73 -95 -73 -106 0 -6 -4 -12 -8 -14 -13 -5 -156 -270 -157 -290 0 -4
-6 -13 -12 -19 -7 -7 -13 -20 -13 -29 0 -9 -3 -20 -7 -24 -5 -4 -8 -11 -9 -14
0 -4 -5 -18 -11 -32 -23 -54 -73 -212 -73 -229 0 -17 39 -18 776 -18 l776 0
68 66 c107 104 158 142 265 195 126 62 243 95 360 101 39 2 72 5 75 6 11 2 67
0 120 -6 484 -53 861 -454 885 -940 7 -137 32 -202 98 -260 66 -58 136 -80
247 -76 30 1 62 2 70 2 52 -2 247 -2 255 -1 6 1 12 2 15 0 17 -6 150 -4 150 3
0 5 5 5 11 1 10 -6 118 -9 144 -4 6 2 13 1 18 0 17 -4 135 -1 177 5 111 15
207 102 238 215 5 19 3 211 -3 270 -6 60 -15 138 -21 175 -3 17 -7 41 -9 55
-5 39 -55 243 -65 265 -5 11 -16 45 -25 75 -17 56 -39 112 -55 142 -6 10 -10
22 -10 28 0 32 -154 314 -222 407 -21 29 -38 55 -38 58 0 4 -6 12 -12 19 -7 7
-24 28 -38 46 -167 222 -421 449 -675 602 -123 74 -352 179 -490 224 -18 6
-190 55 -205 58 -73 17 -223 41 -320 52 -54 6 -358 13 -363 8z"/>
</g>
</svg>
